{
.appVersion = "3086";
classes = (
{
automatic = 1;

glyphs = (
{
color = 6;
glyphname = A;
layers = (
{
anchors = (
{
name = bottom;
position = "{350, 0}";
},
{
name = ogonek;
position = "{675, 0}";
},
{
name = top;
position = "{350, 700}";
}
);
layerId = "5A878C7E-547A-4951-B48F-676DBBC9B762";
paths = (
{
closed = 1;
nodes = (
"135 0 LINE",
"294 418 LINE SMOOTH",
"311 462 OFFCURVE",
"344 568 OFFCURVE",
"360 613 CURVE",
"337 612 LINE",
"344.935 589.781 OFFCURVE",
"393 441 OFFCURVE",
"400 422 CURVE SMOOTH",
"560 0 LINE",
"675 0 LINE",
"406 700 LINE",
"296 700 LINE",
"25 0 LINE"
);
},
{
closed = 1;
nodes = (
"549 174 LINE",
"503 278 LINE",
"185 278 LINE",
"145 174 LINE"
);
}
);
width = 700;
},
{
anchors = (
{
name = bottom;
position = "{345, 0}";
},
{
name = ogonek;
position = "{631, 0}";
},
{
name = top;
position = "{345, 700}";
}
);
layerId = "554F9022-F5DF-470A-8852-5D1AD00D5051";
paths = (
{
closed = 1;
nodes = (
"190 0 LINE",
"302 306 LINE SMOOTH",
"332 388 OFFCURVE",
"343.667 412 OFFCURVE",
"361 496 CURVE",
"327 496 LINE",
"344.333 412 OFFCURVE",
"354 389 OFFCURVE",
"384 306 CURVE SMOOTH",
"496 0 LINE",
"710 0 LINE",
"431 700 LINE",
"261 700 LINE",
"-20 0 LINE"
);
},
{
closed = 1;
nodes = (
"565 104 LINE",
"508 251 LINE",
"183 251 LINE",
"120 104 LINE"
);
}
);
width = 690;
},
{
anchors = (
{
name = bottom;
position = "{306, 0}";
},
{
name = ogonek;
position = "{565, 0}";
},
{
name = top;
position = "{306, 700}";
}
);
layerId = "CCD999A9-9CE8-4787-8FD2-D5D19514269E";
paths = (
{
closed = 1;
nodes = (
"46 0 LINE",
"237 503 LINE SMOOTH",
"247 530 OFFCURVE",
"292 646 OFFCURVE",
"309 694 CURVE",
"298 695 LINE",
"328 620 OFFCURVE",
"365 522 OFFCURVE",
"372 504 CURVE SMOOTH",
"565 0 LINE",
"591 0 LINE",
"322 700 LINE",
"289 700 LINE",
"20 0 LINE"
);
},
{
closed = 1;
nodes = (
"493 230 LINE",
"485 253 LINE",
"128 253 LINE",
"120 230 LINE"
);
}
);
width = 611;
},
{
anchors = (
{
name = bottom;
position = "{496, 0}";
},
{
name = ogonek;
position = "{899, 0}";
},
{
name = top;
position = "{496, 700}";
}
);
layerId = "649E0662-786D-44F6-8E8D-A6782F19FFAA";
paths = (
{
closed = 1;
nodes = (
"206 0 LINE",
"439 478 LINE SMOOTH",
"464 529 OFFCURVE",
"486 573 OFFCURVE",
"510 638 CURVE",
"478 637 LINE",
"499 573 OFFCURVE",
"521 533 OFFCURVE",
"546 482 CURVE SMOOTH",
"781 0 LINE",
"900 0 LINE",
"560 700 LINE",
"434 700 LINE",
"92 0 LINE"
);
},
{
closed = 1;
nodes = (
"716 164 LINE",
"699 268 LINE",
"284 268 LINE",
"241 164 LINE"
);
}
);
width = 992;
},
{
anchors = (
{
name = bottom;
position = "{452, 0}";
},
{
name = ogonek;
position = "{786, 0}";
},
{
name = top;
position = "{452, 700}";
}
);
layerId = "9FF8E21A-ED06-4F66-AEDE-2CE647DC4B08";
paths = (
{
closed = 1;
nodes = (
"117 0 LINE",
"392 563 LINE SMOOTH",
"412 603 OFFCURVE",
"432 644 OFFCURVE",
"452 684 CURVE",
"449 684 LINE",
"469 647 OFFCURVE",
"491 602 OFFCURVE",
"510 564 CURVE SMOOTH",
"786 0 LINE",
"812 0 LINE",
"467 700 LINE",
"436 700 LINE",
"92 0 LINE"
);
},
{
closed = 1;
nodes = (
"691 221 LINE",
"681 243 LINE",
"226 243 LINE",
"215 221 LINE"
);
}
);
width = 903;
},
{
anchors = (
{
name = bottom;
position = "{491, 0}";
},
{
name = ogonek;
position = "{855, 0}";
},
{
name = top;
position = "{491, 700}";
}
);
layerId = "ED109265-B005-47B0-97BD-F1815082B32B";
paths = (
{
closed = 1;
nodes = (
"261 0 LINE",
"447 366 LINE SMOOTH",
"477 425 OFFCURVE",
"497 472 OFFCURVE",
"511 521 CURVE",
"468 521 LINE",
"482 476 OFFCURVE",
"498 429 OFFCURVE",
"530 366 CURVE SMOOTH",
"717 0 LINE",
"935 0 LINE",
"585 700 LINE",
"399 700 LINE",
"47 0 LINE"
);
},
{
closed = 1;
nodes = (
"732 94 LINE",
"704 241 LINE",
"282 241 LINE",
"216 94 LINE"
);
}
);
width = 982;
},
{
anchors = (
{
name = bottom;
position = "{324, 0}";
},
{
name = ogonek;
position = "{622, 0}";
},
{
name = top;
position = "{324, 700}";
}
);
layerId = "2B3ECD2C-4B3A-40C3-8F2B-A5E41B85E4DD";
paths = (
{
closed = 1;
nodes = (
"77 0 LINE",
"257 478 LINE SMOOTH",
"289 563 OFFCURVE",
"303 600.333 OFFCURVE",
"331 687 CURVE",
"314 687 LINE",
"340.667 603 OFFCURVE",
"354 567 OFFCURVE",
"385 484 CURVE SMOOTH",
"566 0 LINE",
"622 0 LINE",
"359 700 LINE",
"291 700 LINE",
"25 0 LINE"
);
},
{
closed = 1;
nodes = (
"515 211 LINE",
"496 261 LINE",
"153 261 LINE",
"134 211 LINE"
);
}
);
width = 647;
}
);
leftKerningGroup = A;
rightKerningGroup = A;
unicode = 0041;
},
{
color = 6;
glyphname = AE;
layers = (
{
anchors = (
{
name = bottom;
position = "{485, 0}";
},
{
name = top;
position = "{645, 700}";
}
);
layerId = "5A878C7E-547A-4951-B48F-676DBBC9B762";
paths = (
{
closed = 1;
nodes = (
"114 0 LINE",
"490 550 LINE",
"465 558 LINE",
"465 245 LINE",
"266 245 LINE",
"203 153 LINE",
"465 153 LINE",
"465 0 LINE",
"894 0 LINE",
"894 93 LINE",
"566 93 LINE",
"566 308 LINE",
"849 308 LINE",
"849 402 LINE",
"566 402 LINE",
"566 607 LINE",
"894 607 LINE",
"894 700 LINE",
"493 700 LINE",
"5 0 LINE"
);
}
);
width = 969;
},
{
anchors = (
{
name = bottom;
position = "{577, 0}";
},
{
name = top;
position = "{775, 700}";
}
);
layerId = "554F9022-F5DF-470A-8852-5D1AD00D5051";
paths = (
{
closed = 1;
nodes = (
"221 0 LINE",
"597 550 LINE",
"572 558 LINE",
"572 299 LINE",
"409 299 LINE",
"297 135 LINE",
"572 135 LINE",
"572 0 LINE",
"1107 0 LINE",
"1107 175 LINE",
"779 175 LINE",
"779 272 LINE",
"1062 272 LINE",
"1062 436 LINE",
"779 436 LINE",
"779 525 LINE",
"1107 525 LINE",
"1107 700 LINE",
"468 700 LINE",
"-20 0 LINE"
);
}
);
width = 1154;
},
{
anchors = (
{
name = bottom;
position = "{463, 0}";
},
{
name = top;
position = "{635, 700}";
}
);
layerId = "CCD999A9-9CE8-4787-8FD2-D5D19514269E";
paths = (
{
closed = 1;
nodes = (
"28 0 LINE",
"492 687 LINE",
"486 691 LINE",
"486 238 LINE",
"182 238 LINE",
"167 216 LINE",
"486 216 LINE",
"486 0 LINE",
"861 0 LINE",
"861 22 LINE",
"508 22 LINE",
"508 350 LINE",
"804 350 LINE",
"804 372 LINE",
"508 372 LINE",
"508 678 LINE",
"861 678 LINE",
"861 700 LINE",
"476 700 LINE",
"0 0 LINE"
);
}
);
userData = {
com.schriftgestaltung.Glyphs.glyph.rightMetricsKey = E;
};
width = 926;
},
{
anchors = (
{
name = bottom;
position = "{712, 0}";
},
{
name = top;
position = "{945, 700}";
}
);
layerId = "649E0662-786D-44F6-8E8D-A6782F19FFAA";
paths = (
{
closed = 1;
nodes = (
"221 0 LINE",
"722 563 LINE",
"692 575 LINE",
"692 257 LINE",
"434 257 LINE",
"341 153 LINE",
"692 153 LINE",
"692 0 LINE",
"1261 0 LINE",
"1261 104 LINE",
"800 104 LINE",
"800 293 LINE",
"1216 293 LINE",
"1216 397 LINE",
"800 397 LINE",
"800 596 LINE",
"1261 596 LINE",
"1261 700 LINE",
"720 700 LINE",
"92 0 LINE"
);
}
);
width = 1421;
},
{
anchors = (
{
name = bottom;
position = "{690, 0}";
},
{
name = top;
position = "{918, 700}";
}
);
layerId = "9FF8E21A-ED06-4F66-AEDE-2CE647DC4B08";
paths = (
{
closed = 1;
nodes = (
"121 0 LINE",
"722 677 LINE",
"716 682 LINE",
"716 238 LINE",
"325 238 LINE",
"305 216 LINE",
"716 216 LINE",
"716 0 LINE",
"1224 0 LINE",
"1224 22 LINE",
"738 22 LINE",
"738 340 LINE",
"1167 340 LINE",
"1167 362 LINE",
"738 362 LINE",
"738 678 LINE",
"1224 678 LINE",
"1224 700 LINE",
"711 700 LINE",
"90 0 LINE"
);
}
);
userData = {
com.schriftgestaltung.Glyphs.glyph.rightMetricsKey = E;
};
width = 1374;
},
{
anchors = (
{
name = bottom;
position = "{804, 0}";
},
{
name = top;
position = "{1085, 700}";
}
);
layerId = "ED109265-B005-47B0-97BD-F1815082B32B";
paths = (
{
closed = 1;
nodes = (
"328 0 LINE",
"829 563 LINE",
"799 575 LINE",
"799 311 LINE",
"577 311 LINE",
"435 135 LINE",
"799 135 LINE",
"799 0 LINE",
"1474 0 LINE",
"1474 186 LINE",
"1013 186 LINE",
"1013 257 LINE",
"1429 257 LINE",
"1429 431 LINE",
"1013 431 LINE",
"1013 514 LINE",
"1474 514 LINE",
"1474 700 LINE",
"695 700 LINE",
"67 0 LINE"
);
}
);
width = 1606;
},
{
anchors = (
{
name = bottom;
position = "{471, 0}";
},
{
name = top;
position = "{638, 700}";
}
);
layerId = "2B3ECD2C-4B3A-40C3-8F2B-A5E41B85E4DD";
paths = (
{
closed = 1;
nodes = (
"60 0 LINE",
"491 620 LINE",
"465 628 LINE",
"465 241 LINE",
"212 241 LINE",
"178 191 LINE",
"465 191 LINE",
"465 0 LINE",
"868 0 LINE",
"868 50 LINE",
"515 50 LINE",
"515 336 LINE",
"815 336 LINE",
"815 386 LINE",
"515 386 LINE",
"515 650 LINE",
"872 650 LINE",
"872 700 LINE",
"486 700 LINE",
"0 0 LINE"
);
}
);
userData = {
com.schriftgestaltung.Glyphs.glyph.rightMetricsKey = E;
};
width = 942;
}
);
leftKerningGroup = AE;
rightKerningGroup = E;
rightMetricsKey = E;
unicode = 00C6;
},
{
color = 6;
glyphname = B;
layers = (
{
anchors = (
{
name = bottom;
position = "{341, 0}";
},
{
name = top;
position = "{341, 700}";
}
);
layerId = "5A878C7E-547A-4951-B48F-676DBBC9B762";
paths = (
{
closed = 1;
nodes = (
"400 0 LINE SMOOTH",
"546.667 0 OFFCURVE",
"633 72.667 OFFCURVE",
"633 206 CURVE SMOOTH",
"633 304 OFFCURVE",
"570 371 OFFCURVE",
"477 392 CURVE",
"477 372 LINE",
"552 392 OFFCURVE",
"596 448 OFFCURVE",
"596 524 CURVE SMOOTH",
"596 638.667 OFFCURVE",
"524.667 700 OFFCURVE",
"390 700 CURVE SMOOTH",
"98 700 LINE",
"98 0 LINE"
);
},
{
closed = 1;
nodes = (
"206 306 LINE",
"389 306 LINE SMOOTH",
"470.333 306 OFFCURVE",
"523 270.667 OFFCURVE",
"523 208 CURVE SMOOTH",
"523 141.333 OFFCURVE",
"475.333 104 OFFCURVE",
"394 104 CURVE SMOOTH",
"206 104 LINE"
);
},
{
closed = 1;
nodes = (
"206 596 LINE",
"372 596 LINE SMOOTH",
"446.667 596 OFFCURVE",
"488 563 OFFCURVE",
"488 503 CURVE SMOOTH",
"488 448.333 OFFCURVE",
"444 410 OFFCURVE",
"384 410 CURVE SMOOTH",
"206 410 LINE"
);
}
);
width = 681;
},
{
anchors = (
{
name = bottom;
position = "{358, 0}";
},
{
name = top;
position = "{358, 700}";
}
);
layerId = "554F9022-F5DF-470A-8852-5D1AD00D5051";
paths = (
{
closed = 1;
nodes = (
"412 0 LINE SMOOTH",
"558.667 0 OFFCURVE",
"675 69.333 OFFCURVE",
"675 216 CURVE SMOOTH",
"675 305 OFFCURVE",
"614 369 OFFCURVE",
"523 391 CURVE",
"526 372 LINE",
"599 391 OFFCURVE",
"638 447 OFFCURVE",
"638 531 CURVE SMOOTH",
"638 633.667 OFFCURVE",
"554 700 OFFCURVE",
"402 700 CURVE SMOOTH",
"80 700 LINE",
"80 0 LINE"
);
},
{
closed = 1;
nodes = (
"280 282 LINE",
"401 282 LINE SMOOTH",
"442.333 282 OFFCURVE",
"465 262.333 OFFCURVE",
"465 229 CURVE SMOOTH",
"465 190.333 OFFCURVE",
"443.333 170 OFFCURVE",
"406 170 CURVE SMOOTH",
"280 170 LINE"
);
},
{
closed = 1;
nodes = (
"280 530 LINE",
"363 530 LINE SMOOTH",
"411 530 OFFCURVE",
"430 508.667 OFFCURVE",
"430 478 CURVE SMOOTH",
"430 444.667 OFFCURVE",
"411.667 426 OFFCURVE",
"365 426 CURVE SMOOTH",
"280 426 LINE"
);
}
);
width = 715;
},
{
anchors = (
{
name = bottom;
position = "{326, 0}";
},
{
name = top;
position = "{326, 700}";
}
);
layerId = "CCD999A9-9CE8-4787-8FD2-D5D19514269E";
paths = (
{
closed = 1;
nodes = (
"371 0 LINE SMOOTH",
"532.333 0 OFFCURVE",
"597 84 OFFCURVE",
"597 192 CURVE SMOOTH",
"597 289 OFFCURVE",
"529 365 OFFCURVE",
"395 374 CURVE",
"401 361 LINE",
"497 376 OFFCURVE",
"560 446 OFFCURVE",
"560 531 CURVE SMOOTH",
"560 624.333 OFFCURVE",
"488.667 700 OFFCURVE",
"378 700 CURVE SMOOTH",
"110 700 LINE",
"110 0 LINE"
);
},
{
closed = 1;
nodes = (
"131 356 LINE",
"377 356 LINE SMOOTH",
"502.333 356 OFFCURVE",
"574 286.667 OFFCURVE",
"574 188 CURVE SMOOTH",
"574 94.667 OFFCURVE",
"517.333 22 OFFCURVE",
"372 22 CURVE SMOOTH",
"131 22 LINE"
);
},
{
closed = 1;
nodes = (
"131 678 LINE",
"375 678 LINE SMOOTH",
"475 678 OFFCURVE",
"537 613.333 OFFCURVE",
"537 532 CURVE SMOOTH",
"537 446.667 OFFCURVE",
"462.667 378 OFFCURVE",
"372 378 CURVE SMOOTH",
"131 378 LINE"
);
}
);
userData = {
com.schriftgestaltung.Glyphs.glyph.leftMetricsKey = H;
com.schriftgestaltung.Glyphs.glyph.rightMetricsKey = O;
};
width = 652;
},
{
anchors = (
{
name = bottom;
position = "{500, 0}";
},
{
name = top;
position = "{500, 700}";
}
);
layerId = "649E0662-786D-44F6-8E8D-A6782F19FFAA";
paths = (
{
closed = 1;
nodes = (
"590 0 LINE SMOOTH",
"721 0 OFFCURVE",
"867 43 OFFCURVE",
"867 206 CURVE SMOOTH",
"867 316 OFFCURVE",
"781 370 OFFCURVE",
"692 390 CURVE",
"685 371 LINE",
"780 393 OFFCURVE",
"830 451 OFFCURVE",
"830 524 CURVE SMOOTH",
"830 637 OFFCURVE",
"739 700 OFFCURVE",
"564 700 CURVE SMOOTH",
"182 700 LINE",
"182 0 LINE"
);
},
{
closed = 1;
nodes = (
"290 311 LINE",
"589 311 LINE SMOOTH",
"665 311 OFFCURVE",
"757 287 OFFCURVE",
"757 208 CURVE SMOOTH",
"757 137 OFFCURVE",
"689 104 OFFCURVE",
"594 104 CURVE SMOOTH",
"290 104 LINE"
);
},
{
closed = 1;
nodes = (
"290 596 LINE",
"572 596 LINE SMOOTH",
"655 596 OFFCURVE",
"719 572 OFFCURVE",
"719 508 CURVE SMOOTH",
"719 451 OFFCURVE",
"656 416 OFFCURVE",
"584 416 CURVE SMOOTH",
"290 416 LINE"
);
}
);
width = 995;
},
{
anchors = (
{
name = bottom;
position = "{486, 0}";
},
{
name = top;
position = "{486, 700}";
}
);
layerId = "9FF8E21A-ED06-4F66-AEDE-2CE647DC4B08";
paths = (
{
closed = 1;
nodes = (
"584 0 LINE SMOOTH",
"743 0 OFFCURVE",
"832 67 OFFCURVE",
"832 190 CURVE SMOOTH",
"832 303 OFFCURVE",
"757 369 OFFCURVE",
"621 378 CURVE",
"622 367 LINE",
"734 382 OFFCURVE",
"795 440 OFFCURVE",
"795 533 CURVE SMOOTH",
"795 640 OFFCURVE",
"714 700 OFFCURVE",
"569 700 CURVE SMOOTH",
"194 700 LINE",
"194 0 LINE"
);
},
{
closed = 1;
nodes = (
"216 362 LINE",
"578 362 LINE SMOOTH",
"726 362 OFFCURVE",
"809 301 OFFCURVE",
"809 190 CURVE SMOOTH",
"808 77 OFFCURVE",
"724 17 OFFCURVE",
"573 22 CURVE",
"216 22 LINE"
);
},
{
closed = 1;
nodes = (
"216 678 LINE",
"576 678 LINE SMOOTH",
"701 678 OFFCURVE",
"772 626 OFFCURVE",
"772 534 CURVE SMOOTH",
"772 438 OFFCURVE",
"705 384 OFFCURVE",
"585 384 CURVE SMOOTH",
"216 384 LINE"
);
}
);
userData = {
com.schriftgestaltung.Glyphs.glyph.leftMetricsKey = H;
com.schriftgestaltung.Glyphs.glyph.rightMetricsKey = O;
};
width = 967;
},
{
anchors = (
{
name = bottom;
position = "{517, 0}";
},
{
name = top;
position = "{517, 700}";
}
);
layerId = "ED109265-B005-47B0-97BD-F1815082B32B";
paths = (
{
closed = 1;
nodes = (
"602 0 LINE SMOOTH",
"733 0 OFFCURVE",
"909 40 OFFCURVE",
"909 216 CURVE SMOOTH",
"909 317 OFFCURVE",
"825 368 OFFCURVE",
"738 389 CURVE",
"734 371 LINE",
"827 392 OFFCURVE",
"872 450 OFFCURVE",
"872 531 CURVE SMOOTH",
"872 632 OFFCURVE",
"768 700 OFFCURVE",
"576 700 CURVE SMOOTH",
"164 700 LINE",
"164 0 LINE"
);
},
{
closed = 1;
nodes = (
"364 287 LINE",
"601 287 LINE SMOOTH",
"637 287 OFFCURVE",
"699 278 OFFCURVE",
"699 229 CURVE SMOOTH",
"699 186 OFFCURVE",
"657 170 OFFCURVE",
"606 170 CURVE SMOOTH",
"364 170 LINE"
);
},
{
closed = 1;
nodes = (
"364 530 LINE",
"563 530 LINE SMOOTH",
"619 530 OFFCURVE",
"661 518 OFFCURVE",
"661 483 CURVE SMOOTH",
"661 447 OFFCURVE",
"624 432 OFFCURVE",
"565 432 CURVE SMOOTH",
"364 432 LINE"
);
}
);
width = 1029;
},
{
anchors = (
{
name = bottom;
position = "{331, 0}";
},
{
name = top;
position = "{331, 700}";
}
);
layerId = "2B3ECD2C-4B3A-40C3-8F2B-A5E41B85E4DD";
paths = (
{
closed = 1;
nodes = (
"394 0 LINE SMOOTH",
"520.667 0 OFFCURVE",
"611 86 OFFCURVE",
"611 206 CURVE SMOOTH",
"611 294 OFFCURVE",
"544 362 OFFCURVE",
"445 381 CURVE",
"448 362 LINE",
"524 384 OFFCURVE",
"574 446 OFFCURVE",
"574 524 CURVE SMOOTH",
"574 626.667 OFFCURVE",
"494.667 700 OFFCURVE",
"384 700 CURVE SMOOTH",
"108 700 LINE",
"108 0 LINE"
);
},
{
closed = 1;
nodes = (
"158 339 LINE",
"383 339 LINE SMOOTH",
"483 339 OFFCURVE",
"556 280.667 OFFCURVE",
"556 198 CURVE SMOOTH",
"556 111.333 OFFCURVE",
"485.333 50 OFFCURVE",
"388 50 CURVE SMOOTH",
"158 50 LINE"
);
},
{
closed = 1;
nodes = (
"158 650 LINE",
"376 650 LINE SMOOTH",
"466.667 650 OFFCURVE",
"521 595 OFFCURVE",
"521 519 CURVE SMOOTH",
"521 445.667 OFFCURVE",
"461 389 OFFCURVE",
"378 389 CURVE SMOOTH",
"158 389 LINE"
);
}
);
userData = {
com.schriftgestaltung.Glyphs.glyph.leftMetricsKey = H;
com.schriftgestaltung.Glyphs.glyph.rightMetricsKey = O;
};
width = 661;
}
);
leftKerningGroup = H;
leftMetricsKey = H;
rightKerningGroup = B;
rightMetricsKey = O;
unicode = 0042;
},
{
color = 6;
glyphname = C;
layers = (
{
anchors = (
{
name = bottom;
position = "{376, 0}";
},
{
name = top;
position = "{390, 700}";
}
);
layerId = "5A878C7E-547A-4951-B48F-676DBBC9B762";
paths = (
{
closed = 1;
nodes = (
"480.667 -10 OFFCURVE",
"583.333 31.333 OFFCURVE",
"630 86 CURVE",
"576 174 LINE",
"530.667 127.333 OFFCURVE",
"466.667 99 OFFCURVE",
"400 99 CURVE SMOOTH",
"256 99 OFFCURVE",
"158 196.667 OFFCURVE",
"158 350 CURVE SMOOTH",
"158 494 OFFCURVE",
"260.333 598 OFFCURVE",
"391 598 CURVE SMOOTH",
"453.667 598 OFFCURVE",
"513.667 568.667 OFFCURVE",
"571 510 CURVE",
"643 585 LINE",
"593.667 655.667 OFFCURVE",
"492.333 706 OFFCURVE",
"391 706 CURVE SMOOTH",
"200.333 706 OFFCURVE",
"48 550 OFFCURVE",
"48 350 CURVE SMOOTH",
"48 138 OFFCURVE",
"187.333 -10 OFFCURVE",
"382 -10 CURVE SMOOTH"
);
}
);
width = 679;
},
{
anchors = (
{
name = bottom;
position = "{413, 0}";
},
{
name = top;
position = "{426, 700}";
}
);
layerId = "554F9022-F5DF-470A-8852-5D1AD00D5051";
paths = (
{
closed = 1;
nodes = (
"529.333 -10 OFFCURVE",
"641 31 OFFCURVE",
"693 87 CURVE",
"590 249 LINE",
"558 213 OFFCURVE",
"506 184 OFFCURVE",
"446 184 CURVE SMOOTH",
"334 184 OFFCURVE",
"262 250.667 OFFCURVE",
"262 352 CURVE SMOOTH",
"262 462.667 OFFCURVE",
"336 525 OFFCURVE",
"428 525 CURVE SMOOTH",
"493.333 525 OFFCURVE",
"537 497.667 OFFCURVE",
"565 463 CURVE",
"694 614 LINE",
"624.667 686 OFFCURVE",
"527.333 720 OFFCURVE",
"430 720 CURVE SMOOTH",
"200.667 720 OFFCURVE",
"40 568.333 OFFCURVE",
"40 355 CURVE SMOOTH",
"40 141.667 OFFCURVE",
"198.667 -10 OFFCURVE",
"424 -10 CURVE SMOOTH"
);
}
);
width = 705;
},
{
anchors = (
{
name = bottom;
position = "{387, 0}";
},
{
name = top;
position = "{399, 700}";
}
);
layerId = "CCD999A9-9CE8-4787-8FD2-D5D19514269E";
paths = (
{
closed = 1;
nodes = (
"495 -10 OFFCURVE",
"579 23.667 OFFCURVE",
"639 81 CURVE",
"624 99 LINE",
"568 44.333 OFFCURVE",
"489.667 12 OFFCURVE",
"399 12 CURVE SMOOTH",
"213.667 12 OFFCURVE",
"78 151.333 OFFCURVE",
"78 346 CURVE SMOOTH",
"78 543.333 OFFCURVE",
"213.667 688 OFFCURVE",
"399 688 CURVE SMOOTH",
"496.333 688 OFFCURVE",
"578.333 644.667 OFFCURVE",
"637 578 CURVE",
"655 594 LINE",
"592.333 664.667 OFFCURVE",
"504.333 710 OFFCURVE",
"399 710 CURVE SMOOTH",
"197.667 710 OFFCURVE",
"55 558 OFFCURVE",
"55 346 CURVE SMOOTH",
"55 136.667 OFFCURVE",
"197.667 -10 OFFCURVE",
"399 -10 CURVE SMOOTH"
);
}
);
userData = {
com.schriftgestaltung.Glyphs.glyph.leftMetricsKey = O;
};
width = 690;
},
{
anchors = (
{
name = bottom;
position = "{526, 0}";
},
{
name = top;
position = "{532, 700}";
}
);
layerId = "649E0662-786D-44F6-8E8D-A6782F19FFAA";
paths = (
{
closed = 1;
nodes = (
"671 -10 OFFCURVE",
"793 57 OFFCURVE",
"850 104 CURVE",
"798 194 LINE",
"738 150 OFFCURVE",
"659 95 OFFCURVE",
"540 95 CURVE SMOOTH",
"385 95 OFFCURVE",
"238 183 OFFCURVE",
"238 350 CURVE SMOOTH",
"238 503 OFFCURVE",
"381 600 OFFCURVE",
"522 600 CURVE SMOOTH",
"633 600 OFFCURVE",
"719 557 OFFCURVE",
"791 498 CURVE",
"855 589 LINE",
"794 646 OFFCURVE",
"667 706 OFFCURVE",
"532 706 CURVE SMOOTH",
"316 706 OFFCURVE",
"128 555 OFFCURVE",
"128 350 CURVE SMOOTH",
"128 133 OFFCURVE",
"307 -10 OFFCURVE",
"532 -10 CURVE SMOOTH"
);
}
);
width = 981;
},
{
anchors = (
{
name = bottom;
position = "{551, 0}";
},
{
name = top;
position = "{559, 700}";
}
);
layerId = "9FF8E21A-ED06-4F66-AEDE-2CE647DC4B08";
paths = (
{
closed = 1;
nodes = (
"682 -10 OFFCURVE",
"787 32 OFFCURVE",
"860 97 CURVE",
"849 116 LINE",
"777 52 OFFCURVE",
"678 12 OFFCURVE",
"559 12 CURVE SMOOTH",
"324 12 OFFCURVE",
"158 156 OFFCURVE",
"158 349 CURVE SMOOTH",
"158 542 OFFCURVE",
"324 688 OFFCURVE",
"559 688 CURVE SMOOTH",
"683 688 OFFCURVE",
"789 643 OFFCURVE",
"858 574 CURVE",
"866 596 LINE",
"793 665 OFFCURVE",
"686 710 OFFCURVE",
"559 710 CURVE SMOOTH",
"308 710 OFFCURVE",
"135 554 OFFCURVE",
"135 349 CURVE SMOOTH",
"135 144 OFFCURVE",
"308 -10 OFFCURVE",
"559 -10 CURVE SMOOTH"
);
}
);
userData = {
com.schriftgestaltung.Glyphs.glyph.leftMetricsKey = O;
};
width = 992;
},
{
anchors = (
{
name = bottom;
position = "{573, 0}";
},
{
name = top;
position = "{567, 700}";
}
);
layerId = "ED109265-B005-47B0-97BD-F1815082B32B";
paths = (
{
closed = 1;
nodes = (
"719 -10 OFFCURVE",
"850 57 OFFCURVE",
"913 105 CURVE",
"812 269 LINE",
"765 236 OFFCURVE",
"698 180 OFFCURVE",
"586 180 CURVE SMOOTH",
"463 180 OFFCURVE",
"342 237 OFFCURVE",
"342 352 CURVE SMOOTH",
"342 472 OFFCURVE",
"456 527 OFFCURVE",
"559 527 CURVE SMOOTH",
"672 527 OFFCURVE",
"742 486 OFFCURVE",
"785 451 CURVE",
"906 618 LINE",
"825 677 OFFCURVE",
"702 720 OFFCURVE",
"571 720 CURVE SMOOTH",
"316 720 OFFCURVE",
"120 574 OFFCURVE",
"120 355 CURVE SMOOTH",
"120 136 OFFCURVE",
"318 -10 OFFCURVE",
"574 -10 CURVE SMOOTH"
);
}
);
width = 1007;
},
{
anchors = (
{
name = bottom;
position = "{382, 0}";
},
{
name = top;
position = "{392, 700}";
}
);
layerId = "2B3ECD2C-4B3A-40C3-8F2B-A5E41B85E4DD";
paths = (
{
closed = 1;
nodes = (
"488.333 -10 OFFCURVE",
"584 30 OFFCURVE",
"632 86 CURVE",
"605 130 LINE",
"567.667 78 OFFCURVE",
"483 40 OFFCURVE",
"403 40 CURVE SMOOTH",
"228.333 40 OFFCURVE",
"103 170 OFFCURVE",
"103 350 CURVE SMOOTH",
"103 527.333 OFFCURVE",
"223.667 655 OFFCURVE",
"393 655 CURVE SMOOTH",
"474.333 655 OFFCURVE",
"564 610 OFFCURVE",
"608 546 CURVE",
"645 585 LINE",
"591.667 654.333 OFFCURVE",
"486.333 705 OFFCURVE",
"393 705 CURVE SMOOTH",
"193 705 OFFCURVE",
"50 556.667 OFFCURVE",
"50 350 CURVE SMOOTH",
"50 140.667 OFFCURVE",
"197.667 -10 OFFCURVE",
"403 -10 CURVE SMOOTH"
);
}
);
userData = {
com.schriftgestaltung.Glyphs.glyph.leftMetricsKey = O;
};
width = 674;
}
);
leftKerningGroup = C;
leftMetricsKey = O;
rightKerningGroup = C;
unicode = 0043;
},
{
color = 6;
glyphname = D;
layers = (
{
anchors = (
{
name = bottom;
position = "{374, 0}";
},
{
name = center;
position = "{188, 350}";
},
{
name = top;
position = "{374, 700}";
}
);
layerId = "5A878C7E-547A-4951-B48F-676DBBC9B762";
paths = (
{
closed = 1;
nodes = (
"372 0 LINE SMOOTH",
"573.333 0 OFFCURVE",
"700 140.667 OFFCURVE",
"700 350 CURVE SMOOTH",
"700 558 OFFCURVE",
"572 700 OFFCURVE",
"372 700 CURVE SMOOTH",
"98 700 LINE",
"98 0 LINE"
);
},
{
closed = 1;
nodes = (
"206 605 LINE",
"200 596 LINE",
"367 596 LINE SMOOTH",
"507 596 OFFCURVE",
"590 502 OFFCURVE",
"590 350 CURVE SMOOTH",
"590 196.667 OFFCURVE",
"508.333 104 OFFCURVE",
"367 104 CURVE SMOOTH",
"203 104 LINE",
"206 93 LINE"
);
}
);
width = 748;
},
{
anchors = (
{
name = bottom;
position = "{395, 0}";
},
{
name = center;
position = "{209, 350}";
},
{
name = top;
position = "{395, 700}";
}
);
layerId = "554F9022-F5DF-470A-8852-5D1AD00D5051";
paths = (
{
closed = 1;
nodes = (
"388 0 LINE SMOOTH",
"598.667 0 OFFCURVE",
"750 146 OFFCURVE",
"750 350 CURVE SMOOTH",
"750 554 OFFCURVE",
"598.667 700 OFFCURVE",
"388 700 CURVE SMOOTH",
"80 700 LINE",
"80 0 LINE"
);
},
{
closed = 1;
nodes = (
"296 565 LINE",
"256 516 LINE",
"383 516 LINE SMOOTH",
"469.667 516 OFFCURVE",
"532 446 OFFCURVE",
"532 350 CURVE SMOOTH",
"532 254 OFFCURVE",
"469.667 184 OFFCURVE",
"383 184 CURVE SMOOTH",
"259 184 LINE",
"296 133 LINE"
);
}
);
width = 790;
},
{
anchors = (
{
name = bottom;
position = "{369, 0}";
},
{
name = center;
position = "{158, 350}";
},
{
name = top;
position = "{369, 700}";
}
);
layerId = "CCD999A9-9CE8-4787-8FD2-D5D19514269E";
paths = (
{
closed = 1;
nodes = (
"357 0 LINE SMOOTH",
"527.667 0 OFFCURVE",
"682 148.667 OFFCURVE",
"682 350 CURVE SMOOTH",
"682 552.667 OFFCURVE",
"527.667 700 OFFCURVE",
"357 700 CURVE SMOOTH",
"110 700 LINE",
"110 0 LINE"
);
},
{
closed = 1;
nodes = (
"132 689 LINE",
"121 678 LINE",
"352 678 LINE SMOOTH",
"513.333 678 OFFCURVE",
"659 536.667 OFFCURVE",
"659 350 CURVE SMOOTH",
"659 164.667 OFFCURVE",
"513.333 22 OFFCURVE",
"352 22 CURVE SMOOTH",
"122 22 LINE",
"132 13 LINE"
);
}
);
userData = {
com.schriftgestaltung.Glyphs.glyph.leftMetricsKey = H;
com.schriftgestaltung.Glyphs.glyph.rightMetricsKey = O;
};
width = 737;
},
{
anchors = (
{
name = bottom;
position = "{531, 0}";
},
{
name = center;
position = "{303, 350}";
},
{
name = top;
position = "{531, 700}";
}
);
layerId = "649E0662-786D-44F6-8E8D-A6782F19FFAA";
paths = (
{
closed = 1;
nodes = (
"536 0 LINE SMOOTH",
"793 0 OFFCURVE",
"929 158 OFFCURVE",
"929 350 CURVE SMOOTH",
"929 539 OFFCURVE",
"793 700 OFFCURVE",
"536 700 CURVE SMOOTH",
"182 700 LINE",
"182 0 LINE"
);
},
{
closed = 1;
nodes = (
"290 605 LINE",
"284 596 LINE",
"531 596 LINE SMOOTH",
"730 596 OFFCURVE",
"814 482 OFFCURVE",
"814 350 CURVE SMOOTH",
"814 215 OFFCURVE",
"730 104 OFFCURVE",
"531 104 CURVE SMOOTH",
"287 104 LINE",
"290 93 LINE"
);
}
);
width = 1057;
},
{
anchors = (
{
name = bottom;
position = "{525, 0}";
},
{
name = center;
position = "{300, 350}";
},
{
name = top;
position = "{525, 700}";
}
);
layerId = "9FF8E21A-ED06-4F66-AEDE-2CE647DC4B08";
paths = (
{
closed = 1;
nodes = (
"521 0 LINE SMOOTH",
"748 0 OFFCURVE",
"911 146 OFFCURVE",
"911 350 CURVE SMOOTH",
"911 554 OFFCURVE",
"748 700 OFFCURVE",
"521 700 CURVE SMOOTH",
"194 700 LINE",
"194 0 LINE"
);
},
{
closed = 1;
nodes = (
"216 689 LINE",
"205 678 LINE",
"516 678 LINE SMOOTH",
"732 678 OFFCURVE",
"888 541 OFFCURVE",
"888 350 CURVE SMOOTH",
"888 159 OFFCURVE",
"732 22 OFFCURVE",
"516 22 CURVE SMOOTH",
"206 22 LINE",
"216 13 LINE"
);
}
);
userData = {
com.schriftgestaltung.Glyphs.glyph.leftMetricsKey = H;
com.schriftgestaltung.Glyphs.glyph.rightMetricsKey = O;
};
width = 1046;
},
{
anchors = (
{
name = bottom;
position = "{552, 0}";
},
{
name = center;
position = "{324, 350}";
},
{
name = top;
position = "{552, 700}";
}
);
layerId = "ED109265-B005-47B0-97BD-F1815082B32B";
paths = (
{
closed = 1;
nodes = (
"552 0 LINE SMOOTH",
"819 0 OFFCURVE",
"979 163 OFFCURVE",
"979 350 CURVE SMOOTH",
"979 535 OFFCURVE",
"820 700 OFFCURVE",
"552 700 CURVE SMOOTH",
"164 700 LINE",
"164 0 LINE"
);
},
{
closed = 1;
nodes = (
"380 565 LINE",
"340 516 LINE",
"547 516 LINE SMOOTH",
"692 516 OFFCURVE",
"756 426 OFFCURVE",
"756 350 CURVE SMOOTH",
"756 273 OFFCURVE",
"691 184 OFFCURVE",
"547 184 CURVE SMOOTH",
"343 184 LINE",
"380 133 LINE"
);
}
);
width = 1099;
},
{
anchors = (
{
name = bottom;
position = "{370, 0}";
},
{
name = center;
position = "{176, 350}";
},
{
name = top;
position = "{370, 700}";
}
);
layerId = "2B3ECD2C-4B3A-40C3-8F2B-A5E41B85E4DD";
paths = (
{
closed = 1;
nodes = (
"363 0 LINE SMOOTH",
"543 0 OFFCURVE",
"689 146 OFFCURVE",
"689 350 CURVE SMOOTH",
"689 554 OFFCURVE",
"543 700 OFFCURVE",
"363 700 CURVE SMOOTH",
"108 700 LINE",
"108 0 LINE"
);
},
{
closed = 1;
nodes = (
"158 665 LINE",
"141 650 LINE",
"358 650 LINE SMOOTH",
"510 650 OFFCURVE",
"636 524.667 OFFCURVE",
"636 350 CURVE SMOOTH",
"636 175.333 OFFCURVE",
"510 50 OFFCURVE",
"358 50 CURVE SMOOTH",
"144 50 LINE",
"158 33 LINE"
);
}
);
userData = {
com.schriftgestaltung.Glyphs.glyph.leftMetricsKey = H;
com.schriftgestaltung.Glyphs.glyph.rightMetricsKey = O;
};
width = 739;
}
);
leftKerningGroup = H;
leftMetricsKey = H;
rightKerningGroup = D;
rightMetricsKey = O;
unicode = 0044;
},
{
color = 3;
glyphname = Eth;
layers = (
{
components = (
{
name = D;
}
);
layerId = "CCD999A9-9CE8-4787-8FD2-D5D19514269E";
paths = (
{
closed = 1;
nodes = (
"292 339 LINE",
"292 360 LINE",
"24 360 LINE",
"24 339 LINE"
);
}
);
width = 737;
},
{
components = (
{
name = D;
}
);
layerId = "5A878C7E-547A-4951-B48F-676DBBC9B762";
paths = (
{
closed = 1;
nodes = (
"317 305 LINE",
"317 395 LINE",
"49 395 LINE",
"49 305 LINE"
);
}
);
width = 748;
},
{
components = (
{
name = D;
}
);
layerId = "554F9022-F5DF-470A-8852-5D1AD00D5051";
paths = (
{
closed = 1;
nodes = (
"393 280 LINE",
"393 420 LINE",
"25 420 LINE",
"25 280 LINE"
);
}
);
width = 790;
},
{
components = (
{
name = D;
}
);
layerId = "649E0662-786D-44F6-8E8D-A6782F19FFAA";
paths = (
{
closed = 1;
nodes = (
"507 307 LINE",
"507 393 LINE",
"99 393 LINE",
"99 307 LINE"
);
}
);
width = 1057;
},
{
components = (
{
name = D;
}
);
layerId = "9FF8E21A-ED06-4F66-AEDE-2CE647DC4B08";
paths = (
{
closed = 1;
nodes = (
"504 341 LINE",
"504 358 LINE",
"96 358 LINE",
"96 341 LINE"
);
}
);
width = 1046;
},
{
components = (
{
name = D;
}
);
layerId = "ED109265-B005-47B0-97BD-F1815082B32B";
paths = (
{
closed = 1;
nodes = (
"583 282 LINE",
"583 418 LINE",
"75 418 LINE",
"75 282 LINE"
);
}
);
userData = {
com.schriftgestaltung.Glyphs.glyph.rightMetricsKey = D;
};
width = 1099;
},
{
anchors = (
{
name = bottom;
position = "{552, 0}";
},
{
name = center;
position = "{324, 350}";
},
{
name = top;
position = "{552, 700}";
}
);
associatedMasterId = "ED109265-B005-47B0-97BD-F1815082B32B";
components = (
{
name = D;
}
);
layerId = "3E59D328-E2FE-4C7E-8A09-4A8E4E6C4660";
name = foreground;
paths = (
{
closed = 1;
nodes = (
"583 282 LINE",
"583 418 LINE",
"75 418 LINE",
"75 282 LINE"
);
}
);
userData = {
com.schriftgestaltung.Glyphs.glyph.rightMetricsKey = D;
};
width = 1099;
},
{
components = (
{
name = D;
}
);
layerId = "2B3ECD2C-4B3A-40C3-8F2B-A5E41B85E4DD";
paths = (
{
closed = 1;
nodes = (
"310 327 LINE",
"310 372 LINE",
"42 372 LINE",
"42 327 LINE"
);
}
);
width = 739;
}
);
leftKerningGroup = H;
rightKerningGroup = D;
unicode = 00D0;
},
{
color = 6;
glyphname = E;
layers = (
{
anchors = (
{
name = bottom;
position = "{307, 0}";
},
{
name = ogonek;
position = "{509, 0}";
},
{
name = top;
position = "{327, 700}";
},
{
name = topleft;
position = "{20, 700}";
}
);
layerId = "5A878C7E-547A-4951-B48F-676DBBC9B762";
paths = (
{
closed = 1;
nodes = (
"539 0 LINE",
"539 104 LINE",
"206 104 LINE",
"206 596 LINE",
"539 596 LINE",
"539 700 LINE",
"98 700 LINE",
"98 0 LINE"
);
},
{
closed = 1;
nodes = (
"484 307 LINE",
"484 411 LINE",
"147 411 LINE",
"147 307 LINE"
);
}
);
width = 614;
},
{
anchors = (
{
name = bottom;
position = "{334, 0}";
},
{
name = ogonek;
position = "{571, 0}";
},
{
name = top;
position = "{354, 700}";
},
{
name = topleft;
position = "{20, 700}";
}
);
layerId = "554F9022-F5DF-470A-8852-5D1AD00D5051";
paths = (
{
closed = 1;
nodes = (
"621 0 LINE",
"621 175 LINE",
"287 175 LINE",
"287 525 LINE",
"603 525 LINE",
"603 700 LINE",
"80 700 LINE",
"80 0 LINE"
);
},
{
closed = 1;
nodes = (
"566 272 LINE",
"566 436 LINE",
"183 436 LINE",
"183 272 LINE"
);
}
);
width = 668;
},
{
anchors = (
{
name = bottom;
position = "{283, 0}";
},
{
name = ogonek;
position = "{475, 0}";
},
{
name = top;
position = "{313, 700}";
},
{
name = topleft;
position = "{20, 700}";
}
);
layerId = "CCD999A9-9CE8-4787-8FD2-D5D19514269E";
paths = (
{
closed = 1;
nodes = (
"495 0 LINE",
"495 22 LINE",
"132 22 LINE",
"132 678 LINE",
"501 678 LINE",
"501 700 LINE",
"110 700 LINE",
"110 0 LINE"
);
},
{
closed = 1;
nodes = (
"443 351 LINE",
"443 373 LINE",
"123 373 LINE",
"123 351 LINE"
);
}
);
userData = {
com.schriftgestaltung.Glyphs.glyph.leftMetricsKey = H;
};
width = 566;
},
{
anchors = (
{
name = bottom;
position = "{461, 0}";
},
{
name = ogonek;
position = "{723, 0}";
},
{
name = top;
position = "{481, 700}";
},
{
name = topleft;
position = "{104, 700}";
}
);
layerId = "649E0662-786D-44F6-8E8D-A6782F19FFAA";
paths = (
{
closed = 1;
nodes = (
"763 0 LINE",
"763 104 LINE",
"290 104 LINE",
"290 596 LINE",
"763 596 LINE",
"763 700 LINE",
"182 700 LINE",
"182 0 LINE"
);
},
{
closed = 1;
nodes = (
"708 307 LINE",
"708 411 LINE",
"241 411 LINE",
"241 307 LINE"
);
}
);
width = 923;
},
{
anchors = (
{
name = bottom;
position = "{437, 0}";
},
{
name = ogonek;
position = "{698, 0}";
},
{
name = top;
position = "{467, 700}";
},
{
name = topleft;
position = "{104, 700}";
}
);
layerId = "9FF8E21A-ED06-4F66-AEDE-2CE647DC4B08";
paths = (
{
closed = 1;
nodes = (
"719 0 LINE",
"719 22 LINE",
"216 22 LINE",
"216 678 LINE",
"725 678 LINE",
"725 700 LINE",
"194 700 LINE",
"194 0 LINE"
);
},
{
closed = 1;
nodes = (
"667 351 LINE",
"667 373 LINE",
"206 373 LINE",
"206 351 LINE"
);
}
);
userData = {
com.schriftgestaltung.Glyphs.glyph.leftMetricsKey = H;
};
width = 875;
},
{
anchors = (
{
name = bottom;
position = "{488, 0}";
},
{
name = ogonek;
position = "{785, 0}";
},
{
name = top;
position = "{518, 700}";
},
{
name = topleft;
position = "{104, 700}";
}
);
layerId = "ED109265-B005-47B0-97BD-F1815082B32B";
paths = (
{
closed = 1;
nodes = (
"845 0 LINE",
"845 175 LINE",
"371 175 LINE",
"371 525 LINE",
"827 525 LINE",
"827 700 LINE",
"164 700 LINE",
"164 0 LINE"
);
},
{
closed = 1;
nodes = (
"790 272 LINE",
"790 436 LINE",
"277 436 LINE",
"277 272 LINE"
);
}
);
width = 977;
},
{
anchors = (
{
name = bottom;
position = "{293, 0}";
},
{
name = ogonek;
position = "{471, 0}";
},
{
name = top;
position = "{323, 700}";
},
{
name = topleft;
position = "{20, 700}";
}
);
layerId = "2B3ECD2C-4B3A-40C3-8F2B-A5E41B85E4DD";
paths = (
{
closed = 1;
nodes = (
"511 0 LINE",
"511 50 LINE",
"158 50 LINE",
"158 650 LINE",
"515 650 LINE",
"515 700 LINE",
"108 700 LINE",
"108 0 LINE"
);
},
{
closed = 1;
nodes = (
"458 336 LINE",
"458 386 LINE",
"132 386 LINE",
"132 336 LINE"
);
}
);
userData = {
com.schriftgestaltung.Glyphs.glyph.leftMetricsKey = H;
};
width = 585;
}
);
leftKerningGroup = H;
leftMetricsKey = H;
rightKerningGroup = E;
unicode = 0045;
},
{
color = 6;
glyphname = F;
layers = (
{
anchors = (
{
name = bottom;
position = "{301, 0}";
},
{
name = top;
position = "{301, 700}";
}
);
layerId = "5A878C7E-547A-4951-B48F-676DBBC9B762";
paths = (
{
closed = 1;
nodes = (
"206 0 LINE",
"206 700 LINE",
"98 700 LINE",
"98 0 LINE"
);
},
{
closed = 1;
nodes = (
"507 298 LINE",
"507 402 LINE",
"146 402 LINE",
"146 298 LINE"
);
},
{
closed = 1;
nodes = (
"552 596 LINE",
"552 700 LINE",
"146 700 LINE",
"146 596 LINE"
);
}
);
width = 602;
},
{
anchors = (
{
name = bottom;
position = "{315, 0}";
},
{
name = top;
position = "{315, 700}";
}
);
layerId = "554F9022-F5DF-470A-8852-5D1AD00D5051";
paths = (
{
closed = 1;
nodes = (
"296 0 LINE",
"296 700 LINE",
"80 700 LINE",
"80 0 LINE"
);
},
{
closed = 1;
nodes = (
"546 246 LINE",
"546 416 LINE",
"183 416 LINE",
"183 246 LINE"
);
},
{
closed = 1;
nodes = (
"583 516 LINE",
"583 700 LINE",
"183 700 LINE",
"183 516 LINE"
);
}
);
width = 630;
},
{
anchors = (
{
name = bottom;
position = "{288, 0}";
},
{
name = top;
position = "{288, 700}";
}
);
layerId = "CCD999A9-9CE8-4787-8FD2-D5D19514269E";
paths = (
{
closed = 1;
nodes = (
"132 0 LINE",
"132 700 LINE",
"110 700 LINE",
"110 0 LINE"
);
},
{
closed = 1;
nodes = (
"444 341 LINE",
"444 363 LINE",
"122 363 LINE",
"122 341 LINE"
);
},
{
closed = 1;
nodes = (
"501 678 LINE",
"501 700 LINE",
"123 700 LINE",
"123 678 LINE"
);
}
);
userData = {
com.schriftgestaltung.Glyphs.glyph.leftMetricsKey = H;
};
width = 575;
},
{
anchors = (
{
name = bottom;
position = "{445, 0}";
},
{
name = top;
position = "{445, 700}";
}
);
layerId = "649E0662-786D-44F6-8E8D-A6782F19FFAA";
paths = (
{
closed = 1;
nodes = (
"290 0 LINE",
"290 700 LINE",
"182 700 LINE",
"182 0 LINE"
);
},
{
closed = 1;
nodes = (
"711 288 LINE",
"711 392 LINE",
"218 392 LINE",
"218 288 LINE"
);
},
{
closed = 1;
nodes = (
"756 596 LINE",
"756 700 LINE",
"232 700 LINE",
"232 596 LINE"
);
}
);
width = 896;
},
{
anchors = (
{
name = bottom;
position = "{432, 0}";
},
{
name = top;
position = "{432, 700}";
}
);
layerId = "9FF8E21A-ED06-4F66-AEDE-2CE647DC4B08";
paths = (
{
closed = 1;
nodes = (
"216 0 LINE",
"216 700 LINE",
"194 700 LINE",
"194 0 LINE"
);
},
{
closed = 1;
nodes = (
"648 331 LINE",
"648 353 LINE",
"204 353 LINE",
"204 331 LINE"
);
},
{
closed = 1;
nodes = (
"705 678 LINE",
"705 700 LINE",
"209 700 LINE",
"209 678 LINE"
);
}
);
userData = {
com.schriftgestaltung.Glyphs.glyph.leftMetricsKey = H;
};
width = 869;
},
{
anchors = (
{
name = bottom;
position = "{459, 0}";
},
{
name = top;
position = "{459, 700}";
}
);
layerId = "ED109265-B005-47B0-97BD-F1815082B32B";
paths = (
{
closed = 1;
nodes = (
"380 0 LINE",
"380 700 LINE",
"164 700 LINE",
"164 0 LINE"
);
},
{
closed = 1;
nodes = (
"750 236 LINE",
"750 406 LINE",
"255 406 LINE",
"255 236 LINE"
);
},
{
closed = 1;
nodes = (
"787 516 LINE",
"787 700 LINE",
"269 700 LINE",
"269 516 LINE"
);
}
);
width = 924;
},
{
anchors = (
{
name = bottom;
position = "{293, 0}";
},
{
name = top;
position = "{293, 700}";
}
);
layerId = "2B3ECD2C-4B3A-40C3-8F2B-A5E41B85E4DD";
paths = (
{
closed = 1;
nodes = (
"158 0 LINE",
"158 700 LINE",
"108 700 LINE",
"108 0 LINE"
);
},
{
closed = 1;
nodes = (
"486 326 LINE",
"486 376 LINE",
"139 376 LINE",
"139 326 LINE"
);
},
{
closed = 1;
nodes = (
"535 650 LINE",
"535 700 LINE",
"138 700 LINE",
"138 650 LINE"
);
}
);
userData = {
com.schriftgestaltung.Glyphs.glyph.leftMetricsKey = H;
};
width = 585;
}
);
leftKerningGroup = H;
leftMetricsKey = H;
rightKerningGroup = F;
unicode = 0046;
},
{
color = 6;
glyphname = G;
layers = (
{
anchors = (
{
name = bottom;
position = "{383, 0}";
},
{
name = top;
position = "{403, 700}";
}
);
layerId = "5A878C7E-547A-4951-B48F-676DBBC9B762";
paths = (
{
closed = 1;
nodes = (
"585.869 -10 OFFCURVE",
"723 115.261 OFFCURVE",
"723 299 CURVE SMOOTH",
"723 317.667 OFFCURVE",
"722 336.333 OFFCURVE",
"718 359 CURVE",
"408 359 LINE",
"408 252 LINE",
"622 252 LINE",
"607 266 LINE",
"607 246 LINE SMOOTH",
"607 162 OFFCURVE",
"519.333 95 OFFCURVE",
"414 95 CURVE SMOOTH",
"274 95 OFFCURVE",
"158 210 OFFCURVE",
"158 350 CURVE SMOOTH",
"158 492.667 OFFCURVE",
"267.333 601 OFFCURVE",
"410 601 CURVE SMOOTH",
"476.667 601 OFFCURVE",
"542 571.333 OFFCURVE",
"602 514 CURVE",
"672 587 LINE",
"620 657.667 OFFCURVE",
"516.667 706 OFFCURVE",
"410 706 CURVE SMOOTH",
"206 706 OFFCURVE",
"48 551.333 OFFCURVE",
"48 350 CURVE SMOOTH",
"48 147.333 OFFCURVE",
"207 -10 OFFCURVE",
"411 -10 CURVE SMOOTH"
);
}
);
width = 766;
},
{
anchors = (
{
name = bottom;
position = "{397, 0}";
},
{
name = top;
position = "{418, 700}";
}
);
layerId = "554F9022-F5DF-470A-8852-5D1AD00D5051";
paths = (
{
closed = 1;
nodes = (
"611.333 -10 OFFCURVE",
"753 119 OFFCURVE",
"753 299 CURVE SMOOTH",
"753 317.667 OFFCURVE",
"750.667 395.333 OFFCURVE",
"748 418 CURVE",
"404 418 LINE",
"404 266 LINE",
"582 266 LINE",
"554 314 LINE",
"554 285 LINE SMOOTH",
"554 221 OFFCURVE",
"504 174 OFFCURVE",
"436 174 CURVE SMOOTH",
"334.667 174 OFFCURVE",
"262 249.667 OFFCURVE",
"262 355 CURVE SMOOTH",
"262 460.333 OFFCURVE",
"332.333 536 OFFCURVE",
"427 536 CURVE SMOOTH",
"497.667 536 OFFCURVE",
"544 508.333 OFFCURVE",
"584 471 CURVE",
"712 607 LINE",
"650.667 671 OFFCURVE",
"551.333 720 OFFCURVE",
"430 720 CURVE SMOOTH",
"195.333 720 OFFCURVE",
"40 567 OFFCURVE",
"40 355 CURVE SMOOTH",
"40 143 OFFCURVE",
"174 -10 OFFCURVE",
"414 -10 CURVE SMOOTH"
);
}
);
width = 793;
},
{
anchors = (
{
name = bottom;
position = "{384, 0}";
},
{
name = top;
position = "{397, 700}";
}
);
layerId = "CCD999A9-9CE8-4787-8FD2-D5D19514269E";
paths = (
{
closed = 1;
nodes = (
"598.667 -10 OFFCURVE",
"722 111 OFFCURVE",
"722 339 CURVE SMOOTH",
"722 343 OFFCURVE",
"722 346.167 OFFCURVE",
"722 358 CURVE",
"409 358 LINE",
"409 336 LINE",
"705 336 LINE",
"699 341 LINE",
"699 322 LINE SMOOTH",
"699 138 OFFCURVE",
"592 12 OFFCURVE",
"400 12 CURVE SMOOTH",
"214.667 12 OFFCURVE",
"78 151.333 OFFCURVE",
"78 346 CURVE SMOOTH",
"78 543.333 OFFCURVE",
"213.667 688 OFFCURVE",
"399 688 CURVE SMOOTH",
"504.333 688 OFFCURVE",
"593.667 640 OFFCURVE",
"651 564 CURVE",
"668 580 LINE",
"604 658.667 OFFCURVE",
"512.333 710 OFFCURVE",
"399 710 CURVE SMOOTH",
"197.667 710 OFFCURVE",
"55 558 OFFCURVE",
"55 346 CURVE SMOOTH",
"55 136.667 OFFCURVE",
"198.667 -10 OFFCURVE",
"400 -10 CURVE SMOOTH"
);
}
);
userData = {
com.schriftgestaltung.Glyphs.glyph.leftMetricsKey = O;
};
width = 767;
},
{
anchors = (
{
name = bottom;
position = "{543, 0}";
},
{
name = top;
position = "{559, 700}";
}
);
layerId = "649E0662-786D-44F6-8E8D-A6782F19FFAA";
paths = (
{
closed = 1;
nodes = (
"791 -10 OFFCURVE",
"962 92 OFFCURVE",
"962 303 CURVE SMOOTH",
"962 310 OFFCURVE",
"962 318 OFFCURVE",
"958 349 CURVE",
"558 349 LINE",
"558 244 LINE",
"857 244 LINE",
"841 266 LINE",
"842 253 LINE SMOOTH",
"849 161 OFFCURVE",
"716 95 OFFCURVE",
"553 95 CURVE SMOOTH",
"394 95 OFFCURVE",
"243 173 OFFCURVE",
"243 350 CURVE SMOOTH",
"243 493 OFFCURVE",
"381 601 OFFCURVE",
"560 601 CURVE SMOOTH",
"660 601 OFFCURVE",
"750 563 OFFCURVE",
"822 508 CURVE",
"892 587 LINE",
"835 648 OFFCURVE",
"711 706 OFFCURVE",
"560 706 CURVE SMOOTH",
"319 706 OFFCURVE",
"128 551 OFFCURVE",
"128 350 CURVE SMOOTH",
"128 113 OFFCURVE",
"323 -10 OFFCURVE",
"544 -10 CURVE SMOOTH"
);
}
);
width = 1082;
},
{
anchors = (
{
name = bottom;
position = "{543, 0}";
},
{
name = top;
position = "{558, 700}";
}
);
layerId = "9FF8E21A-ED06-4F66-AEDE-2CE647DC4B08";
paths = (
{
closed = 1;
nodes = (
"794 -10 OFFCURVE",
"961 149 OFFCURVE",
"961 337 CURVE SMOOTH",
"961 339 OFFCURVE",
"961 341 OFFCURVE",
"961 348 CURVE",
"559 348 LINE",
"559 326 LINE",
"950 326 LINE",
"939 337 LINE",
"939 329 LINE SMOOTH",
"939 165 OFFCURVE",
"778 12 OFFCURVE",
"559 12 CURVE SMOOTH",
"324 12 OFFCURVE",
"158 156 OFFCURVE",
"158 349 CURVE SMOOTH",
"158 542 OFFCURVE",
"324 688 OFFCURVE",
"559 688 CURVE SMOOTH",
"683 688 OFFCURVE",
"789 643 OFFCURVE",
"858 574 CURVE",
"866 596 LINE",
"793 665 OFFCURVE",
"686 710 OFFCURVE",
"559 710 CURVE SMOOTH",
"308 710 OFFCURVE",
"135 554 OFFCURVE",
"135 349 CURVE SMOOTH",
"135 144 OFFCURVE",
"308 -10 OFFCURVE",
"559 -10 CURVE SMOOTH"
);
}
);
userData = {
com.schriftgestaltung.Glyphs.glyph.leftMetricsKey = O;
};
width = 1083;
},
{
anchors = (
{
name = bottom;
position = "{557, 0}";
},
{
name = top;
position = "{576, 700}";
}
);
layerId = "ED109265-B005-47B0-97BD-F1815082B32B";
paths = (
{
closed = 1;
nodes = (
"816 -10 OFFCURVE",
"992 96 OFFCURVE",
"992 303 CURVE SMOOTH",
"992 310 OFFCURVE",
"990 377 OFFCURVE",
"988 408 CURVE",
"554 408 LINE",
"554 258 LINE",
"817 258 LINE",
"788 314 LINE",
"788 292 LINE SMOOTH",
"788 220 OFFCURVE",
"700 174 OFFCURVE",
"575 174 CURVE SMOOTH",
"455 174 OFFCURVE",
"347 212 OFFCURVE",
"347 355 CURVE SMOOTH",
"347 460 OFFCURVE",
"446 536 OFFCURVE",
"577 536 CURVE SMOOTH",
"681 536 OFFCURVE",
"752 500 OFFCURVE",
"804 465 CURVE",
"932 607 LINE",
"865 662 OFFCURVE",
"745 720 OFFCURVE",
"580 720 CURVE SMOOTH",
"308 720 OFFCURVE",
"120 567 OFFCURVE",
"120 355 CURVE SMOOTH",
"120 108 OFFCURVE",
"290 -10 OFFCURVE",
"547 -10 CURVE SMOOTH"
);
}
);
width = 1109;
},
{
anchors = (
{
name = bottom;
position = "{381, 0}";
},
{
name = top;
position = "{404, 700}";
}
);
layerId = "2B3ECD2C-4B3A-40C3-8F2B-A5E41B85E4DD";
paths = (
{
closed = 1;
nodes = (
"588.333 -10 OFFCURVE",
"724 109 OFFCURVE",
"724 273 CURVE SMOOTH",
"724 291.667 OFFCURVE",
"722.333 321.333 OFFCURVE",
"721 332 CURVE",
"416 332 LINE",
"416 282 LINE",
"692 282 LINE",
"674 308 LINE",
"674 260 LINE SMOOTH",
"674 134.667 OFFCURVE",
"566.333 40 OFFCURVE",
"417 40 CURVE SMOOTH",
"238.333 40 OFFCURVE",
"103 168.333 OFFCURVE",
"103 347 CURVE SMOOTH",
"103 525.667 OFFCURVE",
"235 655 OFFCURVE",
"407 655 CURVE SMOOTH",
"489.667 655 OFFCURVE",
"587 612 OFFCURVE",
"639 552 CURVE",
"673 587 LINE",
"622.333 655 OFFCURVE",
"510.333 705 OFFCURVE",
"405 705 CURVE SMOOTH",
"203.667 705 OFFCURVE",
"50 555 OFFCURVE",
"50 347 CURVE SMOOTH",
"50 139 OFFCURVE",
"207 -10 OFFCURVE",
"415 -10 CURVE SMOOTH"
);
}
);
userData = {
com.schriftgestaltung.Glyphs.glyph.leftMetricsKey = O;
};
width = 762;
}
);
leftKerningGroup = C;
leftMetricsKey = O;
rightKerningGroup = G;
unicode = 0047;
},
{
color = 6;
glyphname = H;
layers = (
{
anchors = (
{
name = bottom;
position = "{381, 0}";
},
{
name = center;
position = "{381, 350}";
},
{
name = top;
position = "{381, 700}";
},
{
name = topleft;
position = "{20, 700}";
}
);
layerId = "5A878C7E-547A-4951-B48F-676DBBC9B762";
paths = (
{
closed = 1;
nodes = (
"663 0 LINE",
"663 700 LINE",
"555 700 LINE",
"555 0 LINE"
);
},
{
closed = 1;
nodes = (
"206 0 LINE",
"206 700 LINE",
"98 700 LINE",
"98 0 LINE"
);
},
{
closed = 1;
nodes = (
"603 297 LINE",
"603 401 LINE",
"145 401 LINE",
"145 297 LINE"
);
}
);
width = 761;
},
{
anchors = (
{
name = bottom;
position = "{397, 0}";
},
{
name = center;
position = "{397, 350}";
},
{
name = top;
position = "{397, 700}";
},
{
name = topleft;
position = "{20, 700}";
}
);
layerId = "554F9022-F5DF-470A-8852-5D1AD00D5051";
paths = (
{
closed = 1;
nodes = (
"713 0 LINE",
"713 700 LINE",
"497 700 LINE",
"497 0 LINE"
);
},
{
closed = 1;
nodes = (
"296 0 LINE",
"296 700 LINE",
"80 700 LINE",
"80 0 LINE"
);
},
{
closed = 1;
nodes = (
"619 255 LINE",
"619 443 LINE",
"162 443 LINE",
"161 255 LINE"
);
}
);
width = 793;
},
{
anchors = (
{
name = bottom;
position = "{366, 0}";
},
{
name = center;
position = "{366, 350}";
},
{
name = top;
position = "{366, 700}";
},
{
name = topleft;
position = "{20, 700}";
}
);
layerId = "CCD999A9-9CE8-4787-8FD2-D5D19514269E";
paths = (
{
closed = 1;
nodes = (
"621 0 LINE",
"621 700 LINE",
"599 700 LINE",
"599 0 LINE"
);
},
{
closed = 1;
nodes = (
"132 0 LINE",
"132 700 LINE",
"110 700 LINE",
"110 0 LINE"
);
},
{
closed = 1;
nodes = (
"610 338 LINE",
"610 360 LINE",
"121 360 LINE",
"121 338 LINE"
);
}
);
width = 732;
},
{
anchors = (
{
name = bottom;
position = "{535, 0}";
},
{
name = center;
position = "{535, 350}";
},
{
name = top;
position = "{535, 700}";
},
{
name = topleft;
position = "{104, 700}";
}
);
layerId = "649E0662-786D-44F6-8E8D-A6782F19FFAA";
paths = (
{
closed = 1;
nodes = (
"887 0 LINE",
"887 700 LINE",
"779 700 LINE",
"779 0 LINE"
);
},
{
closed = 1;
nodes = (
"290 0 LINE",
"290 700 LINE",
"182 700 LINE",
"182 0 LINE"
);
},
{
closed = 1;
nodes = (
"827 293 LINE",
"827 397 LINE",
"230 397 LINE",
"229 293 LINE"
);
}
);
width = 1069;
},
{
anchors = (
{
name = bottom;
position = "{520, 0}";
},
{
name = center;
position = "{520, 350}";
},
{
name = top;
position = "{520, 700}";
},
{
name = topleft;
position = "{104, 700}";
}
);
layerId = "9FF8E21A-ED06-4F66-AEDE-2CE647DC4B08";
paths = (
{
closed = 1;
nodes = (
"845 0 LINE",
"845 700 LINE",
"823 700 LINE",
"823 0 LINE"
);
},
{
closed = 1;
nodes = (
"216 0 LINE",
"216 700 LINE",
"194 700 LINE",
"194 0 LINE"
);
},
{
closed = 1;
nodes = (
"834 334 LINE",
"834 356 LINE",
"206 356 LINE",
"205 334 LINE"
);
}
);
width = 1040;
},
{
anchors = (
{
name = bottom;
position = "{551, 0}";
},
{
name = center;
position = "{551, 350}";
},
{
name = top;
position = "{551, 700}";
},
{
name = topleft;
position = "{104, 700}";
}
);
layerId = "ED109265-B005-47B0-97BD-F1815082B32B";
paths = (
{
closed = 1;
nodes = (
"937 0 LINE",
"937 700 LINE",
"721 700 LINE",
"721 0 LINE"
);
},
{
closed = 1;
nodes = (
"380 0 LINE",
"380 700 LINE",
"164 700 LINE",
"164 0 LINE"
);
},
{
closed = 1;
nodes = (
"843 251 LINE",
"843 439 LINE",
"247 439 LINE",
"245 251 LINE"
);
}
);
width = 1101;
},
{
anchors = (
{
name = bottom;
position = "{372, 0}";
},
{
name = center;
position = "{372, 350}";
},
{
name = top;
position = "{372, 700}";
},
{
name = topleft;
position = "{20, 700}";
}
);
layerId = "2B3ECD2C-4B3A-40C3-8F2B-A5E41B85E4DD";
paths = (
{
closed = 1;
nodes = (
"636 0 LINE",
"636 700 LINE",
"586 700 LINE",
"586 0 LINE"
);
},
{
closed = 1;
nodes = (
"158 0 LINE",
"158 700 LINE",
"108 700 LINE",
"108 0 LINE"
);
},
{
closed = 1;
nodes = (
"604 324 LINE",
"604 374 LINE",
"137 374 LINE",
"137 324 LINE"
);
}
);
width = 744;
}
);
leftKerningGroup = H;
rightKerningGroup = H;
unicode = 0048;
},
{
color = 3;
glyphname = Hbar;
layers = (
{
components = (
{
name = H;
transform = "{1, 0, 0, 1, 48, 0}";
}
);
layerId = "5A878C7E-547A-4951-B48F-676DBBC9B762";
paths = (
{
closed = 1;
nodes = (
"163 468 LINE",
"209 478 LINE",
"625 478 LINE",
"656 468 LINE",
"800 468 LINE",
"800 572 LINE",
"649 572 LINE",
"613 562 LINE",
"219 562 LINE",
"173 572 LINE",
"57 572 LINE",
"57 468 LINE"
);
}
);
width = 857;
},
{
components = (
{
name = H;
transform = "{1, 0, 0, 1, 2, 0}";
}
);
layerId = "554F9022-F5DF-470A-8852-5D1AD00D5051";
paths = (
{
closed = 1;
nodes = (
"90 488 LINE",
"179 498 LINE",
"595 498 LINE",
"703 488 LINE",
"780 488 LINE",
"780 652 LINE",
"703 652 LINE",
"583 642 LINE",
"189 642 LINE",
"90 652 LINE",
"17 652 LINE",
"17 488 LINE"
);
}
);
width = 793;
},
{
components = (
{
name = H;
}
);
layerId = "CCD999A9-9CE8-4787-8FD2-D5D19514269E";
paths = (
{
closed = 1;
nodes = (
"116 541 LINE",
"126 541 LINE",
"609 541 LINE",
"614 541 LINE",
"706 541 LINE",
"706 562 LINE",
"614 562 LINE",
"608 562 LINE",
"126 562 LINE",
"118 562 LINE",
"24 562 LINE",
"24 541 LINE"
);
}
);
width = 731;
},
{
components = (
{
name = H;
transform = "{1, 0, 0, 1, 110, 0}";
}
);
layerId = "649E0662-786D-44F6-8E8D-A6782F19FFAA";
paths = (
{
closed = 1;
nodes = (
"301 468 LINE",
"337 478 LINE",
"964 478 LINE",
"985 468 LINE",
"1144 468 LINE",
"1144 572 LINE",
"988 572 LINE",
"952 562 LINE",
"347 562 LINE",
"301 572 LINE",
"145 572 LINE",
"145 468 LINE"
);
}
);
width = 1289;
},
{
components = (
{
name = H;
transform = "{1, 0, 0, 1, -15, 0}";
}
);
layerId = "9FF8E21A-ED06-4F66-AEDE-2CE647DC4B08";
paths = (
{
closed = 1;
nodes = (
"184 541 LINE",
"196 541 LINE",
"815 541 LINE",
"824 541 LINE",
"985 541 LINE",
"985 562 LINE",
"824 562 LINE",
"815 562 LINE",
"196 562 LINE",
"185 562 LINE",
"24 562 LINE",
"24 541 LINE"
);
}
);
width = 1010;
},
{
components = (
{
name = H;
transform = "{1, 0, 0, 1, 64, 0}";
}
);
layerId = "ED109265-B005-47B0-97BD-F1815082B32B";
paths = (
{
closed = 1;
nodes = (
"296 488 LINE",
"375 498 LINE",
"854 498 LINE",
"949 488 LINE",
"1121 488 LINE",
"1121 652 LINE",
"959 652 LINE",
"842 642 LINE",
"385 642 LINE",
"286 652 LINE",
"105 652 LINE",
"105 488 LINE"
);
}
);
width = 1225;
},
{
anchors = (
{
name = bottom;
position = "{615, 0}";
},
{
name = center;
position = "{615, 350}";
},
{
name = top;
position = "{615, 700}";
},
{
name = topleft;
position = "{168, 700}";
}
);
associatedMasterId = "ED109265-B005-47B0-97BD-F1815082B32B";
components = (
{
name = H;
transform = "{1, 0, 0, 1, 64, 0}";
}
);
layerId = "5649F0CE-E671-40A5-9A69-936009EE2009";
name = foreground;
paths = (
{
closed = 1;
nodes = (
"296 488 LINE",
"375 498 LINE",
"854 498 LINE",
"949 488 LINE",
"1121 488 LINE",
"1121 652 LINE",
"959 652 LINE",
"842 642 LINE",
"385 642 LINE",
"286 652 LINE",
"105 652 LINE",
"105 488 LINE"
);
}
);
width = 1225;
},
{
components = (
{
name = H;
}
);
layerId = "2B3ECD2C-4B3A-40C3-8F2B-A5E41B85E4DD";
paths = (
{
closed = 1;
nodes = (
"117 536 LINE",
"148 536 LINE",
"600 536 LINE",
"623 536 LINE",
"716 536 LINE",
"716 582 LINE",
"618 582 LINE",
"601 582 LINE",
"143 582 LINE",
"117 582 LINE",
"28 582 LINE",
"28 536 LINE"
);
}
);
width = 744;
}
);
unicode = 0126;
},
{
color = 6;
glyphname = I;
layers = (
{
anchors = (
{
name = bottom;
position = "{239, 0}";
},
{
name = ogonek;
position = "{343, 0}";
},
{
name = top;
position = "{239, 700}";
},
{
name = topleft;
position = "{20, 700}";
}
);
layerId = "5A878C7E-547A-4951-B48F-676DBBC9B762";
paths = (
{
closed = 1;
nodes = (
"406 0 LINE",
"406 100 LINE",
"293 100 LINE",
"293 600 LINE",
"406 600 LINE",
"406 700 LINE",
"72 700 LINE",
"72 600 LINE",
"185 600 LINE",
"185 100 LINE",
"72 100 LINE",
"72 0 LINE"
);
}
);
width = 478;
},
{
anchors = (
{
name = bottom;
position = "{306, 0}";
},
{
name = ogonek;
position = "{437, 0}";
},
{
name = top;
position = "{306, 700}";
},
{
name = topleft;
position = "{20, 700}";
}
);
layerId = "554F9022-F5DF-470A-8852-5D1AD00D5051";
paths = (
{
closed = 1;
nodes = (
"537 0 LINE",
"537 175 LINE",
"414 175 LINE",
"414 525 LINE",
"537 525 LINE",
"537 700 LINE",
"75 700 LINE",
"75 525 LINE",
"198 525 LINE",
"198 175 LINE",
"75 175 LINE",
"75 0 LINE"
);
}
);
width = 612;
},
{
anchors = (
{
name = bottom;
position = "{193, 0}";
},
{
name = ogonek;
position = "{259, 0}";
},
{
name = top;
position = "{193, 700}";
},
{
name = topleft;
position = "{20, 700}";
}
);
layerId = "CCD999A9-9CE8-4787-8FD2-D5D19514269E";
paths = (
{
closed = 1;
nodes = (
"336 0 LINE",
"336 22 LINE",
"204 22 LINE",
"204 678 LINE",
"336 678 LINE",
"336 700 LINE",
"50 700 LINE",
"50 678 LINE",
"182 678 LINE",
"182 22 LINE",
"50 22 LINE",
"50 0 LINE"
);
}
);
width = 386;
},
{
anchors = (
{
name = bottom;
position = "{427, 0}";
},
{
name = ogonek;
position = "{520, 0}";
},
{
name = top;
position = "{427, 700}";
},
{
name = topleft;
position = "{138, 700}";
}
);
layerId = "649E0662-786D-44F6-8E8D-A6782F19FFAA";
paths = (
{
closed = 1;
nodes = (
"664 0 LINE",
"664 107 LINE",
"481 107 LINE",
"481 593 LINE",
"664 593 LINE",
"664 700 LINE",
"190 700 LINE",
"190 593 LINE",
"373 593 LINE",
"373 107 LINE",
"190 107 LINE",
"190 0 LINE"
);
}
);
width = 854;
},
{
anchors = (
{
name = bottom;
position = "{381, 0}";
},
{
name = ogonek;
position = "{455, 0}";
},
{
name = top;
position = "{381, 700}";
},
{
name = topleft;
position = "{138, 700}";
}
);
layerId = "9FF8E21A-ED06-4F66-AEDE-2CE647DC4B08";
paths = (
{
closed = 1;
nodes = (
"594 0 LINE",
"594 22 LINE",
"392 22 LINE",
"392 678 LINE",
"594 678 LINE",
"594 700 LINE",
"168 700 LINE",
"168 678 LINE",
"370 678 LINE",
"370 22 LINE",
"168 22 LINE",
"168 0 LINE"
);
}
);
width = 762;
},
{
anchors = (
{
name = bottom;
position = "{494, 0}";
},
{
name = ogonek;
position = "{614, 0}";
},
{
name = top;
position = "{494, 700}";
},
{
name = topleft;
position = "{138, 700}";
}
);
layerId = "ED109265-B005-47B0-97BD-F1815082B32B";
paths = (
{
closed = 1;
nodes = (
"795 0 LINE",
"795 182 LINE",
"602 182 LINE",
"602 518 LINE",
"795 518 LINE",
"795 700 LINE",
"193 700 LINE",
"193 518 LINE",
"386 518 LINE",
"386 182 LINE",
"193 182 LINE",
"193 0 LINE"
);
}
);
width = 988;
},
{
anchors = (
{
name = bottom;
position = "{206, 0}";
},
{
name = ogonek;
position = "{272, 0}";
},
{
name = top;
position = "{206, 700}";
},
{
name = topleft;
position = "{20, 700}";
}
);
layerId = "2B3ECD2C-4B3A-40C3-8F2B-A5E41B85E4DD";
paths = (
{
closed = 1;
nodes = (
"344 0 LINE",
"344 50 LINE",
"231 50 LINE",
"231 650 LINE",
"344 650 LINE",
"344 700 LINE",
"68 700 LINE",
"68 650 LINE",
"181 650 LINE",
"181 50 LINE",
"68 50 LINE",
"68 0 LINE"
);
}
);
width = 412;
}
);
leftKerningGroup = I;
rightKerningGroup = I;
unicode = 0049;
},
{
color = 6;
glyphname = J;
layers = (
{
anchors = (
{
name = bottom;
position = "{321, 0}";
},
{
name = top;
position = "{426, 700}";
}
);
layerId = "5A878C7E-547A-4951-B48F-676DBBC9B762";
paths = (
{
closed = 1;
nodes = (
"390.667 -10 OFFCURVE",
"484 86.333 OFFCURVE",
"484 213 CURVE SMOOTH",
"484 600 LINE",
"592 600 LINE",
"592 700 LINE",
"248 700 LINE",
"248 600 LINE",
"376 600 LINE",
"376 223 LINE SMOOTH",
"376 148.333 OFFCURVE",
"328 95 OFFCURVE",
"256 95 CURVE SMOOTH",
"206.667 95 OFFCURVE",
"175.333 109.333 OFFCURVE",
"118 188 CURVE",
"50 117 LINE",
"88.667 41 OFFCURVE",
"165.333 -10 OFFCURVE",
"256 -10 CURVE SMOOTH"
);
}
);
width = 642;
},
{
anchors = (
{
name = bottom;
position = "{341, 0}";
},
{
name = top;
position = "{391, 700}";
}
);
layerId = "554F9022-F5DF-470A-8852-5D1AD00D5051";
paths = (
{
closed = 1;
nodes = (
"391.667 -10 OFFCURVE",
"494 70.333 OFFCURVE",
"494 213 CURVE SMOOTH",
"494 516 LINE",
"602 516 LINE",
"602 700 LINE",
"157 700 LINE",
"157 516 LINE",
"286 516 LINE",
"286 240 LINE SMOOTH",
"286 202.667 OFFCURVE",
"265 179 OFFCURVE",
"233 179 CURVE SMOOTH",
"201 179 OFFCURVE",
"172.667 203.333 OFFCURVE",
"150 238 CURVE",
"31 115 LINE",
"75 35 OFFCURVE",
"151.667 -10 OFFCURVE",
"265 -10 CURVE SMOOTH"
);
}
);
width = 682;
},
{
anchors = (
{
name = bottom;
position = "{280, 0}";
},
{
name = top;
position = "{385, 700}";
}
);
layerId = "CCD999A9-9CE8-4787-8FD2-D5D19514269E";
paths = (
{
closed = 1;
nodes = (
"322.333 -10 OFFCURVE",
"403 58.333 OFFCURVE",
"403 213 CURVE SMOOTH",
"403 678 LINE",
"509 678 LINE",
"509 700 LINE",
"252 700 LINE",
"252 678 LINE",
"381 678 LINE",
"381 213 LINE SMOOTH",
"381 71.667 OFFCURVE",
"311 12 OFFCURVE",
"211 12 CURVE SMOOTH",
"131 12 OFFCURVE",
"73.333 51 OFFCURVE",
"36 135 CURVE",
"20 120 LINE",
"52 40 OFFCURVE",
"117 -10 OFFCURVE",
"209 -10 CURVE SMOOTH"
);
}
);
width = 559;
},
{
anchors = (
{
name = bottom;
position = "{478, 0}";
},
{
name = top;
position = "{635, 700}";
}
);
layerId = "649E0662-786D-44F6-8E8D-A6782F19FFAA";
paths = (
{
closed = 1;
nodes = (
"592 -10 OFFCURVE",
"699 129 OFFCURVE",
"699 273 CURVE SMOOTH",
"699 593 LINE",
"831 593 LINE",
"831 700 LINE",
"417 700 LINE",
"417 593 LINE",
"591 593 LINE",
"591 283 LINE SMOOTH",
"591 176 OFFCURVE",
"518 90 OFFCURVE",
"401 90 CURVE SMOOTH",
"296 90 OFFCURVE",
"246 156 OFFCURVE",
"197 223 CURVE",
"125 147 LINE",
"146 110 OFFCURVE",
"230 -10 OFFCURVE",
"401 -10 CURVE SMOOTH"
);
}
);
width = 881;
},
{
anchors = (
{
name = bottom;
position = "{442, 0}";
},
{
name = top;
position = "{594, 700}";
}
);
layerId = "9FF8E21A-ED06-4F66-AEDE-2CE647DC4B08";
paths = (
{
closed = 1;
nodes = (
"522 -10 OFFCURVE",
"618 94 OFFCURVE",
"618 273 CURVE SMOOTH",
"618 678 LINE",
"748 678 LINE",
"748 700 LINE",
"421 700 LINE",
"421 678 LINE",
"596 678 LINE",
"596 273 LINE SMOOTH",
"596 104 OFFCURVE",
"499 13 OFFCURVE",
"356 13 CURVE SMOOTH",
"251 13 OFFCURVE",
"161 80 OFFCURVE",
"124 167 CURVE",
"105 150 LINE",
"140 67 OFFCURVE",
"237 -10 OFFCURVE",
"354 -10 CURVE SMOOTH"
);
}
);
width = 798;
},
{
anchors = (
{
name = bottom;
position = "{498, 0}";
},
{
name = top;
position = "{600, 700}";
}
);
layerId = "ED109265-B005-47B0-97BD-F1815082B32B";
paths = (
{
closed = 1;
nodes = (
"593 -10 OFFCURVE",
"709 113 OFFCURVE",
"709 273 CURVE SMOOTH",
"709 509 LINE",
"841 509 LINE",
"841 700 LINE",
"326 700 LINE",
"326 509 LINE",
"501 509 LINE",
"501 300 LINE SMOOTH",
"501 231 OFFCURVE",
"455 174 OFFCURVE",
"378 174 CURVE SMOOTH",
"290 174 OFFCURVE",
"244 250 OFFCURVE",
"229 273 CURVE",
"106 145 LINE",
"133 104 OFFCURVE",
"217 -10 OFFCURVE",
"410 -10 CURVE SMOOTH"
);
}
);
width = 921;
},
{
anchors = (
{
name = bottom;
position = "{312, 0}";
},
{
name = top;
position = "{441, 700}";
}
);
layerId = "2B3ECD2C-4B3A-40C3-8F2B-A5E41B85E4DD";
paths = (
{
closed = 1;
nodes = (
"393 -10 OFFCURVE",
"481 83.667 OFFCURVE",
"481 213 CURVE SMOOTH",
"481 650 LINE",
"579 650 LINE",
"579 700 LINE",
"300 700 LINE",
"300 650 LINE",
"427 650 LINE",
"427 216 LINE SMOOTH",
"427 113.333 OFFCURVE",
"362 40 OFFCURVE",
"270 40 CURVE SMOOTH",
"207.333 40 OFFCURVE",
"146.667 73.667 OFFCURVE",
"104 155 CURVE",
"68 117 LINE",
"110.667 35.667 OFFCURVE",
"182.333 -10 OFFCURVE",
"269 -10 CURVE SMOOTH"
);
}
);
width = 623;
}
);
leftKerningGroup = J;
rightKerningGroup = J;
unicode = 004A;
},
{
color = 6;
glyphname = K;
layers = (
{
anchors = (
{
name = bottom;
position = "{366, 0}";
},
{
name = top;
position = "{366, 700}";
}
);
layerId = "5A878C7E-547A-4951-B48F-676DBBC9B762";
paths = (
{
closed = 1;
nodes = (
"691 700 LINE",
"549 700 LINE",
"182 333 LINE",
"188 212 LINE"
);
},
{
closed = 1;
nodes = (
"206 0 LINE",
"206 700 LINE",
"98 700 LINE",
"98 0 LINE"
);
},
{
closed = 1;
nodes = (
"697 0 LINE",
"374 427 LINE",
"294 358 LINE",
"562 0 LINE"
);
}
);
width = 732;
},
{
anchors = (
{
name = bottom;
position = "{372, 0}";
},
{
name = top;
position = "{372, 700}";
}
);
layerId = "554F9022-F5DF-470A-8852-5D1AD00D5051";
paths = (
{
closed = 1;
nodes = (
"735 700 LINE",
"490 700 LINE",
"157 359 LINE",
"230 199 LINE"
);
},
{
closed = 1;
nodes = (
"296 0 LINE",
"296 700 LINE",
"80 700 LINE",
"80 0 LINE"
);
},
{
closed = 1;
nodes = (
"764 0 LINE",
"405 452 LINE",
"265 331 LINE",
"519 0 LINE"
);
}
);
width = 744;
},
{
anchors = (
{
name = bottom;
position = "{318, 0}";
},
{
name = top;
position = "{318, 700}";
}
);
layerId = "CCD999A9-9CE8-4787-8FD2-D5D19514269E";
paths = (
{
closed = 1;
nodes = (
"598 700 LINE",
"566 700 LINE",
"120 265 LINE",
"120 234 LINE"
);
},
{
closed = 1;
nodes = (
"132 0 LINE",
"132 700 LINE",
"110 700 LINE",
"110 0 LINE"
);
},
{
closed = 1;
nodes = (
"616 0 LINE",
"299 420 LINE",
"282 404 LINE",
"587 0 LINE"
);
}
);
userData = {
com.schriftgestaltung.Glyphs.glyph.leftMetricsKey = H;
};
width = 636;
},
{
anchors = (
{
name = bottom;
position = "{527, 0}";
},
{
name = top;
position = "{527, 700}";
}
);
layerId = "649E0662-786D-44F6-8E8D-A6782F19FFAA";
paths = (
{
closed = 1;
nodes = (
"935 700 LINE",
"775 700 LINE",
"259 297 LINE",
"259 174 LINE"
);
},
{
closed = 1;
nodes = (
"290 0 LINE",
"290 700 LINE",
"182 700 LINE",
"182 0 LINE"
);
},
{
closed = 1;
nodes = (
"921 0 LINE",
"537 465 LINE",
"470 379 LINE",
"777 0 LINE"
);
}
);
width = 1071;
},
{
anchors = (
{
name = bottom;
position = "{472, 0}";
},
{
name = top;
position = "{472, 700}";
}
);
layerId = "9FF8E21A-ED06-4F66-AEDE-2CE647DC4B08";
paths = (
{
closed = 1;
nodes = (
"827 700 LINE",
"792 700 LINE",
"206 236 LINE",
"206 208 LINE"
);
},
{
closed = 1;
nodes = (
"216 0 LINE",
"216 700 LINE",
"194 700 LINE",
"194 0 LINE"
);
},
{
closed = 1;
nodes = (
"840 0 LINE",
"479 435 LINE",
"461 421 LINE",
"810 0 LINE"
);
}
);
userData = {
com.schriftgestaltung.Glyphs.glyph.leftMetricsKey = H;
};
width = 975;
},
{
anchors = (
{
name = bottom;
position = "{533, 0}";
},
{
name = top;
position = "{533, 700}";
}
);
layerId = "ED109265-B005-47B0-97BD-F1815082B32B";
paths = (
{
closed = 1;
nodes = (
"979 700 LINE",
"716 700 LINE",
"234 323 LINE",
"301 161 LINE"
);
},
{
closed = 1;
nodes = (
"380 0 LINE",
"380 700 LINE",
"164 700 LINE",
"164 0 LINE"
);
},
{
closed = 1;
nodes = (
"988 0 LINE",
"568 490 LINE",
"441 352 LINE",
"734 0 LINE"
);
}
);
width = 1083;
},
{
anchors = (
{
name = bottom;
position = "{335, 0}";
},
{
name = top;
position = "{335, 700}";
}
);
layerId = "2B3ECD2C-4B3A-40C3-8F2B-A5E41B85E4DD";
paths = (
{
closed = 1;
nodes = (
"631 700 LINE",
"561 700 LINE",
"137 284 LINE",
"137 217 LINE"
);
},
{
closed = 1;
nodes = (
"158 0 LINE",
"158 700 LINE",
"108 700 LINE",
"108 0 LINE"
);
},
{
closed = 1;
nodes = (
"644 0 LINE",
"324 422 LINE",
"288 388 LINE",
"581 0 LINE"
);
}
);
userData = {
com.schriftgestaltung.Glyphs.glyph.leftMetricsKey = H;
};
width = 669;
}
);
leftKerningGroup = H;
leftMetricsKey = H;
rightKerningGroup = K;
unicode = 004B;
},
{
color = 6;
glyphname = L;
layers = (
{
anchors = (
{
name = bottom;
position = "{300, 0}";
},
{
name = center;
position = "{153, 350}";
},
{
name = top;
position = "{153, 700}";
},
{
name = topright;
position = "{293, 700}";
}
);
layerId = "5A878C7E-547A-4951-B48F-676DBBC9B762";
paths = (
{
closed = 1;
nodes = (
"534 0 LINE",
"534 104 LINE",
"206 104 LINE",
"206 700 LINE",
"98 700 LINE",
"98 0 LINE"
);
}
);
width = 599;
},
{
anchors = (
{
name = bottom;
position = "{308, 0}";
},
{
name = center;
position = "{191, 350}";
},
{
name = top;
position = "{190, 700}";
},
{
name = topright;
position = "{369, 700}";
}
);
layerId = "554F9022-F5DF-470A-8852-5D1AD00D5051";
paths = (
{
closed = 1;
nodes = (
"596 0 LINE",
"596 184 LINE",
"296 184 LINE",
"296 700 LINE",
"80 700 LINE",
"80 0 LINE"
);
}
);
width = 616;
},
{
anchors = (
{
name = bottom;
position = "{267, 0}";
},
{
name = center;
position = "{121, 350}";
},
{
name = top;
position = "{121, 700}";
},
{
name = topright;
position = "{298, 700}";
}
);
layerId = "CCD999A9-9CE8-4787-8FD2-D5D19514269E";
paths = (
{
closed = 1;
nodes = (
"483 0 LINE",
"483 22 LINE",
"132 22 LINE",
"132 700 LINE",
"110 700 LINE",
"110 0 LINE"
);
}
);
userData = {
com.schriftgestaltung.Glyphs.glyph.leftMetricsKey = H;
};
width = 533;
},
{
anchors = (
{
name = bottom;
position = "{454, 0}";
},
{
name = center;
position = "{238, 350}";
},
{
name = top;
position = "{237, 700}";
},
{
name = topright;
position = "{454, 700}";
}
);
layerId = "649E0662-786D-44F6-8E8D-A6782F19FFAA";
paths = (
{
closed = 1;
nodes = (
"758 0 LINE",
"758 104 LINE",
"290 104 LINE",
"290 700 LINE",
"182 700 LINE",
"182 0 LINE"
);
}
);
width = 898;
},
{
anchors = (
{
name = bottom;
position = "{401, 0}";
},
{
name = center;
position = "{205, 350}";
},
{
name = top;
position = "{205, 700}";
},
{
name = topright;
position = "{441, 700}";
}
);
layerId = "9FF8E21A-ED06-4F66-AEDE-2CE647DC4B08";
paths = (
{
closed = 1;
nodes = (
"707 0 LINE",
"707 22 LINE",
"216 22 LINE",
"216 700 LINE",
"194 700 LINE",
"194 0 LINE"
);
}
);
userData = {
com.schriftgestaltung.Glyphs.glyph.leftMetricsKey = H;
};
width = 792;
},
{
anchors = (
{
name = bottom;
position = "{462, 0}";
},
{
name = center;
position = "{276, 350}";
},
{
name = top;
position = "{274, 700}";
},
{
name = topright;
position = "{530, 700}";
}
);
layerId = "ED109265-B005-47B0-97BD-F1815082B32B";
paths = (
{
closed = 1;
nodes = (
"820 0 LINE",
"820 184 LINE",
"380 184 LINE",
"380 700 LINE",
"164 700 LINE",
"164 0 LINE"
);
}
);
width = 915;
},
{
anchors = (
{
name = bottom;
position = "{268, 0}";
},
{
name = center;
position = "{135, 350}";
},
{
name = top;
position = "{134, 700}";
},
{
name = topright;
position = "{285, 700}";
}
);
layerId = "2B3ECD2C-4B3A-40C3-8F2B-A5E41B85E4DD";
paths = (
{
closed = 1;
nodes = (
"501 0 LINE",
"501 50 LINE",
"158 50 LINE",
"158 700 LINE",
"108 700 LINE",
"108 0 LINE"
);
}
);
userData = {
com.schriftgestaltung.Glyphs.glyph.leftMetricsKey = H;
};
width = 536;
}
);
leftKerningGroup = H;
leftMetricsKey = H;
rightKerningGroup = L;
unicode = 004C;
},
{
color = 3;
glyphname = Lslash;
layers = (
{
components = (
{
name = L;
transform = "{1, 0, 0, 1, 39, 0}";
}
);
layerId = "5A878C7E-547A-4951-B48F-676DBBC9B762";
paths = (
{
closed = 1;
nodes = (
"363 382 LINE",
"331 459 LINE",
"40 328 LINE",
"69 256 LINE"
);
}
);
width = 638;
},
{
components = (
{
name = L;
}
);
layerId = "554F9022-F5DF-470A-8852-5D1AD00D5051";
paths = (
{
closed = 1;
nodes = (
"425 401 LINE",
"363 564 LINE",
"-44 387 LINE",
"18 224 LINE"
);
}
);
width = 616;
},
{
components = (
{
name = L;
transform = "{1, 0, 0, 1, -16, 0}";
}
);
layerId = "CCD999A9-9CE8-4787-8FD2-D5D19514269E";
paths = (
{
closed = 1;
nodes = (
"264 433 LINE",
"256 454 LINE",
"-9 333 LINE",
"-1 312 LINE"
);
}
);
userData = {
com.schriftgestaltung.Glyphs.glyph.rightMetricsKey = L;
};
width = 517;
},
{
components = (
{
name = L;
transform = "{1, 0, 0, 1, 30, 0}";
}
);
layerId = "649E0662-786D-44F6-8E8D-A6782F19FFAA";
paths = (
{
closed = 1;
nodes = (
"633 439 LINE",
"601 536 LINE",
"40 318 LINE",
"69 226 LINE"
);
}
);
width = 928;
},
{
components = (
{
name = L;
}
);
layerId = "9FF8E21A-ED06-4F66-AEDE-2CE647DC4B08";
paths = (
{
closed = 1;
nodes = (
"541 475 LINE",
"536 496 LINE",
"1 288 LINE",
"6 267 LINE"
);
}
);
userData = {
com.schriftgestaltung.Glyphs.glyph.rightMetricsKey = L;
};
width = 792;
},
{
components = (
{
name = L;
transform = "{1, 0, 0, 1, -9, 0}";
}
);
layerId = "ED109265-B005-47B0-97BD-F1815082B32B";
paths = (
{
closed = 1;
nodes = (
"695 458 LINE",
"633 641 LINE",
"-44 377 LINE",
"18 194 LINE"
);
}
);
userData = {
com.schriftgestaltung.Glyphs.glyph.rightMetricsKey = L;
};
width = 906;
},
{
anchors = (
{
name = bottom;
position = "{453, 0}";
},
{
name = center;
position = "{267, 350}";
},
{
name = top;
position = "{265, 700}";
},
{
name = topright;
position = "{521, 700}";
}
);
associatedMasterId = "ED109265-B005-47B0-97BD-F1815082B32B";
components = (
{
name = L;
transform = "{1, 0, 0, 1, -9, 0}";
}
);
layerId = "6C0F154F-362F-4AB8-88A0-DB9FA471229F";
name = foreground;
paths = (
{
closed = 1;
nodes = (
"695 458 LINE",
"633 641 LINE",
"-44 377 LINE",
"18 194 LINE"
);
}
);
userData = {
com.schriftgestaltung.Glyphs.glyph.rightMetricsKey = L;
};
width = 906;
},
{
components = (
{
name = L;
}
);
layerId = "2B3ECD2C-4B3A-40C3-8F2B-A5E41B85E4DD";
paths = (
{
closed = 1;
nodes = (
"298 414 LINE",
"281 456 LINE",
"7 332 LINE",
"24 291 LINE"
);
}
);
userData = {
com.schriftgestaltung.Glyphs.glyph.rightMetricsKey = L;
};
width = 536;
}
);
leftKerningGroup = H;
rightKerningGroup = L;
unicode = 0141;
},
{
color = 6;
glyphname = M;
layers = (
{
anchors = (
{
name = bottom;
position = "{432, 0}";
},
{
name = top;
position = "{432, 700}";
}
);
layerId = "5A878C7E-547A-4951-B48F-676DBBC9B762";
paths = (
{
closed = 1;
nodes = (
"206 0 LINE",
"206 287 LINE SMOOTH",
"206 416.333 OFFCURVE",
"200.667 502.667 OFFCURVE",
"186 592 CURVE",
"175 551 LINE",
"397 201 LINE",
"463 201 LINE",
"692 555 LINE",
"678 592 LINE",
"663.333 497.333 OFFCURVE",
"658 407 OFFCURVE",
"658 287 CURVE SMOOTH",
"658 0 LINE",
"766 0 LINE",
"766 700 LINE",
"666 700 LINE",
"408 286 LINE",
"459 285 LINE",
"204 700 LINE",
"98 700 LINE",
"98 0 LINE"
);
}
);
width = 864;
},
{
anchors = (
{
name = bottom;
position = "{444, 0}";
},
{
name = top;
position = "{444, 700}";
}
);
layerId = "554F9022-F5DF-470A-8852-5D1AD00D5051";
paths = (
{
closed = 1;
nodes = (
"288 0 LINE",
"288 167 LINE SMOOTH",
"288 296.333 OFFCURVE",
"282.667 382.667 OFFCURVE",
"268 472 CURVE",
"243 409 LINE",
"409 147 LINE",
"475 147 LINE",
"644 409 LINE",
"620 472 LINE",
"605.333 377.333 OFFCURVE",
"600 287 OFFCURVE",
"600 167 CURVE SMOOTH",
"600 0 LINE",
"808 0 LINE",
"808 700 LINE",
"628 700 LINE",
"370 286 LINE",
"521 285 LINE",
"266 700 LINE",
"80 700 LINE",
"80 0 LINE"
);
}
);
width = 888;
},
{
anchors = (
{
name = bottom;
position = "{420, 0}";
},
{
name = top;
position = "{420, 700}";
}
);
layerId = "CCD999A9-9CE8-4787-8FD2-D5D19514269E";
paths = (
{
closed = 1;
nodes = (
"132 0 LINE",
"132 545 LINE SMOOTH",
"132 593.667 OFFCURVE",
"131 640 OFFCURVE",
"129 684 CURVE",
"119 672 LINE",
"412 204 LINE",
"427 204 LINE",
"725 679 LINE",
"709 684 LINE",
"707 637.333 OFFCURVE",
"706 590.333 OFFCURVE",
"706 543 CURVE SMOOTH",
"706 0 LINE",
"728 0 LINE",
"728 700 LINE",
"711 700 LINE",
"418 232 LINE",
"421 232 LINE",
"127 700 LINE",
"110 700 LINE",
"110 0 LINE"
);
}
);
userData = {
com.schriftgestaltung.Glyphs.glyph.leftMetricsKey = H;
com.schriftgestaltung.Glyphs.glyph.rightMetricsKey = H;
};
width = 839;
},
{
anchors = (
{
name = bottom;
position = "{588, 0}";
},
{
name = top;
position = "{588, 700}";
}
);
layerId = "649E0662-786D-44F6-8E8D-A6782F19FFAA";
paths = (
{
closed = 1;
nodes = (
"290 0 LINE",
"290 297 LINE SMOOTH",
"290 408 OFFCURVE",
"286 501 OFFCURVE",
"270 602 CURVE",
"259 561 LINE",
"555 201 LINE",
"621 201 LINE",
"917 561 LINE",
"906 602 LINE",
"890 501 OFFCURVE",
"886 408 OFFCURVE",
"886 297 CURVE SMOOTH",
"886 0 LINE",
"994 0 LINE",
"994 700 LINE",
"888 700 LINE",
"569 305 LINE",
"607 305 LINE",
"288 700 LINE",
"182 700 LINE",
"182 0 LINE"
);
}
);
width = 1176;
},
{
anchors = (
{
name = bottom;
position = "{576, 0}";
},
{
name = top;
position = "{576, 700}";
}
);
layerId = "9FF8E21A-ED06-4F66-AEDE-2CE647DC4B08";
paths = (
{
closed = 1;
nodes = (
"216 0 LINE",
"217 544 LINE SMOOTH",
"217 594 OFFCURVE",
"216 640 OFFCURVE",
"213 682 CURVE",
"198 685 LINE",
"567 217 LINE",
"582 217 LINE",
"950 683 LINE",
"937 683 LINE",
"934 635 OFFCURVE",
"933 588 OFFCURVE",
"934 542 CURVE SMOOTH",
"934 0 LINE",
"956 0 LINE",
"956 700 LINE",
"936 700 LINE",
"569 235 LINE",
"581 235 LINE",
"214 700 LINE",
"194 700 LINE",
"194 0 LINE"
);
}
);
userData = {
com.schriftgestaltung.Glyphs.glyph.leftMetricsKey = H;
com.schriftgestaltung.Glyphs.glyph.rightMetricsKey = H;
};
width = 1151;
},
{
anchors = (
{
name = bottom;
position = "{600, 0}";
},
{
name = top;
position = "{600, 700}";
}
);
layerId = "ED109265-B005-47B0-97BD-F1815082B32B";
paths = (
{
closed = 1;
nodes = (
"372 0 LINE",
"372 177 LINE SMOOTH",
"372 288 OFFCURVE",
"368 381 OFFCURVE",
"352 482 CURVE",
"327 419 LINE",
"567 147 LINE",
"633 147 LINE",
"869 415 LINE",
"848 482 LINE",
"832 381 OFFCURVE",
"828 288 OFFCURVE",
"828 177 CURVE SMOOTH",
"828 0 LINE",
"1036 0 LINE",
"1036 700 LINE",
"850 700 LINE",
"531 305 LINE",
"669 305 LINE",
"350 700 LINE",
"164 700 LINE",
"164 0 LINE"
);
}
);
width = 1200;
},
{
anchors = (
{
name = bottom;
position = "{426, 0}";
},
{
name = top;
position = "{426, 700}";
}
);
layerId = "2B3ECD2C-4B3A-40C3-8F2B-A5E41B85E4DD";
paths = (
{
closed = 1;
nodes = (
"158 0 LINE",
"158 351 LINE SMOOTH",
"158 480.333 OFFCURVE",
"157 566.667 OFFCURVE",
"149 656 CURVE",
"139 631 LINE",
"403 205 LINE",
"445 205 LINE",
"718 637 LINE",
"703 656 LINE",
"695 561.333 OFFCURVE",
"694 471 OFFCURVE",
"694 351 CURVE SMOOTH",
"694 0 LINE",
"744 0 LINE",
"744 700 LINE",
"701 700 LINE",
"416 243 LINE",
"437 243 LINE",
"156 700 LINE",
"108 700 LINE",
"108 0 LINE"
);
}
);
userData = {
com.schriftgestaltung.Glyphs.glyph.leftMetricsKey = H;
com.schriftgestaltung.Glyphs.glyph.rightMetricsKey = H;
};
width = 852;
}
);
leftKerningGroup = H;
leftMetricsKey = H;
rightKerningGroup = H;
rightMetricsKey = H;
unicode = 004D;
},
{
color = 6;
glyphname = N;
layers = (
{
anchors = (
{
name = bottom;
position = "{397, 0}";
},
{
name = top;
position = "{397, 700}";
}
);
layerId = "5A878C7E-547A-4951-B48F-676DBBC9B762";
paths = (
{
closed = 1;
nodes = (
"206 0 LINE",
"206 291 LINE SMOOTH",
"206 321.169 OFFCURVE",
"203.595 363.871 OFFCURVE",
"186 566 CURVE",
"175 552 LINE",
"596 0 LINE",
"695 0 LINE",
"695 700 LINE",
"587 700 LINE",
"587 470 LINE SMOOTH",
"587 323.333 OFFCURVE",
"593.667 200.667 OFFCURVE",
"607 118 CURVE",
"623 127 LINE",
"195 700 LINE",
"98 700 LINE",
"98 0 LINE"
);
}
);
width = 793;
},
{
anchors = (
{
name = bottom;
position = "{409, 0}";
},
{
name = top;
position = "{409, 700}";
}
);
layerId = "554F9022-F5DF-470A-8852-5D1AD00D5051";
paths = (
{
closed = 1;
nodes = (
"288 0 LINE",
"288 191 LINE SMOOTH",
"288 313.667 OFFCURVE",
"284 343.333 OFFCURVE",
"268 466 CURVE",
"187 490 LINE",
"542 0 LINE",
"737 0 LINE",
"737 700 LINE",
"529 700 LINE",
"529 570 LINE SMOOTH",
"527.667 436.667 OFFCURVE",
"533 402.333 OFFCURVE",
"549 269 CURVE",
"595 255 LINE",
"273 700 LINE",
"80 700 LINE",
"80 0 LINE"
);
}
);
width = 817;
},
{
anchors = (
{
name = bottom;
position = "{366, 0}";
},
{
name = top;
position = "{366, 700}";
}
);
layerId = "CCD999A9-9CE8-4787-8FD2-D5D19514269E";
paths = (
{
closed = 1;
nodes = (
"132 0 LINE",
"132 470 LINE SMOOTH",
"132 543 OFFCURVE",
"131.333 652.667 OFFCURVE",
"130 686 CURVE",
"115 686 LINE",
"600 0 LINE",
"620 0 LINE",
"620 700 LINE",
"598 700 LINE",
"598 241 LINE SMOOTH",
"598 92 OFFCURVE",
"599 60 OFFCURVE",
"601 31 CURVE",
"605 31 LINE",
"132 700 LINE",
"110 700 LINE",
"110 0 LINE"
);
}
);
userData = {
com.schriftgestaltung.Glyphs.glyph.leftMetricsKey = H;
com.schriftgestaltung.Glyphs.glyph.rightMetricsKey = H;
};
width = 731;
},
{
anchors = (
{
name = bottom;
position = "{561, 0}";
},
{
name = top;
position = "{561, 700}";
}
);
layerId = "649E0662-786D-44F6-8E8D-A6782F19FFAA";
paths = (
{
closed = 1;
nodes = (
"290 0 LINE",
"290 291 LINE SMOOTH",
"290 382 OFFCURVE",
"275 505 OFFCURVE",
"270 566 CURVE",
"269 552 LINE",
"830 0 LINE",
"939 0 LINE",
"939 700 LINE",
"831 700 LINE",
"831 470 LINE SMOOTH",
"831 361 OFFCURVE",
"835 218 OFFCURVE",
"851 118 CURVE",
"857 127 LINE",
"289 700 LINE",
"182 700 LINE",
"182 0 LINE"
);
}
);
width = 1121;
},
{
anchors = (
{
name = bottom;
position = "{530, 0}";
},
{
name = top;
position = "{530, 700}";
}
);
layerId = "9FF8E21A-ED06-4F66-AEDE-2CE647DC4B08";
paths = (
{
closed = 1;
nodes = (
"216 0 LINE",
"216 470 LINE SMOOTH",
"217 575 OFFCURVE",
"215 646 OFFCURVE",
"214 685 CURVE",
"209 685 LINE",
"834 0 LINE",
"864 0 LINE",
"864 700 LINE",
"842 700 LINE",
"842 241 LINE SMOOTH",
"844 181 OFFCURVE",
"842 77 OFFCURVE",
"844 17 CURVE",
"849 18 LINE",
"224 700 LINE",
"194 700 LINE",
"194 0 LINE"
);
}
);
userData = {
com.schriftgestaltung.Glyphs.glyph.leftMetricsKey = H;
com.schriftgestaltung.Glyphs.glyph.rightMetricsKey = H;
};
width = 1059;
},
{
anchors = (
{
name = bottom;
position = "{573, 0}";
},
{
name = top;
position = "{573, 700}";
}
);
layerId = "ED109265-B005-47B0-97BD-F1815082B32B";
paths = (
{
closed = 1;
nodes = (
"372 0 LINE",
"372 191 LINE SMOOTH",
"372 374 OFFCURVE",
"362 427 OFFCURVE",
"352 466 CURVE",
"281 490 LINE",
"776 0 LINE",
"981 0 LINE",
"981 700 LINE",
"773 700 LINE",
"773 570 LINE SMOOTH",
"773 474 OFFCURVE",
"774 420 OFFCURVE",
"793 269 CURVE",
"829 255 LINE",
"367 700 LINE",
"164 700 LINE",
"164 0 LINE"
);
}
);
width = 1145;
},
{
anchors = (
{
name = bottom;
position = "{391, 0}";
},
{
name = top;
position = "{391, 700}";
}
);
layerId = "2B3ECD2C-4B3A-40C3-8F2B-A5E41B85E4DD";
paths = (
{
closed = 1;
nodes = (
"158 0 LINE",
"158 344 LINE SMOOTH",
"158 372 OFFCURVE",
"152.667 603.667 OFFCURVE",
"150 669 CURVE",
"136 641 LINE",
"625 0 LINE",
"673 0 LINE",
"673 700 LINE",
"623 700 LINE",
"623 417 LINE SMOOTH",
"623.667 339.667 OFFCURVE",
"625.333 65 OFFCURVE",
"628 37 CURVE",
"640 63 LINE",
"154 700 LINE",
"108 700 LINE",
"108 0 LINE"
);
}
);
userData = {
com.schriftgestaltung.Glyphs.glyph.leftMetricsKey = H;
com.schriftgestaltung.Glyphs.glyph.rightMetricsKey = H;
};
width = 781;
}
);
leftKerningGroup = H;
leftMetricsKey = H;
rightKerningGroup = H;
rightMetricsKey = H;
unicode = 004E;
},
{
color = 6;
glyphname = Nhookleft;
layers = (
{
layerId = "5A878C7E-547A-4951-B48F-676DBBC9B762";
paths = (
{
closed = 1;
nodes = (
"115.667 -197 OFFCURVE",
"190 -128 OFFCURVE",
"190 -24 CURVE SMOOTH",
"190 291 LINE SMOOTH",
"190 341 OFFCURVE",
"181 455 OFFCURVE",
"170 566 CURVE",
"159 552 LINE",
"580 0 LINE",
"679 0 LINE",
"679 700 LINE",
"571 700 LINE",
"571 470 LINE SMOOTH",
"571 323.333 OFFCURVE",
"577.667 200.667 OFFCURVE",
"591 118 CURVE",
"607 127 LINE",
"179 700 LINE",
"82 700 LINE",
"82 1 LINE SMOOTH",
"82 -77.667 OFFCURVE",
"43.333 -118 OFFCURVE",
"-34 -118 CURVE",
"5 -197 LINE"
);
}
);
width = 777;
},
{
layerId = "554F9022-F5DF-470A-8852-5D1AD00D5051";
paths = (
{
closed = 1;
nodes = (
"198.667 -207 OFFCURVE",
"283 -146.333 OFFCURVE",
"283 23 CURVE SMOOTH",
"283 145 LINE SMOOTH",
"283 277 OFFCURVE",
"283 315 OFFCURVE",
"263 466 CURVE",
"182 490 LINE",
"537 0 LINE",
"732 0 LINE",
"732 700 LINE",
"524 700 LINE",
"524 570 LINE SMOOTH",
"524 437 OFFCURVE",
"528 402.333 OFFCURVE",
"544 269 CURVE",
"590 255 LINE",
"268 700 LINE",
"75 700 LINE",
"75 71 LINE SMOOTH",
"75 -9 OFFCURVE",
"30.667 -48 OFFCURVE",
"-60 -48 CURVE",
"28 -207 LINE"
);
}
);
width = 812;
},
{
layerId = "CCD999A9-9CE8-4787-8FD2-D5D19514269E";
paths = (
{
closed = 1;
nodes = (
"86 -194 OFFCURVE",
"132 -146.667 OFFCURVE",
"132 -60 CURVE SMOOTH",
"132 470 LINE SMOOTH",
"132 495 OFFCURVE",
"132 661 OFFCURVE",
"130 686 CURVE",
"115 686 LINE",
"600 0 LINE",
"620 0 LINE",
"620 700 LINE",
"598 700 LINE",
"598 241 LINE SMOOTH",
"598 92 OFFCURVE",
"600 60 OFFCURVE",
"601 31 CURVE",
"605 31 LINE",
"132 700 LINE",
"110 700 LINE",
"110 -56 LINE SMOOTH",
"110 -125.333 OFFCURVE",
"80.667 -173 OFFCURVE",
"-2 -173 CURVE",
"6 -194 LINE"
);
}
);
userData = {
com.schriftgestaltung.Glyphs.glyph.rightMetricsKey = N;
};
width = 731;
},
{
layerId = "649E0662-786D-44F6-8E8D-A6782F19FFAA";
paths = (
{
closed = 1;
nodes = (
"192 -197 OFFCURVE",
"310 -81 OFFCURVE",
"310 106 CURVE SMOOTH",
"310 291 LINE SMOOTH",
"310 346 OFFCURVE",
"301 453 OFFCURVE",
"290 566 CURVE",
"269 532 LINE",
"830 0 LINE",
"939 0 LINE",
"939 700 LINE",
"811 700 LINE",
"811 470 LINE SMOOTH",
"811 361 OFFCURVE",
"815 218 OFFCURVE",
"831 118 CURVE",
"857 147 LINE",
"289 700 LINE",
"182 700 LINE",
"182 131 LINE SMOOTH",
"182 -9 OFFCURVE",
"130 -95 OFFCURVE",
"1 -95 CURVE",
"40 -197 LINE"
);
}
);
width = 1121;
},
{
layerId = "9FF8E21A-ED06-4F66-AEDE-2CE647DC4B08";
paths = (
{
closed = 1;
nodes = (
"144 -189 OFFCURVE",
"233 -101 OFFCURVE",
"233 70 CURVE SMOOTH",
"233 470 LINE SMOOTH",
"233 500 OFFCURVE",
"232 655 OFFCURVE",
"231 685 CURVE",
"226 685 LINE",
"851 0 LINE",
"881 0 LINE",
"881 700 LINE",
"859 700 LINE",
"859 241 LINE SMOOTH",
"861 181 OFFCURVE",
"859 77 OFFCURVE",
"861 17 CURVE",
"866 18 LINE",
"241 700 LINE",
"211 700 LINE",
"211 74 LINE SMOOTH",
"211 -69 OFFCURVE",
"148 -157 OFFCURVE",
"23 -172 CURVE",
"27 -194 LINE"
);
}
);
userData = {
com.schriftgestaltung.Glyphs.glyph.rightMetricsKey = N;
};
width = 1076;
},
{
layerId = "ED109265-B005-47B0-97BD-F1815082B32B";
paths = (
{
closed = 1;
nodes = (
"275 -207 OFFCURVE",
"403 -99 OFFCURVE",
"403 153 CURVE SMOOTH",
"403 145 LINE SMOOTH",
"403 282 OFFCURVE",
"403 313 OFFCURVE",
"383 466 CURVE",
"292 470 LINE",
"787 0 LINE",
"992 0 LINE",
"992 700 LINE",
"764 700 LINE",
"764 570 LINE SMOOTH",
"764 474 OFFCURVE",
"765 420 OFFCURVE",
"784 269 CURVE",
"840 275 LINE",
"378 700 LINE",
"175 700 LINE",
"175 201 LINE SMOOTH",
"175 60 OFFCURVE",
"118 -25 OFFCURVE",
"-25 -25 CURVE",
"63 -207 LINE"
);
}
);
width = 1156;
},
{
layerId = "2B3ECD2C-4B3A-40C3-8F2B-A5E41B85E4DD";
paths = (
{
closed = 1;
nodes = (
"100.667 -195 OFFCURVE",
"158 -136 OFFCURVE",
"158 -48 CURVE SMOOTH",
"158 344 LINE SMOOTH",
"158 450 OFFCURVE",
"152 616 OFFCURVE",
"150 669 CURVE",
"136 641 LINE",
"625 0 LINE",
"673 0 LINE",
"673 700 LINE",
"623 700 LINE",
"623 417 LINE SMOOTH",
"623 340 OFFCURVE",
"624 128 OFFCURVE",
"628 37 CURVE",
"640 63 LINE",
"154 700 LINE",
"108 700 LINE",
"108 -28 LINE SMOOTH",
"108 -110.667 OFFCURVE",
"78.333 -152 OFFCURVE",
"-7 -152 CURVE",
"14 -195 LINE"
);
}
);
userData = {
com.schriftgestaltung.Glyphs.glyph.rightMetricsKey = N;
};
width = 781;
}
);
leftKerningGroup = H;
rightKerningGroup = H;
rightMetricsKey = N;
unicode = 019D;
},
{
color = 6;
glyphname = Eng;
layers = (
{
layerId = "5A878C7E-547A-4951-B48F-676DBBC9B762";
paths = (
{
closed = 1;
nodes = (
"620.667 -197 OFFCURVE",
"695 -128 OFFCURVE",
"695 -24 CURVE SMOOTH",
"695 700 LINE",
"587 700 LINE",
"587 470 LINE SMOOTH",
"587 323.333 OFFCURVE",
"593.667 200.667 OFFCURVE",
"607 118 CURVE",
"623 127 LINE",
"195 700 LINE",
"98 700 LINE",
"98 0 LINE",
"206 0 LINE",
"206 291 LINE SMOOTH",
"206 341 OFFCURVE",
"197 455 OFFCURVE",
"186 566 CURVE",
"175 552 LINE",
"596 0 LINE",
"587 76 LINE",
"587 1 LINE SMOOTH",
"587 -77.667 OFFCURVE",
"548.333 -118 OFFCURVE",
"471 -118 CURVE",
"510 -197 LINE"
);
}
);
width = 793;
},
{
layerId = "554F9022-F5DF-470A-8852-5D1AD00D5051";
paths = (
{
closed = 1;
nodes = (
"644.667 -207 OFFCURVE",
"737 -152 OFFCURVE",
"737 0 CURVE SMOOTH",
"737 700 LINE",
"529 700 LINE",
"529 570 LINE SMOOTH",
"527.667 459.333 OFFCURVE",
"530 426 OFFCURVE",
"546 298 CURVE",
"560 304 LINE",
"273 700 LINE",
"80 700 LINE",
"80 0 LINE",
"288 0 LINE",
"288 233.5 LINE SMOOTH",
"288 276 OFFCURVE",
"282 347 OFFCURVE",
"278 390 CURVE",
"263 384 LINE",
"545 -3 LINE",
"537 49 LINE",
"537 0 LINE SMOOTH",
"537 -34.667 OFFCURVE",
"451.333 -48 OFFCURVE",
"394 -48 CURVE",
"482 -207 LINE"
);
}
);
width = 817;
},
{
layerId = "CCD999A9-9CE8-4787-8FD2-D5D19514269E";
paths = (
{
closed = 1;
nodes = (
"574 -194 OFFCURVE",
"620 -146.667 OFFCURVE",
"620 -60 CURVE SMOOTH",
"620 700 LINE",
"598 700 LINE",
"598 241 LINE SMOOTH",
"598 92 OFFCURVE",
"601 60.333 OFFCURVE",
"601 31 CURVE",
"605 31 LINE",
"132 700 LINE",
"110 700 LINE",
"110 0 LINE",
"132 0 LINE",
"132 470 LINE SMOOTH",
"132 493 OFFCURVE",
"132 663 OFFCURVE",
"130 686 CURVE",
"115 686 LINE",
"607 -10 LINE",
"598 19 LINE",
"598 -56 LINE SMOOTH",
"598 -125.333 OFFCURVE",
"568.667 -173 OFFCURVE",
"486 -173 CURVE",
"494 -194 LINE"
);
}
);
userData = {
com.schriftgestaltung.Glyphs.glyph.leftMetricsKey = N;
com.schriftgestaltung.Glyphs.glyph.rightMetricsKey = N;
};
width = 731;
},
{
layerId = "649E0662-786D-44F6-8E8D-A6782F19FFAA";
paths = (
{
closed = 1;
nodes = (
"821 -197 OFFCURVE",
"939 -81 OFFCURVE",
"939 106 CURVE SMOOTH",
"939 700 LINE",
"831 700 LINE",
"831 470 LINE SMOOTH",
"831 361 OFFCURVE",
"835 218 OFFCURVE",
"851 118 CURVE",
"857 127 LINE",
"289 700 LINE",
"182 700 LINE",
"182 0 LINE",
"290 0 LINE",
"290 291 LINE SMOOTH",
"290 346 OFFCURVE",
"281 455 OFFCURVE",
"270 566 CURVE",
"269 552 LINE",
"830 0 LINE",
"826 71 LINE",
"826 50 LINE SMOOTH",
"826 -32 OFFCURVE",
"747 -95 OFFCURVE",
"630 -95 CURVE",
"669 -197 LINE"
);
}
);
width = 1121;
},
{
layerId = "9FF8E21A-ED06-4F66-AEDE-2CE647DC4B08";
paths = (
{
closed = 1;
nodes = (
"791 -194 OFFCURVE",
"864 -106 OFFCURVE",
"864 0 CURVE SMOOTH",
"864 700 LINE",
"842 700 LINE",
"842 241 LINE SMOOTH",
"842 184 OFFCURVE",
"843 79 OFFCURVE",
"845 22 CURVE",
"849 26 LINE",
"226 700 LINE",
"194 700 LINE",
"194 0 LINE",
"216 0 LINE",
"216 532 LINE SMOOTH",
"215 567 OFFCURVE",
"217 651 OFFCURVE",
"214 686 CURVE",
"209 686 LINE",
"849 -5 LINE",
"845 15 LINE",
"845 -3 LINE SMOOTH",
"845 -101 OFFCURVE",
"774 -177 OFFCURVE",
"648 -177 CURVE",
"653 -194 LINE"
);
}
);
userData = {
com.schriftgestaltung.Glyphs.glyph.leftMetricsKey = N;
com.schriftgestaltung.Glyphs.glyph.rightMetricsKey = N;
};
width = 1059;
},
{
layerId = "ED109265-B005-47B0-97BD-F1815082B32B";
paths = (
{
closed = 1;
nodes = (
"845 -207 OFFCURVE",
"981 -105 OFFCURVE",
"981 130 CURVE SMOOTH",
"981 700 LINE",
"773 700 LINE",
"773 570 LINE SMOOTH",
"772 497 OFFCURVE",
"771 443 OFFCURVE",
"790 298 CURVE",
"794 304 LINE",
"367 700 LINE",
"164 700 LINE",
"164 0 LINE",
"372 0 LINE",
"372 234 LINE SMOOTH",
"372 281 OFFCURVE",
"366 347 OFFCURVE",
"362 390 CURVE",
"357 384 LINE",
"779 -3 LINE",
"776 44 LINE",
"776 49 LINE SMOOTH",
"776 11 OFFCURVE",
"650 -25 OFFCURVE",
"553 -25 CURVE",
"641 -207 LINE"
);
}
);
width = 1145;
},
{
layerId = "2B3ECD2C-4B3A-40C3-8F2B-A5E41B85E4DD";
paths = (
{
closed = 1;
nodes = (
"615.667 -195 OFFCURVE",
"673 -130 OFFCURVE",
"673 -42 CURVE SMOOTH",
"673 700 LINE",
"623 700 LINE",
"623 417 LINE SMOOTH",
"624 325 OFFCURVE",
"624 144 OFFCURVE",
"627 52 CURVE",
"644 58 LINE",
"154 700 LINE",
"108 700 LINE",
"108 0 LINE",
"158 0 LINE",
"157.5 377.5 LINE SMOOTH",
"157 412 OFFCURVE",
"152 616 OFFCURVE",
"151 651 CURVE",
"134 645 LINE",
"641 -21 LINE",
"623 33 LINE",
"623 -28 LINE SMOOTH",
"623 -110.667 OFFCURVE",
"593.333 -152 OFFCURVE",
"508 -152 CURVE",
"529 -195 LINE"
);
}
);
userData = {
com.schriftgestaltung.Glyphs.glyph.leftMetricsKey = N;
com.schriftgestaltung.Glyphs.glyph.rightMetricsKey = N;
};
width = 781;
}
);
leftKerningGroup = H;
leftMetricsKey = N;
rightKerningGroup = H;
rightMetricsKey = N;
unicode = 014A;
},
{
color = 6;
glyphname = O;
layers = (
{
anchors = (
{
name = bottom;
position = "{391, 0}";
},
{
name = center;
position = "{391, 350}";
},
{
name = ogonek;
position = "{563, 0}";
},
{
name = top;
position = "{391, 700}";
},
{
name = topleft;
position = "{20, 700}";
},
{
name = topright;
position = "{762, 700}";
}
);
layerId = "5A878C7E-547A-4951-B48F-676DBBC9B762";
paths = (
{
closed = 1;
nodes = (
"588.333 -10 OFFCURVE",
"734 144.667 OFFCURVE",
"734 350 CURVE SMOOTH",
"734 555.333 OFFCURVE",
"588.333 710 OFFCURVE",
"391 710 CURVE SMOOTH",
"193.667 710 OFFCURVE",
"48 556.667 OFFCURVE",
"48 350 CURVE SMOOTH",
"48 143.333 OFFCURVE",
"193.667 -10 OFFCURVE",
"391 -10 CURVE SMOOTH"
);
},
{
closed = 1;
nodes = (
"255 95 OFFCURVE",
"158 202 OFFCURVE",
"158 350 CURVE SMOOTH",
"158 498 OFFCURVE",
"255 605 OFFCURVE",
"391 605 CURVE SMOOTH",
"525.667 605 OFFCURVE",
"624 496.667 OFFCURVE",
"624 350 CURVE SMOOTH",
"624 203.333 OFFCURVE",
"525.667 95 OFFCURVE",
"391 95 CURVE SMOOTH"
);
}
);
width = 782;
},
{
anchors = (
{
name = bottom;
position = "{417, 0}";
},
{
name = center;
position = "{417, 350}";
},
{
name = ogonek;
position = "{751, 10}";
},
{
name = top;
position = "{417, 700}";
},
{
name = topleft;
position = "{20, 700}";
},
{
name = topright;
position = "{814, 700}";
}
);
layerId = "554F9022-F5DF-470A-8852-5D1AD00D5051";
paths = (
{
closed = 1;
nodes = (
"637 -10 OFFCURVE",
"794 143 OFFCURVE",
"794 355 CURVE SMOOTH",
"794 567 OFFCURVE",
"637 720 OFFCURVE",
"417 720 CURVE SMOOTH",
"197 720 OFFCURVE",
"40 567 OFFCURVE",
"40 355 CURVE SMOOTH",
"40 143 OFFCURVE",
"197 -10 OFFCURVE",
"417 -10 CURVE SMOOTH"
);
},
{
closed = 1;
nodes = (
"326.333 190 OFFCURVE",
"260 259 OFFCURVE",
"260 355 CURVE SMOOTH",
"260 451 OFFCURVE",
"326.333 520 OFFCURVE",
"417 520 CURVE SMOOTH",
"507.667 520 OFFCURVE",
"574 451 OFFCURVE",
"574 355 CURVE SMOOTH",
"574 259 OFFCURVE",
"507.667 190 OFFCURVE",
"417 190 CURVE SMOOTH"
);
}
);
width = 834;
},
{
anchors = (
{
name = bottom;
position = "{399, 0}";
},
{
name = center;
position = "{399, 350}";
},
{
name = ogonek;
position = "{486, 0}";
},
{
name = top;
position = "{399, 700}";
},
{
name = topleft;
position = "{20, 700}";
},
{
name = topright;
position = "{778, 700}";
}
);
layerId = "CCD999A9-9CE8-4787-8FD2-D5D19514269E";
paths = (
{
closed = 1;
nodes = (
"600.333 -10 OFFCURVE",
"743 138.333 OFFCURVE",
"743 349 CURVE SMOOTH",
"743 561 OFFCURVE",
"600.333 710 OFFCURVE",
"399 710 CURVE SMOOTH",
"197.667 710 OFFCURVE",
"55 559.667 OFFCURVE",
"55 349 CURVE SMOOTH",
"55 138.333 OFFCURVE",
"197.667 -10 OFFCURVE",
"399 -10 CURVE SMOOTH"
);
},
{
closed = 1;
nodes = (
"213.667 12 OFFCURVE",
"78 153 OFFCURVE",
"78 349 CURVE SMOOTH",
"78 545 OFFCURVE",
"213.667 688 OFFCURVE",
"399 688 CURVE SMOOTH",
"585.667 688 OFFCURVE",
"720 545 OFFCURVE",
"720 349 CURVE SMOOTH",
"720 153 OFFCURVE",
"585.667 12 OFFCURVE",
"399 12 CURVE SMOOTH"
);
}
);
width = 798;
},
{
anchors = (
{
name = bottom;
position = "{551, 0}";
},
{
name = center;
position = "{551, 350}";
},
{
name = ogonek;
position = "{768, 0}";
},
{
name = top;
position = "{551, 700}";
},
{
name = topleft;
position = "{100, 700}";
},
{
name = topright;
position = "{1002, 700}";
}
);
layerId = "649E0662-786D-44F6-8E8D-A6782F19FFAA";
paths = (
{
closed = 1;
nodes = (
"796 -10 OFFCURVE",
"974 149 OFFCURVE",
"974 350 CURVE SMOOTH",
"974 551 OFFCURVE",
"796 710 OFFCURVE",
"551 710 CURVE SMOOTH",
"304 710 OFFCURVE",
"128 551 OFFCURVE",
"128 350 CURVE SMOOTH",
"128 149 OFFCURVE",
"304 -10 OFFCURVE",
"551 -10 CURVE SMOOTH"
);
},
{
closed = 1;
nodes = (
"366 95 OFFCURVE",
"238 205 OFFCURVE",
"238 350 CURVE SMOOTH",
"238 495 OFFCURVE",
"366 605 OFFCURVE",
"551 605 CURVE SMOOTH",
"734 605 OFFCURVE",
"864 494 OFFCURVE",
"864 350 CURVE SMOOTH",
"864 206 OFFCURVE",
"734 95 OFFCURVE",
"551 95 CURVE SMOOTH"
);
}
);
width = 1102;
},
{
anchors = (
{
name = bottom;
position = "{559, 0}";
},
{
name = center;
position = "{559, 350}";
},
{
name = ogonek;
position = "{696, 0}";
},
{
name = top;
position = "{559, 700}";
},
{
name = topleft;
position = "{100, 700}";
},
{
name = topright;
position = "{662, 700}";
}
);
layerId = "9FF8E21A-ED06-4F66-AEDE-2CE647DC4B08";
paths = (
{
closed = 1;
nodes = (
"808 -10 OFFCURVE",
"983 142 OFFCURVE",
"983 349 CURVE SMOOTH",
"983 557 OFFCURVE",
"808 710 OFFCURVE",
"559 710 CURVE SMOOTH",
"308 710 OFFCURVE",
"135 554 OFFCURVE",
"135 349 CURVE SMOOTH",
"135 144 OFFCURVE",
"308 -10 OFFCURVE",
"559 -10 CURVE SMOOTH"
);
},
{
closed = 1;
nodes = (
"324 12 OFFCURVE",
"158 156 OFFCURVE",
"158 349 CURVE SMOOTH",
"158 542 OFFCURVE",
"324 688 OFFCURVE",
"559 688 CURVE SMOOTH",
"794 688 OFFCURVE",
"960 542 OFFCURVE",
"960 349 CURVE SMOOTH",
"960 156 OFFCURVE",
"794 12 OFFCURVE",
"559 12 CURVE SMOOTH"
);
}
);
width = 1118;
},
{
anchors = (
{
name = bottom;
position = "{577, 0}";
},
{
name = center;
position = "{577, 350}";
},
{
name = ogonek;
position = "{956, 10}";
},
{
name = top;
position = "{577, 700}";
},
{
name = topleft;
position = "{100, 700}";
},
{
name = topright;
position = "{1054, 700}";
}
);
layerId = "ED109265-B005-47B0-97BD-F1815082B32B";
paths = (
{
closed = 1;
nodes = (
"845 -10 OFFCURVE",
"1034 147 OFFCURVE",
"1034 355 CURVE SMOOTH",
"1034 563 OFFCURVE",
"845 720 OFFCURVE",
"577 720 CURVE SMOOTH",
"308 720 OFFCURVE",
"120 562 OFFCURVE",
"120 355 CURVE SMOOTH",
"120 148 OFFCURVE",
"307 -10 OFFCURVE",
"577 -10 CURVE SMOOTH"
);
},
{
closed = 1;
nodes = (
"437 190 OFFCURVE",
"340 262 OFFCURVE",
"340 355 CURVE SMOOTH",
"340 448 OFFCURVE",
"437 520 OFFCURVE",
"577 520 CURVE SMOOTH",
"716 520 OFFCURVE",
"814 448 OFFCURVE",
"814 355 CURVE SMOOTH",
"814 262 OFFCURVE",
"716 190 OFFCURVE",
"577 190 CURVE SMOOTH"
);
}
);
width = 1154;
},
{
anchors = (
{
name = bottom;
position = "{394, 0}";
},
{
name = center;
position = "{394, 350}";
},
{
name = ogonek;
position = "{551, 0}";
},
{
name = top;
position = "{394, 700}";
},
{
name = topleft;
position = "{20, 700}";
},
{
name = topright;
position = "{767, 700}";
}
);
layerId = "2B3ECD2C-4B3A-40C3-8F2B-A5E41B85E4DD";
paths = (
{
closed = 1;
nodes = (
"593 -10 OFFCURVE",
"737 139 OFFCURVE",
"737 347 CURVE SMOOTH",
"737 555 OFFCURVE",
"593 705 OFFCURVE",
"393 705 CURVE SMOOTH",
"193 705 OFFCURVE",
"50 555 OFFCURVE",
"50 347 CURVE SMOOTH",
"50 139 OFFCURVE",
"193 -10 OFFCURVE",
"393 -10 CURVE SMOOTH"
);
},
{
closed = 1;
nodes = (
"223.667 40 OFFCURVE",
"103 168.333 OFFCURVE",
"103 347 CURVE SMOOTH",
"103 525.667 OFFCURVE",
"223.667 655 OFFCURVE",
"393 655 CURVE SMOOTH",
"562.333 655 OFFCURVE",
"684 525.667 OFFCURVE",
"684 347 CURVE SMOOTH",
"684 168.333 OFFCURVE",
"562.333 40 OFFCURVE",
"393 40 CURVE SMOOTH"
);
}
);
width = 787;
}
);
leftKerningGroup = C;
rightKerningGroup = D;
unicode = 004F;
},
{
color = 6;
glyphname = Ohorn;
layers = (
{
anchors = (
{
name = bottom;
position = "{399, 0}";
},
{
name = top;
position = "{399, 700}";
}
);
layerId = "CCD999A9-9CE8-4787-8FD2-D5D19514269E";
paths = (
{
closed = 1;
nodes = (
"600.333 -10 OFFCURVE",
"743 138.333 OFFCURVE",
"743 349 CURVE SMOOTH",
"743 512 OFFCURVE",
"659 637 OFFCURVE",
"529 687 CURVE",
"517 676 LINE",
"619 667 OFFCURVE",
"671 710 OFFCURVE",
"671 799 CURVE",
"649 799 LINE",
"649 729 OFFCURVE",
"611 696 OFFCURVE",
"543 696 CURVE SMOOTH",
"526 696 OFFCURVE",
"500 698 OFFCURVE",
"473 703 CURVE SMOOTH",
"449 707 OFFCURVE",
"425 710 OFFCURVE",
"399 710 CURVE SMOOTH",
"197.667 710 OFFCURVE",
"55 559.667 OFFCURVE",
"55 349 CURVE SMOOTH",
"55 138.333 OFFCURVE",
"197.667 -10 OFFCURVE",
"399 -10 CURVE SMOOTH"
);
},
{
closed = 1;
nodes = (
"213.667 12 OFFCURVE",
"78 153 OFFCURVE",
"78 349 CURVE SMOOTH",
"78 545 OFFCURVE",
"213.667 688 OFFCURVE",
"399 688 CURVE SMOOTH",
"585.667 688 OFFCURVE",
"720 545 OFFCURVE",
"720 349 CURVE SMOOTH",
"720 153 OFFCURVE",
"585.667 12 OFFCURVE",
"399 12 CURVE SMOOTH"
);
}
);
width = 798;
},
{
anchors = (
{
name = bottom;
position = "{391, 0}";
},
{
name = top;
position = "{391, 700}";
}
);
layerId = "5A878C7E-547A-4951-B48F-676DBBC9B762";
paths = (
{
closed = 1;
nodes = (
"588.333 -10 OFFCURVE",
"734 144.667 OFFCURVE",
"734 350 CURVE SMOOTH",
"734 481 OFFCURVE",
"675 591 OFFCURVE",
"581 654 CURVE",
"574 630 LINE",
"662 642 OFFCURVE",
"700 713 OFFCURVE",
"700 814 CURVE",
"608 814 LINE",
"608 735 OFFCURVE",
"579 695 OFFCURVE",
"519 695 CURVE SMOOTH",
"503 695 OFFCURVE",
"488 697 OFFCURVE",
"471 701 CURVE SMOOTH",
"449 706 OFFCURVE",
"424 710 OFFCURVE",
"391 710 CURVE SMOOTH",
"193.667 710 OFFCURVE",
"48 556.667 OFFCURVE",
"48 350 CURVE SMOOTH",
"48 143.333 OFFCURVE",
"193.667 -10 OFFCURVE",
"391 -10 CURVE SMOOTH"
);
},
{
closed = 1;
nodes = (
"255 95 OFFCURVE",
"158 202 OFFCURVE",
"158 350 CURVE SMOOTH",
"158 498 OFFCURVE",
"255 605 OFFCURVE",
"391 605 CURVE SMOOTH",
"525.667 605 OFFCURVE",
"624 496.667 OFFCURVE",
"624 350 CURVE SMOOTH",
"624 203.333 OFFCURVE",
"525.667 95 OFFCURVE",
"391 95 CURVE SMOOTH"
);
}
);
width = 782;
},
{
anchors = (
{
name = bottom;
position = "{417, 0}";
},
{
name = top;
position = "{417, 700}";
}
);
layerId = "554F9022-F5DF-470A-8852-5D1AD00D5051";
paths = (
{
closed = 1;
nodes = (
"637 -10 OFFCURVE",
"794 143 OFFCURVE",
"794 355 CURVE SMOOTH",
"794 466 OFFCURVE",
"751 561 OFFCURVE",
"678 627 CURVE",
"642 605 LINE",
"791 605 OFFCURVE",
"818 721 OFFCURVE",
"818 834 CURVE",
"666 834 LINE",
"666 742 OFFCURVE",
"637 696 OFFCURVE",
"585 696 CURVE SMOOTH",
"558 696 OFFCURVE",
"534 704 OFFCURVE",
"509 709 CURVE SMOOTH",
"476 716 OFFCURVE",
"442 720 OFFCURVE",
"417 720 CURVE SMOOTH",
"197 720 OFFCURVE",
"40 567 OFFCURVE",
"40 355 CURVE SMOOTH",
"40 143 OFFCURVE",
"197 -10 OFFCURVE",
"417 -10 CURVE SMOOTH"
);
},
{
closed = 1;
nodes = (
"326.333 190 OFFCURVE",
"260 259 OFFCURVE",
"260 355 CURVE SMOOTH",
"260 451 OFFCURVE",
"326.333 520 OFFCURVE",
"417 520 CURVE SMOOTH",
"507.667 520 OFFCURVE",
"574 451 OFFCURVE",
"574 355 CURVE SMOOTH",
"574 259 OFFCURVE",
"507.667 190 OFFCURVE",
"417 190 CURVE SMOOTH"
);
}
);
width = 834;
},
{
anchors = (
{
name = bottom;
position = "{551, 0}";
},
{
name = top;
position = "{551, 700}";
}
);
layerId = "649E0662-786D-44F6-8E8D-A6782F19FFAA";
paths = (
{
closed = 1;
nodes = (
"796 -10 OFFCURVE",
"974 149 OFFCURVE",
"974 350 CURVE SMOOTH",
"974 477 OFFCURVE",
"903 587 OFFCURVE",
"790 651 CURVE",
"782 631 LINE",
"894 632 OFFCURVE",
"944 708 OFFCURVE",
"944 814 CURVE",
"852 814 LINE",
"852 724 OFFCURVE",
"808 694 OFFCURVE",
"733 694 CURVE SMOOTH",
"704 694 OFFCURVE",
"674 697 OFFCURVE",
"644 702 CURVE SMOOTH",
"614 707 OFFCURVE",
"583 710 OFFCURVE",
"551 710 CURVE SMOOTH",
"304 710 OFFCURVE",
"128 551 OFFCURVE",
"128 350 CURVE SMOOTH",
"128 149 OFFCURVE",
"304 -10 OFFCURVE",
"551 -10 CURVE SMOOTH"
);
},
{
closed = 1;
nodes = (
"366 95 OFFCURVE",
"238 205 OFFCURVE",
"238 350 CURVE SMOOTH",
"238 495 OFFCURVE",
"366 605 OFFCURVE",
"551 605 CURVE SMOOTH",
"734 605 OFFCURVE",
"864 494 OFFCURVE",
"864 350 CURVE SMOOTH",
"864 206 OFFCURVE",
"734 95 OFFCURVE",
"551 95 CURVE SMOOTH"
);
}
);
width = 1102;
},
{
anchors = (
{
name = bottom;
position = "{559, 0}";
},
{
name = top;
position = "{559, 700}";
}
);
layerId = "9FF8E21A-ED06-4F66-AEDE-2CE647DC4B08";
paths = (
{
closed = 1;
nodes = (
"808 -10 OFFCURVE",
"983 142 OFFCURVE",
"983 349 CURVE SMOOTH",
"983 509 OFFCURVE",
"880 636 OFFCURVE",
"720 686 CURVE",
"749 669 LINE",
"874 669 OFFCURVE",
"920 700 OFFCURVE",
"920 799 CURVE",
"898 799 LINE",
"898 727 OFFCURVE",
"871 690 OFFCURVE",
"756 690 CURVE SMOOTH",
"729 690 OFFCURVE",
"702 696 OFFCURVE",
"649 703 CURVE SMOOTH",
"620 707 OFFCURVE",
"590 710 OFFCURVE",
"559 710 CURVE SMOOTH",
"308 710 OFFCURVE",
"135 554 OFFCURVE",
"135 349 CURVE SMOOTH",
"135 144 OFFCURVE",
"308 -10 OFFCURVE",
"559 -10 CURVE SMOOTH"
);
},
{
closed = 1;
nodes = (
"324 12 OFFCURVE",
"158 156 OFFCURVE",
"158 349 CURVE SMOOTH",
"158 542 OFFCURVE",
"324 688 OFFCURVE",
"559 688 CURVE SMOOTH",
"776 688 OFFCURVE",
"960 542 OFFCURVE",
"960 349 CURVE SMOOTH",
"960 156 OFFCURVE",
"794 12 OFFCURVE",
"559 12 CURVE SMOOTH"
);
}
);
width = 1118;
},
{
anchors = (
{
name = bottom;
position = "{577, 0}";
},
{
name = top;
position = "{577, 700}";
}
);
layerId = "ED109265-B005-47B0-97BD-F1815082B32B";
paths = (
{
closed = 1;
nodes = (
"845 -10 OFFCURVE",
"1034 147 OFFCURVE",
"1034 355 CURVE SMOOTH",
"1034 462 OFFCURVE",
"979 557 OFFCURVE",
"887 624 CURVE",
"850 606 LINE",
"1023 595 OFFCURVE",
"1062 716 OFFCURVE",
"1062 834 CURVE",
"910 834 LINE",
"910 731 OFFCURVE",
"866 695 OFFCURVE",
"799 695 CURVE SMOOTH",
"759 695 OFFCURVE",
"720 704 OFFCURVE",
"682 710 CURVE SMOOTH",
"641 717 OFFCURVE",
"601 720 OFFCURVE",
"577 720 CURVE SMOOTH",
"308 720 OFFCURVE",
"120 562 OFFCURVE",
"120 355 CURVE SMOOTH",
"120 148 OFFCURVE",
"307 -10 OFFCURVE",
"577 -10 CURVE SMOOTH"
);
},
{
closed = 1;
nodes = (
"437 190 OFFCURVE",
"340 262 OFFCURVE",
"340 355 CURVE SMOOTH",
"340 448 OFFCURVE",
"437 520 OFFCURVE",
"577 520 CURVE SMOOTH",
"716 520 OFFCURVE",
"814 448 OFFCURVE",
"814 355 CURVE SMOOTH",
"814 262 OFFCURVE",
"716 190 OFFCURVE",
"577 190 CURVE SMOOTH"
);
}
);
width = 1154;
},
{
anchors = (
{
name = bottom;
position = "{394, 0}";
},
{
name = top;
position = "{394, 700}";
}
);
layerId = "2B3ECD2C-4B3A-40C3-8F2B-A5E41B85E4DD";
paths = (
{
closed = 1;
nodes = (
"593 -10 OFFCURVE",
"737 139 OFFCURVE",
"737 347 CURVE SMOOTH",
"737 502 OFFCURVE",
"658 624 OFFCURVE",
"535 677 CURVE",
"525 660 LINE",
"625 664 OFFCURVE",
"684 721 OFFCURVE",
"684 809 CURVE",
"636 809 LINE",
"636 734 OFFCURVE",
"595 696 OFFCURVE",
"513 696 CURVE SMOOTH",
"490.355 696 OFFCURVE",
"467.709 698.671 OFFCURVE",
"445.064 701.493 CURVE SMOOTH",
"428.195 703.809 OFFCURVE",
"410.82 705 OFFCURVE",
"393 705 CURVE SMOOTH",
"193 705 OFFCURVE",
"50 555 OFFCURVE",
"50 347 CURVE SMOOTH",
"50 139 OFFCURVE",
"193 -10 OFFCURVE",
"393 -10 CURVE SMOOTH"
);
},
{
closed = 1;
nodes = (
"223.667 40 OFFCURVE",
"103 168.333 OFFCURVE",
"103 347 CURVE SMOOTH",
"103 525.667 OFFCURVE",
"223.667 655 OFFCURVE",
"393 655 CURVE SMOOTH",
"562.333 655 OFFCURVE",
"684 525.667 OFFCURVE",
"684 347 CURVE SMOOTH",
"684 168.333 OFFCURVE",
"562.333 40 OFFCURVE",
"393 40 CURVE SMOOTH"
);
}
);
width = 787;
}
);
leftKerningGroup = C;
rightKerningGroup = D;
unicode = 01A0;
},
{
color = 3;
glyphname = Oogonek;
layers = (
{
anchors = (
{
name = top;
position = "{399, 700}";
}
);
components = (
{
name = O;
}
);
layerId = "CCD999A9-9CE8-4787-8FD2-D5D19514269E";
paths = (
{
closed = 1;
nodes = (
"558 -236 OFFCURVE",
"592 -214 OFFCURVE",
"608 -182 CURVE",
"593 -169 LINE",
"578 -196 OFFCURVE",
"553 -214 OFFCURVE",
"518 -214 CURVE SMOOTH",
"474 -214 OFFCURVE",
"440 -180 OFFCURVE",
"440 -129 CURVE SMOOTH",
"440 -63 OFFCURVE",
"498 -13 OFFCURVE",
"571 33 CURVE",
"566 51 LINE",
"491 5 OFFCURVE",
"418 -47 OFFCURVE",
"418 -132 CURVE SMOOTH",
"418 -192 OFFCURVE",
"462 -236 OFFCURVE",
"518 -236 CURVE SMOOTH"
);
}
);
width = 798;
},
{
anchors = (
{
name = top;
position = "{391, 700}";
}
);
components = (
{
name = O;
}
);
layerId = "5A878C7E-547A-4951-B48F-676DBBC9B762";
paths = (
{
closed = 1;
nodes = (
"520 -200 OFFCURVE",
"567 -171 OFFCURVE",
"581 -138 CURVE",
"525 -98 LINE",
"514 -114 OFFCURVE",
"502 -123 OFFCURVE",
"488 -123 CURVE SMOOTH",
"466 -123 OFFCURVE",
"454 -108 OFFCURVE",
"454 -84 CURVE SMOOTH",
"454 -44 OFFCURVE",
"493 -3 OFFCURVE",
"570 40 CURVE",
"532 85 LINE",
"442 38 OFFCURVE",
"363 -16 OFFCURVE",
"363 -97 CURVE SMOOTH",
"363 -164 OFFCURVE",
"414 -200 OFFCURVE",
"472 -200 CURVE SMOOTH"
);
}
);
width = 782;
},
{
anchors = (
{
name = top;
position = "{417, 700}";
}
);
components = (
{
name = O;
}
);
layerId = "554F9022-F5DF-470A-8852-5D1AD00D5051";
paths = (
{
closed = 1;
nodes = (
"587 -220 OFFCURVE",
"634 -179 OFFCURVE",
"659 -133 CURVE",
"579 -74 LINE",
"570 -90 OFFCURVE",
"562 -97 OFFCURVE",
"549 -97 CURVE SMOOTH",
"535 -97 OFFCURVE",
"525 -84 OFFCURVE",
"525 -67 CURVE SMOOTH",
"525 -15 OFFCURVE",
"589 23 OFFCURVE",
"640 55 CURVE",
"608 104 LINE",
"488 48 OFFCURVE",
"399 -9 OFFCURVE",
"399 -103 CURVE SMOOTH",
"399 -170 OFFCURVE",
"447 -220 OFFCURVE",
"521 -220 CURVE SMOOTH"
);
}
);
width = 834;
},
{
anchors = (
{
name = top;
position = "{551, 700}";
}
);
components = (
{
name = O;
}
);
layerId = "649E0662-786D-44F6-8E8D-A6782F19FFAA";
paths = (
{
closed = 1;
nodes = (
"681 -200 OFFCURVE",
"725 -166 OFFCURVE",
"736 -138 CURVE",
"680 -98 LINE",
"672 -111 OFFCURVE",
"660 -123 OFFCURVE",
"643 -123 CURVE SMOOTH",
"622 -123 OFFCURVE",
"609 -108 OFFCURVE",
"609 -86 CURVE SMOOTH",
"609 -21 OFFCURVE",
"725 16 OFFCURVE",
"765 37 CURVE",
"744 91 LINE",
"665 61 OFFCURVE",
"518 0 OFFCURVE",
"518 -99 CURVE SMOOTH",
"518 -158 OFFCURVE",
"565 -200 OFFCURVE",
"627 -200 CURVE SMOOTH"
);
}
);
width = 1102;
},
{
anchors = (
{
name = top;
position = "{559, 700}";
}
);
components = (
{
name = O;
}
);
layerId = "9FF8E21A-ED06-4F66-AEDE-2CE647DC4B08";
paths = (
{
closed = 1;
nodes = (
"734 -236 OFFCURVE",
"768 -214 OFFCURVE",
"784 -182 CURVE",
"769 -169 LINE",
"754 -196 OFFCURVE",
"729 -214 OFFCURVE",
"694 -214 CURVE SMOOTH",
"650 -214 OFFCURVE",
"616 -180 OFFCURVE",
"616 -135 CURVE SMOOTH",
"616 -83 OFFCURVE",
"650 -23 OFFCURVE",
"792 44 CURVE",
"787 62 LINE",
"644 -5 OFFCURVE",
"594 -67 OFFCURVE",
"594 -138 CURVE SMOOTH",
"594 -192 OFFCURVE",
"638 -236 OFFCURVE",
"694 -236 CURVE SMOOTH"
);
}
);
width = 1118;
},
{
anchors = (
{
name = top;
position = "{577, 700}";
}
);
components = (
{
name = O;
}
);
layerId = "ED109265-B005-47B0-97BD-F1815082B32B";
paths = (
{
closed = 1;
nodes = (
"748 -220 OFFCURVE",
"792 -174 OFFCURVE",
"814 -133 CURVE",
"734 -74 LINE",
"728 -87 OFFCURVE",
"720 -97 OFFCURVE",
"704 -97 CURVE SMOOTH",
"691 -97 OFFCURVE",
"680 -84 OFFCURVE",
"680 -69 CURVE SMOOTH",
"680 8 OFFCURVE",
"821 42 OFFCURVE",
"835 52 CURVE",
"820 110 LINE",
"711 71 OFFCURVE",
"554 7 OFFCURVE",
"554 -105 CURVE SMOOTH",
"554 -164 OFFCURVE",
"598 -220 OFFCURVE",
"676 -220 CURVE SMOOTH"
);
}
);
width = 1154;
},
{
anchors = (
{
name = bottom;
position = "{577, 0}";
},
{
name = center;
position = "{577, 350}";
},
{
name = ogonek;
position = "{956, 10}";
},
{
name = top;
position = "{577, 700}";
},
{
name = topleft;
position = "{100, 700}";
},
{
name = topright;
position = "{1054, 700}";
}
);
associatedMasterId = "ED109265-B005-47B0-97BD-F1815082B32B";
components = (
{
name = O;
}
);
layerId = "A0B7E063-9F1E-4A43-B4A9-D70B94D6735C";
name = foreground;
paths = (
{
closed = 1;
nodes = (
"748 -220 OFFCURVE",
"792 -174 OFFCURVE",
"814 -133 CURVE",
"734 -74 LINE",
"728 -87 OFFCURVE",
"720 -97 OFFCURVE",
"704 -97 CURVE SMOOTH",
"691 -97 OFFCURVE",
"680 -84 OFFCURVE",
"680 -69 CURVE SMOOTH",
"680 8 OFFCURVE",
"821 42 OFFCURVE",
"835 52 CURVE",
"820 110 LINE",
"711 71 OFFCURVE",
"554 7 OFFCURVE",
"554 -105 CURVE SMOOTH",
"554 -164 OFFCURVE",
"598 -220 OFFCURVE",
"676 -220 CURVE SMOOTH"
);
}
);
width = 1154;
},
{
anchors = (
{
name = top;
position = "{394, 700}";
}
);
components = (
{
name = O;
}
);
layerId = "2B3ECD2C-4B3A-40C3-8F2B-A5E41B85E4DD";
paths = (
{
closed = 1;
nodes = (
"564 -221 OFFCURVE",
"597 -203 OFFCURVE",
"623 -170 CURVE",
"590 -146 LINE",
"574 -165 OFFCURVE",
"550 -178 OFFCURVE",
"521 -178 CURVE SMOOTH",
"482 -178 OFFCURVE",
"452 -152 OFFCURVE",
"452 -107 CURVE SMOOTH",
"452 -39 OFFCURVE",
"524 6 OFFCURVE",
"592 51 CURVE",
"564 76 LINE",
"482 22 OFFCURVE",
"404 -24 OFFCURVE",
"404 -111 CURVE SMOOTH",
"404 -177 OFFCURVE",
"455 -221 OFFCURVE",
"519 -221 CURVE SMOOTH"
);
}
);
width = 787;
}
);
leftKerningGroup = C;
rightKerningGroup = D;
unicode = 01EA;
},
{
color = 3;
glyphname = Oslash;
layers = (
{
anchors = (
{
name = bottom;
position = "{385, 0}";
},
{
name = top;
position = "{385, 700}";
}
);
components = (
{
name = O;
transform = "{1, 0, 0, 1, -1, 0}";
}
);
layerId = "5A878C7E-547A-4951-B48F-676DBBC9B762";
paths = (
{
closed = 1;
nodes = (
"717 694 LINE",
"649 741 LINE",
"60 20 LINE",
"123 -33 LINE"
);
}
);
width = 770;
},
{
anchors = (
{
name = bottom;
position = "{417, 0}";
},
{
name = top;
position = "{417, 700}";
}
);
components = (
{
name = O;
}
);
layerId = "554F9022-F5DF-470A-8852-5D1AD00D5051";
paths = (
{
closed = 1;
nodes = (
"745 694 LINE",
"677 741 LINE",
"88 20 LINE",
"151 -33 LINE"
);
}
);
width = 834;
},
{
anchors = (
{
name = bottom;
position = "{399, 0}";
},
{
name = top;
position = "{399, 700}";
}
);
components = (
{
name = O;
transform = "{1, 0, 0, 1, -1, 0}";
}
);
layerId = "CCD999A9-9CE8-4787-8FD2-D5D19514269E";
paths = (
{
closed = 1;
nodes = (
"703 704 LINE",
"684 718 LINE",
"95 -4 LINE",
"114 -18 LINE"
);
}
);
width = 798;
},
{
anchors = (
{
name = bottom;
position = "{565, 0}";
},
{
name = top;
position = "{565, 700}";
}
);
components = (
{
name = O;
transform = "{1, 0, 0, 1, 14, 0}";
}
);
layerId = "649E0662-786D-44F6-8E8D-A6782F19FFAA";
paths = (
{
closed = 1;
nodes = (
"1002 669 LINE",
"936 737 LINE",
"128 39 LINE",
"188 -34 LINE"
);
}
);
width = 1130;
},
{
anchors = (
{
name = bottom;
position = "{560, 0}";
},
{
name = top;
position = "{560, 700}";
}
);
components = (
{
name = O;
transform = "{1, 0, 0, 1, 1, 0}";
}
);
layerId = "9FF8E21A-ED06-4F66-AEDE-2CE647DC4B08";
paths = (
{
closed = 1;
nodes = (
"972 699 LINE",
"953 714 LINE",
"147 -5 LINE",
"165 -19 LINE"
);
}
);
width = 1119;
},
{
anchors = (
{
name = bottom;
position = "{597, 0}";
},
{
name = top;
position = "{597, 700}";
}
);
components = (
{
name = O;
transform = "{1, 0, 0, 1, 15, 0}";
}
);
layerId = "ED109265-B005-47B0-97BD-F1815082B32B";
paths = (
{
closed = 1;
nodes = (
"1030 669 LINE",
"964 737 LINE",
"156 39 LINE",
"216 -34 LINE"
);
}
);
width = 1194;
},
{
anchors = (
{
name = bottom;
position = "{597, 0}";
},
{
name = center;
position = "{592, 350}";
},
{
name = ogonek;
position = "{971, 10}";
},
{
name = top;
position = "{597, 700}";
},
{
name = topleft;
position = "{115, 700}";
},
{
name = topright;
position = "{1069, 700}";
}
);
associatedMasterId = "ED109265-B005-47B0-97BD-F1815082B32B";
components = (
{
name = O;
transform = "{1, 0, 0, 1, 15, 0}";
}
);
layerId = "4E434925-454A-4624-916D-8C3010F924AE";
name = foreground;
paths = (
{
closed = 1;
nodes = (
"1030 669 LINE",
"964 737 LINE",
"156 39 LINE",
"216 -34 LINE"
);
}
);
width = 1194;
},
{
anchors = (
{
name = bottom;
position = "{394, 0}";
},
{
name = top;
position = "{394, 700}";
}
);
components = (
{
name = O;
transform = "{1, 0, 0, 1, -1, 0}";
}
);
layerId = "2B3ECD2C-4B3A-40C3-8F2B-A5E41B85E4DD";
paths = (
{
closed = 1;
nodes = (
"705 693 LINE",
"671 725 LINE",
"80 2 LINE",
"114 -30 LINE"
);
}
);
width = 787;
}
);
leftKerningGroup = C;
rightKerningGroup = D;
unicode = 00D8;
},
{
color = 6;
glyphname = OE;
layers = (
{
anchors = (
{
name = bottom;
position = "{514, 0}";
},
{
name = top;
position = "{514, 700}";
}
);
layerId = "5A878C7E-547A-4951-B48F-676DBBC9B762";
paths = (
{
closed = 1;
nodes = (
"952 0 LINE",
"952 104 LINE",
"619 104 LINE",
"619 307 LINE",
"897 307 LINE",
"897 411 LINE",
"619 411 LINE",
"619 596 LINE",
"952 596 LINE",
"952 700 LINE",
"395 700 LINE SMOOTH",
"184.333 700 OFFCURVE",
"48 558 OFFCURVE",
"48 350 CURVE SMOOTH",
"48 140.667 OFFCURVE",
"175 0 OFFCURVE",
"375 0 CURVE SMOOTH"
);
},
{
closed = 1;
nodes = (
"158 502 OFFCURVE",
"246 596 OFFCURVE",
"398 596 CURVE SMOOTH",
"511 596 LINE",
"511 104 LINE",
"378 104 LINE SMOOTH",
"238 104 OFFCURVE",
"158 196.667 OFFCURVE",
"158 350 CURVE SMOOTH"
);
}
);
width = 1027;
},
{
anchors = (
{
name = bottom;
position = "{559, 0}";
},
{
name = top;
position = "{559, 700}";
}
);
layerId = "554F9022-F5DF-470A-8852-5D1AD00D5051";
paths = (
{
closed = 1;
nodes = (
"1070 0 LINE",
"1070 175 LINE",
"737 175 LINE",
"737 277 LINE",
"1015 277 LINE",
"1015 441 LINE",
"737 441 LINE",
"737 525 LINE",
"1070 525 LINE",
"1070 700 LINE",
"395 700 LINE SMOOTH",
"179 700 OFFCURVE",
"40 558 OFFCURVE",
"40 350 CURVE SMOOTH",
"40 140.667 OFFCURVE",
"169.667 0 OFFCURVE",
"375 0 CURVE SMOOTH"
);
},
{
closed = 1;
nodes = (
"258 452.667 OFFCURVE",
"312.333 516 OFFCURVE",
"407 516 CURVE SMOOTH",
"530 516 LINE",
"530 184 LINE",
"407 184 LINE SMOOTH",
"312.333 184 OFFCURVE",
"258 246 OFFCURVE",
"258 350 CURVE SMOOTH"
);
}
);
width = 1117;
},
{
anchors = (
{
name = bottom;
position = "{501, 0}";
},
{
name = top;
position = "{501, 700}";
}
);
layerId = "CCD999A9-9CE8-4787-8FD2-D5D19514269E";
paths = (
{
closed = 1;
nodes = (
"931 0 LINE",
"931 22 LINE",
"568 22 LINE",
"568 351 LINE",
"879 351 LINE",
"879 373 LINE",
"568 373 LINE",
"568 678 LINE",
"937 678 LINE",
"937 700 LINE",
"371 700 LINE SMOOTH",
"205.667 700 OFFCURVE",
"55 552.667 OFFCURVE",
"55 350 CURVE SMOOTH",
"55 148.667 OFFCURVE",
"210.667 0 OFFCURVE",
"380 0 CURVE SMOOTH"
);
},
{
closed = 1;
nodes = (
"78 536.667 OFFCURVE",
"223.667 678 OFFCURVE",
"377 678 CURVE SMOOTH",
"546 678 LINE",
"546 22 LINE",
"386 22 LINE SMOOTH",
"227.333 22 OFFCURVE",
"78 164.667 OFFCURVE",
"78 350 CURVE SMOOTH"
);
}
);
userData = {
com.schriftgestaltung.Glyphs.glyph.leftMetricsKey = O;
com.schriftgestaltung.Glyphs.glyph.rightMetricsKey = E;
};
width = 1002;
},
{
anchors = (
{
name = bottom;
position = "{734, 0}";
},
{
name = top;
position = "{734, 700}";
}
);
layerId = "649E0662-786D-44F6-8E8D-A6782F19FFAA";
paths = (
{
closed = 1;
nodes = (
"1312 0 LINE",
"1312 104 LINE",
"839 104 LINE",
"839 307 LINE",
"1257 307 LINE",
"1257 411 LINE",
"839 411 LINE",
"839 596 LINE",
"1312 596 LINE",
"1312 700 LINE",
"545 700 LINE SMOOTH",
"273 700 OFFCURVE",
"128 539 OFFCURVE",
"128 350 CURVE SMOOTH",
"128 158 OFFCURVE",
"265 0 OFFCURVE",
"525 0 CURVE SMOOTH"
);
},
{
closed = 1;
nodes = (
"238 478 OFFCURVE",
"345 596 OFFCURVE",
"548 596 CURVE SMOOTH",
"731 596 LINE",
"731 104 LINE",
"528 104 LINE SMOOTH",
"339 104 OFFCURVE",
"238 221 OFFCURVE",
"238 350 CURVE SMOOTH"
);
}
);
width = 1472;
},
{
anchors = (
{
name = bottom;
position = "{721, 0}";
},
{
name = top;
position = "{721, 700}";
}
);
layerId = "9FF8E21A-ED06-4F66-AEDE-2CE647DC4B08";
paths = (
{
closed = 1;
nodes = (
"1291 0 LINE",
"1291 22 LINE",
"788 22 LINE",
"788 351 LINE",
"1239 351 LINE",
"1239 373 LINE",
"788 373 LINE",
"788 678 LINE",
"1297 678 LINE",
"1297 700 LINE",
"521 700 LINE SMOOTH",
"297 700 OFFCURVE",
"135 554 OFFCURVE",
"135 350 CURVE SMOOTH",
"135 146 OFFCURVE",
"301 0 OFFCURVE",
"530 0 CURVE SMOOTH"
);
},
{
closed = 1;
nodes = (
"158 541 OFFCURVE",
"310 678 OFFCURVE",
"521 678 CURVE SMOOTH",
"766 678 LINE",
"766 22 LINE",
"530 22 LINE SMOOTH",
"314 22 OFFCURVE",
"158 159 OFFCURVE",
"158 350 CURVE SMOOTH"
);
}
);
userData = {
com.schriftgestaltung.Glyphs.glyph.leftMetricsKey = O;
com.schriftgestaltung.Glyphs.glyph.rightMetricsKey = E;
};
width = 1447;
},
{
anchors = (
{
name = bottom;
position = "{779, 0}";
},
{
name = top;
position = "{779, 700}";
}
);
layerId = "ED109265-B005-47B0-97BD-F1815082B32B";
paths = (
{
closed = 1;
nodes = (
"1430 0 LINE",
"1430 175 LINE",
"957 175 LINE",
"957 277 LINE",
"1375 277 LINE",
"1375 441 LINE",
"957 441 LINE",
"957 525 LINE",
"1430 525 LINE",
"1430 700 LINE",
"545 700 LINE SMOOTH",
"268 700 OFFCURVE",
"120 539 OFFCURVE",
"120 350 CURVE SMOOTH",
"120 158 OFFCURVE",
"260 0 OFFCURVE",
"525 0 CURVE SMOOTH"
);
},
{
closed = 1;
nodes = (
"338 429 OFFCURVE",
"412 516 OFFCURVE",
"557 516 CURVE SMOOTH",
"750 516 LINE",
"750 184 LINE",
"557 184 LINE SMOOTH",
"413 184 OFFCURVE",
"338 270 OFFCURVE",
"338 350 CURVE SMOOTH"
);
}
);
width = 1562;
},
{
anchors = (
{
name = bottom;
position = "{505, 0}";
},
{
name = top;
position = "{505, 700}";
}
);
layerId = "2B3ECD2C-4B3A-40C3-8F2B-A5E41B85E4DD";
paths = (
{
closed = 1;
nodes = (
"935 0 LINE",
"935 50 LINE",
"582 50 LINE",
"582 336 LINE",
"882 336 LINE",
"882 386 LINE",
"582 386 LINE",
"582 650 LINE",
"939 650 LINE",
"939 700 LINE",
"376 700 LINE SMOOTH",
"196 700 OFFCURVE",
"50 554 OFFCURVE",
"50 350 CURVE SMOOTH",
"50 146 OFFCURVE",
"196 0 OFFCURVE",
"376 0 CURVE SMOOTH"
);
},
{
closed = 1;
nodes = (
"103 524.667 OFFCURVE",
"229 650 OFFCURVE",
"381 650 CURVE SMOOTH",
"532 650 LINE",
"532 50 LINE",
"381 50 LINE SMOOTH",
"229 50 OFFCURVE",
"103 175.333 OFFCURVE",
"103 350 CURVE SMOOTH"
);
}
);
userData = {
com.schriftgestaltung.Glyphs.glyph.leftMetricsKey = O;
com.schriftgestaltung.Glyphs.glyph.rightMetricsKey = E;
};
width = 1009;
}
);
leftKerningGroup = C;
leftMetricsKey = O;
rightKerningGroup = E;
rightMetricsKey = E;
unicode = 0152;
},
{
color = 6;
glyphname = P;
layers = (
{
anchors = (
{
name = bottom;
position = "{317, 0}";
},
{
name = top;
position = "{317, 700}";
}
);
layerId = "5A878C7E-547A-4951-B48F-676DBBC9B762";
paths = (
{
closed = 1;
nodes = (
"206 0 LINE",
"206 268 LINE",
"383 268 LINE SMOOTH",
"496.333 268 OFFCURVE",
"589 365 OFFCURVE",
"589 485 CURVE SMOOTH",
"589 605 OFFCURVE",
"496.333 700 OFFCURVE",
"383 700 CURVE SMOOTH",
"98 700 LINE",
"98 0 LINE"
);
},
{
closed = 1;
nodes = (
"206 596 LINE",
"381 596 LINE SMOOTH",
"434.333 596 OFFCURVE",
"479 546.333 OFFCURVE",
"479 485 CURVE SMOOTH",
"479 423.667 OFFCURVE",
"434.333 372 OFFCURVE",
"381 372 CURVE SMOOTH",
"206 372 LINE"
);
}
);
width = 634;
},
{
anchors = (
{
name = bottom;
position = "{342, 0}";
},
{
name = top;
position = "{342, 700}";
}
);
layerId = "554F9022-F5DF-470A-8852-5D1AD00D5051";
paths = (
{
closed = 1;
nodes = (
"296 0 LINE",
"296 208 LINE",
"395 208 LINE SMOOTH",
"539 208 OFFCURVE",
"643 313.333 OFFCURVE",
"643 460 CURVE SMOOTH",
"643 600 OFFCURVE",
"539 700 OFFCURVE",
"395 700 CURVE SMOOTH",
"80 700 LINE",
"80 0 LINE"
);
},
{
closed = 1;
nodes = (
"292 516 LINE",
"355 516 LINE SMOOTH",
"393.667 516 OFFCURVE",
"421 497.333 OFFCURVE",
"421 456 CURVE SMOOTH",
"421 414.667 OFFCURVE",
"393.667 392 OFFCURVE",
"355 392 CURVE SMOOTH",
"292 392 LINE"
);
}
);
width = 683;
},
{
anchors = (
{
name = bottom;
position = "{300, 0}";
},
{
name = top;
position = "{300, 700}";
}
);
layerId = "CCD999A9-9CE8-4787-8FD2-D5D19514269E";
paths = (
{
closed = 1;
nodes = (
"132 0 LINE",
"132 291 LINE",
"361 291 LINE SMOOTH",
"471.667 291 OFFCURVE",
"545 379 OFFCURVE",
"545 507 CURVE SMOOTH",
"545 621.667 OFFCURVE",
"471.667 700 OFFCURVE",
"361 700 CURVE SMOOTH",
"110 700 LINE",
"110 0 LINE"
);
},
{
closed = 1;
nodes = (
"132 678 LINE",
"367 678 LINE SMOOTH",
"460.333 678 OFFCURVE",
"522 607 OFFCURVE",
"522 507 CURVE SMOOTH",
"522 392.333 OFFCURVE",
"460.333 313 OFFCURVE",
"367 313 CURVE SMOOTH",
"132 313 LINE"
);
}
);
userData = {
com.schriftgestaltung.Glyphs.glyph.leftMetricsKey = H;
};
width = 600;
},
{
anchors = (
{
name = bottom;
position = "{474, 0}";
},
{
name = top;
position = "{474, 700}";
}
);
layerId = "649E0662-786D-44F6-8E8D-A6782F19FFAA";
paths = (
{
closed = 1;
nodes = (
"290 0 LINE",
"290 258 LINE",
"571 258 LINE SMOOTH",
"704 258 OFFCURVE",
"818 358 OFFCURVE",
"818 485 CURVE SMOOTH",
"818 605 OFFCURVE",
"714 700 OFFCURVE",
"591 700 CURVE SMOOTH",
"182 700 LINE",
"182 0 LINE"
);
},
{
closed = 1;
nodes = (
"290 596 LINE",
"561 596 LINE SMOOTH",
"637 596 OFFCURVE",
"703 546 OFFCURVE",
"703 485 CURVE SMOOTH",
"703 418 OFFCURVE",
"637 362 OFFCURVE",
"561 362 CURVE SMOOTH",
"290 362 LINE"
);
}
);
width = 953;
},
{
anchors = (
{
name = bottom;
position = "{457, 0}";
},
{
name = top;
position = "{457, 700}";
}
);
layerId = "9FF8E21A-ED06-4F66-AEDE-2CE647DC4B08";
paths = (
{
closed = 1;
nodes = (
"216 0 LINE",
"216 281 LINE",
"553 281 LINE SMOOTH",
"694 281 OFFCURVE",
"774 372 OFFCURVE",
"774 507 CURVE SMOOTH",
"774 622 OFFCURVE",
"694 700 OFFCURVE",
"554 700 CURVE SMOOTH",
"194 700 LINE",
"194 0 LINE"
);
},
{
closed = 1;
nodes = (
"216 678 LINE",
"547 678 LINE SMOOTH",
"684 678 OFFCURVE",
"751 615 OFFCURVE",
"751 507 CURVE SMOOTH",
"751 382 OFFCURVE",
"683 303 OFFCURVE",
"547 303 CURVE SMOOTH",
"216 303 LINE"
);
}
);
userData = {
com.schriftgestaltung.Glyphs.glyph.leftMetricsKey = H;
};
width = 919;
},
{
anchors = (
{
name = bottom;
position = "{499, 0}";
},
{
name = top;
position = "{499, 700}";
}
);
layerId = "ED109265-B005-47B0-97BD-F1815082B32B";
paths = (
{
closed = 1;
nodes = (
"380 0 LINE",
"380 198 LINE",
"583 198 LINE SMOOTH",
"747 198 OFFCURVE",
"872 307 OFFCURVE",
"872 460 CURVE SMOOTH",
"872 600 OFFCURVE",
"756 700 OFFCURVE",
"603 700 CURVE SMOOTH",
"164 700 LINE",
"164 0 LINE"
);
},
{
closed = 1;
nodes = (
"376 516 LINE",
"535 516 LINE SMOOTH",
"596 516 OFFCURVE",
"645 497 OFFCURVE",
"645 456 CURVE SMOOTH",
"645 409 OFFCURVE",
"596 382 OFFCURVE",
"535 382 CURVE SMOOTH",
"376 382 LINE"
);
}
);
width = 1002;
},
{
anchors = (
{
name = bottom;
position = "{306, 0}";
},
{
name = top;
position = "{306, 700}";
}
);
layerId = "2B3ECD2C-4B3A-40C3-8F2B-A5E41B85E4DD";
paths = (
{
closed = 1;
nodes = (
"158 0 LINE",
"158 283 LINE",
"377 283 LINE SMOOTH",
"483.667 283 OFFCURVE",
"561 372.667 OFFCURVE",
"561 498 CURVE SMOOTH",
"561 615.333 OFFCURVE",
"483.667 700 OFFCURVE",
"377 700 CURVE SMOOTH",
"108 700 LINE",
"108 0 LINE"
);
},
{
closed = 1;
nodes = (
"158 650 LINE",
"386 650 LINE SMOOTH",
"456.667 650 OFFCURVE",
"508 586.667 OFFCURVE",
"508 500 CURVE SMOOTH",
"508 402.667 OFFCURVE",
"456.667 333 OFFCURVE",
"386 333 CURVE SMOOTH",
"158 333 LINE"
);
}
);
userData = {
com.schriftgestaltung.Glyphs.glyph.leftMetricsKey = H;
};
width = 611;
}
);
leftKerningGroup = H;
leftMetricsKey = H;
rightKerningGroup = P;
unicode = 0050;
},
{
color = 6;
glyphname = Thorn;
layers = (
{
anchors = (
{
name = bottom;
position = "{317, 0}";
},
{
name = top;
position = "{317, 700}";
}
);
layerId = "5A878C7E-547A-4951-B48F-676DBBC9B762";
paths = (
{
closed = 1;
nodes = (
"206 0 LINE",
"206 141 LINE",
"383 141 LINE SMOOTH",
"496.333 141 OFFCURVE",
"589 238 OFFCURVE",
"589 358 CURVE SMOOTH",
"589 478 OFFCURVE",
"496.333 573 OFFCURVE",
"383 573 CURVE SMOOTH",
"206 573 LINE",
"206 700 LINE",
"98 700 LINE",
"98 0 LINE"
);
},
{
closed = 1;
nodes = (
"206 469 LINE",
"381 469 LINE SMOOTH",
"434.333 469 OFFCURVE",
"479 419.333 OFFCURVE",
"479 358 CURVE SMOOTH",
"479 296.667 OFFCURVE",
"434.333 245 OFFCURVE",
"381 245 CURVE SMOOTH",
"206 245 LINE"
);
}
);
width = 634;
},
{
anchors = (
{
name = bottom;
position = "{342, 0}";
},
{
name = top;
position = "{342, 700}";
}
);
layerId = "554F9022-F5DF-470A-8852-5D1AD00D5051";
paths = (
{
closed = 1;
nodes = (
"296 0 LINE",
"296 108 LINE",
"395 108 LINE SMOOTH",
"539 108 OFFCURVE",
"643 213.333 OFFCURVE",
"643 360 CURVE SMOOTH",
"643 500 OFFCURVE",
"539 600 OFFCURVE",
"395 600 CURVE SMOOTH",
"296 600 LINE",
"296 700 LINE",
"80 700 LINE",
"80 0 LINE"
);
},
{
closed = 1;
nodes = (
"296 416 LINE",
"355 416 LINE SMOOTH",
"393.667 416 OFFCURVE",
"421 397.333 OFFCURVE",
"421 356 CURVE SMOOTH",
"421 314.667 OFFCURVE",
"393.667 292 OFFCURVE",
"355 292 CURVE SMOOTH",
"296 292 LINE"
);
}
);
width = 683;
},
{
anchors = (
{
name = bottom;
position = "{283, 0}";
},
{
name = top;
position = "{283, 700}";
}
);
layerId = "CCD999A9-9CE8-4787-8FD2-D5D19514269E";
paths = (
{
closed = 1;
nodes = (
"132 0 LINE",
"132 171 LINE",
"328 171 LINE SMOOTH",
"434.667 171 OFFCURVE",
"511 254 OFFCURVE",
"511 358 CURVE SMOOTH",
"511 470 OFFCURVE",
"435.667 543 OFFCURVE",
"329 543 CURVE SMOOTH",
"132 543 LINE",
"132 700 LINE",
"110 700 LINE",
"110 0 LINE"
);
},
{
closed = 1;
nodes = (
"132 521 LINE",
"327 521 LINE SMOOTH",
"433.667 521 OFFCURVE",
"489 454 OFFCURVE",
"489 358 CURVE SMOOTH",
"489 272.667 OFFCURVE",
"429.667 193 OFFCURVE",
"327 193 CURVE SMOOTH",
"132 193 LINE"
);
}
);
userData = {
com.schriftgestaltung.Glyphs.glyph.leftMetricsKey = H;
com.schriftgestaltung.Glyphs.glyph.rightMetricsKey = P;
};
width = 566;
},
{
anchors = (
{
name = bottom;
position = "{481, 0}";
},
{
name = top;
position = "{481, 700}";
}
);
layerId = "649E0662-786D-44F6-8E8D-A6782F19FFAA";
paths = (
{
closed = 1;
nodes = (
"290 0 LINE",
"290 141 LINE",
"588 141 LINE SMOOTH",
"739 141 OFFCURVE",
"833 238 OFFCURVE",
"833 358 CURVE SMOOTH",
"833 498 OFFCURVE",
"739 573 OFFCURVE",
"588 573 CURVE SMOOTH",
"290 573 LINE",
"290 700 LINE",
"182 700 LINE",
"182 0 LINE"
);
},
{
closed = 1;
nodes = (
"290 469 LINE",
"601 469 LINE SMOOTH",
"664 469 OFFCURVE",
"718 419 OFFCURVE",
"718 358 CURVE SMOOTH",
"718 295 OFFCURVE",
"664 245 OFFCURVE",
"601 245 CURVE SMOOTH",
"290 245 LINE"
);
}
);
width = 968;
},
{
anchors = (
{
name = bottom;
position = "{447, 0}";
},
{
name = top;
position = "{447, 700}";
}
);
layerId = "9FF8E21A-ED06-4F66-AEDE-2CE647DC4B08";
paths = (
{
closed = 1;
nodes = (
"216 0 LINE",
"216 171 LINE",
"533 171 LINE SMOOTH",
"676 171 OFFCURVE",
"755 238 OFFCURVE",
"755 358 CURVE SMOOTH",
"755 477 OFFCURVE",
"675 543 OFFCURVE",
"534 543 CURVE SMOOTH",
"216 543 LINE",
"216 700 LINE",
"194 700 LINE",
"194 0 LINE"
);
},
{
closed = 1;
nodes = (
"216 521 LINE",
"547 521 LINE SMOOTH",
"666 521 OFFCURVE",
"732 463 OFFCURVE",
"732 358 CURVE SMOOTH",
"732 251 OFFCURVE",
"666 193 OFFCURVE",
"547 193 CURVE SMOOTH",
"216 193 LINE"
);
}
);
userData = {
com.schriftgestaltung.Glyphs.glyph.leftMetricsKey = H;
com.schriftgestaltung.Glyphs.glyph.rightMetricsKey = P;
};
width = 900;
},
{
anchors = (
{
name = bottom;
position = "{506, 0}";
},
{
name = top;
position = "{506, 700}";
}
);
layerId = "ED109265-B005-47B0-97BD-F1815082B32B";
paths = (
{
closed = 1;
nodes = (
"380 0 LINE",
"380 108 LINE",
"600 108 LINE SMOOTH",
"781 108 OFFCURVE",
"887 213 OFFCURVE",
"887 360 CURVE SMOOTH",
"887 520 OFFCURVE",
"781 600 OFFCURVE",
"600 600 CURVE SMOOTH",
"380 600 LINE",
"380 700 LINE",
"164 700 LINE",
"164 0 LINE"
);
},
{
closed = 1;
nodes = (
"380 416 LINE",
"575 416 LINE SMOOTH",
"623 416 OFFCURVE",
"660 397 OFFCURVE",
"660 356 CURVE SMOOTH",
"660 313 OFFCURVE",
"623 292 OFFCURVE",
"575 292 CURVE SMOOTH",
"380 292 LINE"
);
}
);
width = 1017;
},
{
anchors = (
{
name = bottom;
position = "{295, 0}";
},
{
name = top;
position = "{295, 700}";
}
);
layerId = "2B3ECD2C-4B3A-40C3-8F2B-A5E41B85E4DD";
paths = (
{
closed = 1;
nodes = (
"158 0 LINE",
"158 161 LINE",
"348 161 LINE SMOOTH",
"457.333 161 OFFCURVE",
"539 248.667 OFFCURVE",
"539 358 CURVE SMOOTH",
"539 467.333 OFFCURVE",
"457 553 OFFCURVE",
"349 553 CURVE SMOOTH",
"158 553 LINE",
"158 700 LINE",
"108 700 LINE",
"108 0 LINE"
);
},
{
closed = 1;
nodes = (
"158 499 LINE",
"347 499 LINE SMOOTH",
"432.333 499 OFFCURVE",
"486 436.667 OFFCURVE",
"486 358 CURVE SMOOTH",
"486 280.667 OFFCURVE",
"435 215 OFFCURVE",
"347 215 CURVE SMOOTH",
"158 215 LINE"
);
}
);
userData = {
com.schriftgestaltung.Glyphs.glyph.leftMetricsKey = H;
com.schriftgestaltung.Glyphs.glyph.rightMetricsKey = P;
};
width = 589;
}
);
leftKerningGroup = H;
leftMetricsKey = H;
rightKerningGroup = P;
rightMetricsKey = P;
unicode = 00DE;
},
{
color = 3;
glyphname = Q;
layers = (
{
anchors = (
{
name = bottom;
position = "{391, 0}";
},
{
name = top;
position = "{391, 700}";
}
);
components = (
{
name = O;
}
);
layerId = "5A878C7E-547A-4951-B48F-676DBBC9B762";
paths = (
{
closed = 1;
nodes = (
"699 -48 LINE",
"437 296 LINE",
"348 237 LINE",
"613 -110 LINE"
);
}
);
width = 782;
},
{
anchors = (
{
name = bottom;
position = "{417, 0}";
},
{
name = top;
position = "{417, 700}";
}
);
components = (
{
name = O;
}
);
layerId = "554F9022-F5DF-470A-8852-5D1AD00D5051";
paths = (
{
closed = 1;
nodes = (
"765 1 LINE",
"498 372 LINE",
"347 264 LINE",
"617 -110 LINE"
);
}
);
width = 834;
},
{
anchors = (
{
name = bottom;
position = "{399, 0}";
},
{
name = top;
position = "{399, 700}";
}
);
components = (
{
name = O;
}
);
layerId = "CCD999A9-9CE8-4787-8FD2-D5D19514269E";
paths = (
{
closed = 1;
nodes = (
"669 -65 LINE",
"416 272 LINE",
"398 260 LINE",
"652 -78 LINE"
);
}
);
userData = {
com.schriftgestaltung.Glyphs.glyph.leftMetricsKey = O;
com.schriftgestaltung.Glyphs.glyph.rightMetricsKey = O;
};
width = 798;
},
{
anchors = (
{
name = bottom;
position = "{551, 0}";
},
{
name = top;
position = "{551, 700}";
}
);
components = (
{
name = O;
}
);
layerId = "649E0662-786D-44F6-8E8D-A6782F19FFAA";
paths = (
{
closed = 1;
nodes = (
"882 -58 LINE",
"620 286 LINE",
"531 237 LINE",
"796 -110 LINE"
);
}
);
width = 1102;
},
{
anchors = (
{
name = bottom;
position = "{559, 0}";
},
{
name = top;
position = "{559, 700}";
}
);
components = (
{
name = O;
}
);
layerId = "9FF8E21A-ED06-4F66-AEDE-2CE647DC4B08";
paths = (
{
closed = 1;
nodes = (
"860 -74 LINE",
"607 265 LINE",
"581 260 LINE",
"835 -78 LINE"
);
}
);
userData = {
com.schriftgestaltung.Glyphs.glyph.leftMetricsKey = O;
com.schriftgestaltung.Glyphs.glyph.rightMetricsKey = O;
};
width = 1118;
},
{
anchors = (
{
name = bottom;
position = "{577, 0}";
},
{
name = top;
position = "{577, 700}";
}
);
components = (
{
name = O;
}
);
layerId = "ED109265-B005-47B0-97BD-F1815082B32B";
paths = (
{
closed = 1;
nodes = (
"948 -9 LINE",
"681 362 LINE",
"530 264 LINE",
"800 -110 LINE"
);
}
);
userData = {
com.schriftgestaltung.Glyphs.glyph.leftMetricsKey = O;
com.schriftgestaltung.Glyphs.glyph.rightMetricsKey = O;
};
width = 1154;
},
{
anchors = (
{
name = bottom;
position = "{577, 0}";
},
{
name = center;
position = "{577, 350}";
},
{
name = ogonek;
position = "{956, 10}";
},
{
name = top;
position = "{577, 700}";
},
{
name = topleft;
position = "{100, 700}";
},
{
name = topright;
position = "{1054, 700}";
}
);
associatedMasterId = "ED109265-B005-47B0-97BD-F1815082B32B";
components = (
{
name = O;
}
);
layerId = "9FB227B1-0BF0-4403-8E76-32280D322162";
name = foreground;
paths = (
{
closed = 1;
nodes = (
"948 -9 LINE",
"681 362 LINE",
"530 264 LINE",
"800 -110 LINE"
);
}
);
userData = {
com.schriftgestaltung.Glyphs.glyph.leftMetricsKey = O;
com.schriftgestaltung.Glyphs.glyph.rightMetricsKey = O;
};
width = 1154;
},
{
anchors = (
{
name = bottom;
position = "{394, 0}";
},
{
name = top;
position = "{394, 700}";
}
);
components = (
{
name = O;
}
);
layerId = "2B3ECD2C-4B3A-40C3-8F2B-A5E41B85E4DD";
paths = (
{
closed = 1;
nodes = (
"699 -67 LINE",
"450 258 LINE",
"411 231 LINE",
"659 -96 LINE"
);
}
);
userData = {
com.schriftgestaltung.Glyphs.glyph.leftMetricsKey = O;
com.schriftgestaltung.Glyphs.glyph.rightMetricsKey = O;
};
width = 787;
}
);
leftKerningGroup = C;
rightKerningGroup = D;
unicode = 0051;
},
{
color = 6;
glyphname = R;
layers = (
{
anchors = (
{
name = bottom;
position = "{348, 0}";
},
{
name = top;
position = "{318, 700}";
}
);
layerId = "5A878C7E-547A-4951-B48F-676DBBC9B762";
paths = (
{
closed = 1;
nodes = (
"206 0 LINE",
"206 263 LINE",
"396 263 LINE SMOOTH",
"517.333 263 OFFCURVE",
"617 362.333 OFFCURVE",
"617 477 CURVE SMOOTH",
"617 603.667 OFFCURVE",
"516 700 OFFCURVE",
"396 700 CURVE SMOOTH",
"98 700 LINE",
"98 0 LINE"
);
},
{
closed = 1;
nodes = (
"645 -1 LINE",
"447 341 LINE",
"336 316 LINE",
"514 0 LINE"
);
},
{
closed = 1;
nodes = (
"206 596 LINE",
"378 596 LINE SMOOTH",
"452.667 596 OFFCURVE",
"507 547.333 OFFCURVE",
"507 478 CURVE SMOOTH",
"507 415.333 OFFCURVE",
"464.667 367 OFFCURVE",
"406 367 CURVE SMOOTH",
"206 367 LINE"
);
}
);
width = 695;
},
{
anchors = (
{
name = bottom;
position = "{354, 0}";
},
{
name = top;
position = "{344, 700}";
}
);
layerId = "554F9022-F5DF-470A-8852-5D1AD00D5051";
paths = (
{
closed = 1;
nodes = (
"282 0 LINE",
"282 233 LINE",
"408 233 LINE SMOOTH",
"554.667 233 OFFCURVE",
"659 331.667 OFFCURVE",
"659 477 CURVE SMOOTH",
"659 606.333 OFFCURVE",
"554.667 700 OFFCURVE",
"408 700 CURVE SMOOTH",
"80 700 LINE",
"80 0 LINE"
);
},
{
closed = 1;
nodes = (
"688 0 LINE",
"490 341 LINE",
"269 316 LINE",
"447 0 LINE"
);
},
{
closed = 1;
nodes = (
"282 530 LINE",
"370 530 LINE SMOOTH",
"423.333 530 OFFCURVE",
"449 504 OFFCURVE",
"449 460 CURVE SMOOTH",
"449 412 OFFCURVE",
"423.333 383 OFFCURVE",
"374 383 CURVE SMOOTH",
"282 383 LINE"
);
}
);
width = 707;
},
{
anchors = (
{
name = bottom;
position = "{305, 0}";
},
{
name = top;
position = "{295, 700}";
}
);
layerId = "CCD999A9-9CE8-4787-8FD2-D5D19514269E";
paths = (
{
closed = 1;
nodes = (
"132 0 LINE",
"132 291 LINE",
"361 291 LINE SMOOTH",
"471.667 291 OFFCURVE",
"545 379 OFFCURVE",
"545 507 CURVE SMOOTH",
"545 621.667 OFFCURVE",
"471.667 700 OFFCURVE",
"361 700 CURVE SMOOTH",
"110 700 LINE",
"110 0 LINE"
);
},
{
closed = 1;
nodes = (
"569 0 LINE",
"391 305 LINE",
"368 298 LINE",
"543 0 LINE"
);
},
{
closed = 1;
nodes = (
"132 678 LINE",
"367 678 LINE SMOOTH",
"460.333 678 OFFCURVE",
"522 607 OFFCURVE",
"522 507 CURVE SMOOTH",
"522 392.333 OFFCURVE",
"460.333 313 OFFCURVE",
"367 313 CURVE SMOOTH",
"132 313 LINE"
);
}
);
userData = {
com.schriftgestaltung.Glyphs.glyph.leftMetricsKey = H;
};
width = 609;
},
{
anchors = (
{
name = bottom;
position = "{497, 0}";
},
{
name = top;
position = "{467, 690}";
}
);
layerId = "649E0662-786D-44F6-8E8D-A6782F19FFAA";
paths = (
{
closed = 1;
nodes = (
"290 0 LINE",
"290 258 LINE",
"571 258 LINE SMOOTH",
"704 258 OFFCURVE",
"818 358 OFFCURVE",
"818 485 CURVE SMOOTH",
"818 605 OFFCURVE",
"714 700 OFFCURVE",
"591 700 CURVE SMOOTH",
"182 700 LINE",
"182 0 LINE"
);
},
{
closed = 1;
nodes = (
"859 -1 LINE",
"601 341 LINE",
"486 316 LINE",
"724 0 LINE"
);
},
{
closed = 1;
nodes = (
"290 596 LINE",
"561 596 LINE SMOOTH",
"637 596 OFFCURVE",
"703 546 OFFCURVE",
"703 485 CURVE SMOOTH",
"703 418 OFFCURVE",
"637 362 OFFCURVE",
"561 362 CURVE SMOOTH",
"290 362 LINE"
);
}
);
width = 1011;
},
{
anchors = (
{
name = bottom;
position = "{454, 0}";
},
{
name = top;
position = "{444, 700}";
}
);
layerId = "9FF8E21A-ED06-4F66-AEDE-2CE647DC4B08";
paths = (
{
closed = 1;
nodes = (
"216 0 LINE",
"216 286 LINE",
"528 286 LINE SMOOTH",
"661 286 OFFCURVE",
"746 374 OFFCURVE",
"746 514 CURVE SMOOTH",
"746 622 OFFCURVE",
"667 700 OFFCURVE",
"556 700 CURVE SMOOTH",
"194 700 LINE",
"194 0 LINE"
);
},
{
closed = 1;
nodes = (
"783 0 LINE",
"545 301 LINE",
"518 298 LINE",
"754 0 LINE"
);
},
{
closed = 1;
nodes = (
"216 678 LINE",
"550 678 LINE SMOOTH",
"653 678 OFFCURVE",
"723 606 OFFCURVE",
"723 513 CURVE SMOOTH",
"723 389 OFFCURVE",
"647 308 OFFCURVE",
"522 308 CURVE SMOOTH",
"216 308 LINE"
);
}
);
userData = {
com.schriftgestaltung.Glyphs.glyph.leftMetricsKey = H;
};
width = 925;
},
{
anchors = (
{
name = bottom;
position = "{503, 0}";
},
{
name = top;
position = "{493, 700}";
}
);
layerId = "ED109265-B005-47B0-97BD-F1815082B32B";
paths = (
{
closed = 1;
nodes = (
"366 0 LINE",
"366 228 LINE",
"583 228 LINE SMOOTH",
"742 228 OFFCURVE",
"860 328 OFFCURVE",
"860 470 CURVE SMOOTH",
"860 618 OFFCURVE",
"767 700 OFFCURVE",
"568 700 CURVE SMOOTH",
"164 700 LINE",
"164 0 LINE"
);
},
{
closed = 1;
nodes = (
"902 0 LINE",
"644 341 LINE",
"419 316 LINE",
"657 0 LINE"
);
},
{
closed = 1;
nodes = (
"366 530 LINE",
"553 530 LINE SMOOTH",
"603 530 OFFCURVE",
"645 507 OFFCURVE",
"645 454 CURVE SMOOTH",
"645 401 OFFCURVE",
"603 378 OFFCURVE",
"556 378 CURVE SMOOTH",
"366 378 LINE"
);
}
);
width = 1023;
},
{
anchors = (
{
name = bottom;
position = "{314, 0}";
},
{
name = top;
position = "{304, 700}";
}
);
layerId = "2B3ECD2C-4B3A-40C3-8F2B-A5E41B85E4DD";
paths = (
{
closed = 1;
nodes = (
"158 0 LINE",
"158 288 LINE",
"370 288 LINE SMOOTH",
"488.667 288 OFFCURVE",
"575 369 OFFCURVE",
"575 489 CURVE SMOOTH",
"575 609 OFFCURVE",
"484 700 OFFCURVE",
"360 700 CURVE SMOOTH",
"108 700 LINE",
"108 0 LINE"
);
},
{
closed = 1;
nodes = (
"602 0 LINE",
"412 327 LINE",
"370 301 LINE",
"544 0 LINE"
);
},
{
closed = 1;
nodes = (
"158 650 LINE",
"357 650 LINE SMOOTH",
"453 650 OFFCURVE",
"522 581.667 OFFCURVE",
"522 487 CURVE SMOOTH",
"522 400.333 OFFCURVE",
"461.333 338 OFFCURVE",
"376 338 CURVE SMOOTH",
"158 338 LINE"
);
}
);
userData = {
com.schriftgestaltung.Glyphs.glyph.leftMetricsKey = H;
};
width = 627;
}
);
leftKerningGroup = H;
leftMetricsKey = H;
rightKerningGroup = R;
unicode = 0052;
},
{
color = 6;
glyphname = S;
layers = (
{
anchors = (
{
name = bottom;
position = "{332, 0}";
},
{
name = top;
position = "{332, 700}";
}
);
layerId = "5A878C7E-547A-4951-B48F-676DBBC9B762";
paths = (
{
closed = 1;
nodes = (
"471.333 -10 OFFCURVE",
"569 74.667 OFFCURVE",
"569 208 CURVE SMOOTH",
"569 304 OFFCURVE",
"483.667 374.333 OFFCURVE",
"337 405 CURVE SMOOTH",
"231.667 426.333 OFFCURVE",
"193 459.667 OFFCURVE",
"193 517 CURVE SMOOTH",
"193 574.333 OFFCURVE",
"245.667 613 OFFCURVE",
"323 613 CURVE SMOOTH",
"391 613 OFFCURVE",
"447 577.333 OFFCURVE",
"487 512 CURVE",
"563 587 LINE",
"516.333 667 OFFCURVE",
"434 710 OFFCURVE",
"326 710 CURVE SMOOTH",
"190 710 OFFCURVE",
"85 627.333 OFFCURVE",
"85 514 CURVE SMOOTH",
"85 399.333 OFFCURVE",
"155 329 OFFCURVE",
"299 301 CURVE SMOOTH",
"411 279.667 OFFCURVE",
"461 241.333 OFFCURVE",
"461 180 CURVE SMOOTH",
"461 125.333 OFFCURVE",
"401 87 OFFCURVE",
"325 87 CURVE SMOOTH",
"242.333 87 OFFCURVE",
"189.333 117.667 OFFCURVE",
"124 211 CURVE",
"50 126 LINE",
"112.667 35.333 OFFCURVE",
"199.333 -10 OFFCURVE",
"314 -10 CURVE SMOOTH"
);
}
);
width = 624;
},
{
anchors = (
{
name = bottom;
position = "{341, 0}";
},
{
name = top;
position = "{331, 700}";
}
);
layerId = "554F9022-F5DF-470A-8852-5D1AD00D5051";
paths = (
{
closed = 1;
nodes = (
"485 -10 OFFCURVE",
"612 70.667 OFFCURVE",
"612 224 CURVE SMOOTH",
"612 369.333 OFFCURVE",
"505.667 427 OFFCURVE",
"359 455 CURVE SMOOTH",
"327 461 OFFCURVE",
"254 472 OFFCURVE",
"254 506 CURVE SMOOTH",
"254 531.333 OFFCURVE",
"281.413 541 OFFCURVE",
"327 541 CURVE SMOOTH",
"377.057 541 OFFCURVE",
"429.38 522.256 OFFCURVE",
"473 480 CURVE",
"599 601 LINE",
"547 673 OFFCURVE",
"473.333 720 OFFCURVE",
"316 720 CURVE SMOOTH",
"172 720 OFFCURVE",
"35 630.333 OFFCURVE",
"35 493 CURVE SMOOTH",
"35 371.667 OFFCURVE",
"112.667 303.333 OFFCURVE",
"274 266 CURVE SMOOTH",
"313 257 OFFCURVE",
"395 246 OFFCURVE",
"395 204 CURVE SMOOTH",
"395 175.809 OFFCURVE",
"368.667 167 OFFCURVE",
"330 167 CURVE SMOOTH",
"266 167 OFFCURVE",
"189.667 186.667 OFFCURVE",
"123 272 CURVE",
"-2 132 LINE",
"70 45.333 OFFCURVE",
"166.333 -10 OFFCURVE",
"325 -10 CURVE SMOOTH"
);
}
);
width = 641;
},
{
anchors = (
{
name = bottom;
position = "{306, 0}";
},
{
name = top;
position = "{294, 700}";
}
);
layerId = "CCD999A9-9CE8-4787-8FD2-D5D19514269E";
paths = (
{
closed = 1;
nodes = (
"429.667 -10 OFFCURVE",
"527 68 OFFCURVE",
"527 172 CURVE SMOOTH",
"527 277.333 OFFCURVE",
"430.667 323 OFFCURVE",
"272 363 CURVE SMOOTH",
"160 392.333 OFFCURVE",
"88 435.333 OFFCURVE",
"88 526 CURVE SMOOTH",
"88 620.667 OFFCURVE",
"177.333 688 OFFCURVE",
"292 688 CURVE SMOOTH",
"390.667 688 OFFCURVE",
"450 654.667 OFFCURVE",
"494 596 CURVE",
"511 611 LINE",
"465.667 673.667 OFFCURVE",
"400 710 OFFCURVE",
"292 710 CURVE SMOOTH",
"164 710 OFFCURVE",
"65 631.143 OFFCURVE",
"65 526 CURVE SMOOTH",
"65 425.948 OFFCURVE",
"138.397 376.741 OFFCURVE",
"264 342 CURVE SMOOTH",
"405.333 302 OFFCURVE",
"504 268 OFFCURVE",
"504 172 CURVE SMOOTH",
"504 78.667 OFFCURVE",
"415 12 OFFCURVE",
"303 12 CURVE SMOOTH",
"193.667 12 OFFCURVE",
"111.667 52.333 OFFCURVE",
"61 131 CURVE",
"43 115 LINE",
"96.333 35 OFFCURVE",
"184.333 -10 OFFCURVE",
"303 -10 CURVE SMOOTH"
);
}
);
width = 567;
},
{
anchors = (
{
name = bottom;
position = "{510, 0}";
},
{
name = top;
position = "{480, 700}";
}
);
layerId = "649E0662-786D-44F6-8E8D-A6782F19FFAA";
paths = (
{
closed = 1;
nodes = (
"677 -10 OFFCURVE",
"807 80 OFFCURVE",
"807 216 CURVE SMOOTH",
"807 356 OFFCURVE",
"655 384 OFFCURVE",
"495 403 CURVE SMOOTH",
"367 419 OFFCURVE",
"281 442 OFFCURVE",
"281 515 CURVE SMOOTH",
"281 576 OFFCURVE",
"363 613 OFFCURVE",
"471 613 CURVE SMOOTH",
"568 613 OFFCURVE",
"652 576 OFFCURVE",
"709 508 CURVE",
"781 587 LINE",
"720 667 OFFCURVE",
"613 710 OFFCURVE",
"474 710 CURVE SMOOTH",
"299 710 OFFCURVE",
"163 634 OFFCURVE",
"163 503 CURVE SMOOTH",
"163 379 OFFCURVE",
"278 322 OFFCURVE",
"457 299 CURVE SMOOTH",
"525 291 OFFCURVE",
"689 284 OFFCURVE",
"689 202 CURVE SMOOTH",
"689 123 OFFCURVE",
"582 87 OFFCURVE",
"479 87 CURVE SMOOTH",
"368 87 OFFCURVE",
"283 126 OFFCURVE",
"196 216 CURVE",
"128 126 LINE",
"213 34 OFFCURVE",
"327 -10 OFFCURVE",
"478 -10 CURVE SMOOTH"
);
}
);
width = 935;
},
{
anchors = (
{
name = bottom;
position = "{482, 0}";
},
{
name = top;
position = "{462, 700}";
}
);
layerId = "9FF8E21A-ED06-4F66-AEDE-2CE647DC4B08";
paths = (
{
closed = 1;
nodes = (
"653 -10 OFFCURVE",
"765 67 OFFCURVE",
"765 180 CURVE SMOOTH",
"765 321 OFFCURVE",
"589 342 OFFCURVE",
"449 360 CURVE SMOOTH",
"327 376 OFFCURVE",
"166 393 OFFCURVE",
"166 524 CURVE SMOOTH",
"166 623 OFFCURVE",
"289 688 OFFCURVE",
"440 688 CURVE SMOOTH",
"559 688 OFFCURVE",
"651 656 OFFCURVE",
"716 593 CURVE",
"729 611 LINE",
"667 676 OFFCURVE",
"568 710 OFFCURVE",
"440 710 CURVE SMOOTH",
"273 710 OFFCURVE",
"143 639 OFFCURVE",
"143 518 CURVE SMOOTH",
"143 377 OFFCURVE",
"308 355 OFFCURVE",
"448 337 CURVE SMOOTH",
"557 322 OFFCURVE",
"742 303 OFFCURVE",
"742 184 CURVE SMOOTH",
"745 79 OFFCURVE",
"633 12 OFFCURVE",
"457 12 CURVE SMOOTH",
"318 12 OFFCURVE",
"205 55 OFFCURVE",
"133 136 CURVE",
"121 115 LINE",
"199 32 OFFCURVE",
"311 -10 OFFCURVE",
"457 -10 CURVE SMOOTH"
);
}
);
width = 878;
},
{
anchors = (
{
name = bottom;
position = "{524, 0}";
},
{
name = top;
position = "{494, 700}";
}
);
layerId = "ED109265-B005-47B0-97BD-F1815082B32B";
paths = (
{
closed = 1;
nodes = (
"696 -10 OFFCURVE",
"855 76 OFFCURVE",
"855 232 CURVE SMOOTH",
"855 421 OFFCURVE",
"682 437 OFFCURVE",
"521 450 CURVE SMOOTH",
"467 454 OFFCURVE",
"347 454 OFFCURVE",
"347 497 CURVE SMOOTH",
"347 533 OFFCURVE",
"404 541 OFFCURVE",
"480 541 CURVE SMOOTH",
"559 541 OFFCURVE",
"663 521 OFFCURVE",
"730 490 CURVE",
"819 637 LINE",
"756 673 OFFCURVE",
"646 720 OFFCURVE",
"489 720 CURVE SMOOTH",
"286 720 OFFCURVE",
"118 637 OFFCURVE",
"118 482 CURVE SMOOTH",
"118 351 OFFCURVE",
"246 278 OFFCURVE",
"437 264 CURVE SMOOTH",
"570 254 OFFCURVE",
"628 250 OFFCURVE",
"628 213 CURVE SMOOTH",
"628 167 OFFCURVE",
"555 167 OFFCURVE",
"515 167 CURVE SMOOTH",
"420 167 OFFCURVE",
"288 195 OFFCURVE",
"161 265 CURVE",
"76 94 LINE",
"175 44 OFFCURVE",
"309 -10 OFFCURVE",
"494 -10 CURVE SMOOTH"
);
}
);
width = 957;
},
{
anchors = (
{
name = bottom;
position = "{317, 0}";
},
{
name = top;
position = "{307, 700}";
}
);
layerId = "2B3ECD2C-4B3A-40C3-8F2B-A5E41B85E4DD";
paths = (
{
closed = 1;
nodes = (
"439.667 -10 OFFCURVE",
"540 74 OFFCURVE",
"540 186 CURVE SMOOTH",
"540 302 OFFCURVE",
"451.667 346.667 OFFCURVE",
"321 380 CURVE SMOOTH",
"193 412 OFFCURVE",
"138 442 OFFCURVE",
"138 518 CURVE SMOOTH",
"138 598 OFFCURVE",
"209 655 OFFCURVE",
"305 655 CURVE SMOOTH",
"389 655 OFFCURVE",
"446 612 OFFCURVE",
"490 544 CURVE",
"527 580 LINE",
"477.667 656 OFFCURVE",
"413 705 OFFCURVE",
"305 705 CURVE SMOOTH",
"182.333 705 OFFCURVE",
"87 627 OFFCURVE",
"87 519 CURVE SMOOTH",
"87 408.333 OFFCURVE",
"162 369 OFFCURVE",
"290 333 CURVE SMOOTH",
"407.333 299.667 OFFCURVE",
"489 275 OFFCURVE",
"489 183 CURVE SMOOTH",
"489 100.333 OFFCURVE",
"409.667 40 OFFCURVE",
"303 40 CURVE SMOOTH",
"221.667 40 OFFCURVE",
"148.667 73.667 OFFCURVE",
"90 159 CURVE",
"54 122 LINE",
"112.667 36.667 OFFCURVE",
"201 -10 OFFCURVE",
"301 -10 CURVE SMOOTH"
);
}
);
width = 593;
}
);
leftKerningGroup = S;
rightKerningGroup = S;
unicode = 0053;
},
{
color = 6;
glyphname = Germandbls;
layers = (
{
anchors = (
{
name = bottom;
position = "{381, 0}";
},
{
name = top;
position = "{381, 700}";
}
);
layerId = "5A878C7E-547A-4951-B48F-676DBBC9B762";
paths = (
{
closed = 1;
nodes = (
"607.333 -10 OFFCURVE",
"707 78.667 OFFCURVE",
"707 184 CURVE SMOOTH",
"707 297 OFFCURVE",
"651 335 OFFCURVE",
"545 384 CURVE SMOOTH",
"478 415 OFFCURVE",
"445 446 OFFCURVE",
"445 486 CURVE SMOOTH",
"445 543.333 OFFCURVE",
"515.667 589 OFFCURVE",
"641 609 CURVE",
"636 682 LINE",
"568 711.333 OFFCURVE",
"489.667 726 OFFCURVE",
"407 726 CURVE SMOOTH",
"221.667 726 OFFCURVE",
"100 575 OFFCURVE",
"99 350 CURVE SMOOTH",
"98 1 LINE",
"206 1 LINE",
"208 343 LINE SMOOTH",
"209 523 OFFCURVE",
"290.333 634.667 OFFCURVE",
"417 632 CURVE SMOOTH",
"474.333 632 OFFCURVE",
"548.333 621 OFFCURVE",
"591 605 CURVE",
"541 643 LINE",
"419.667 632.333 OFFCURVE",
"338 564 OFFCURVE",
"338 460 CURVE SMOOTH",
"338 385.333 OFFCURVE",
"373 343 OFFCURVE",
"469 291 CURVE SMOOTH",
"569 237 OFFCURVE",
"602 219 OFFCURVE",
"602 171 CURVE SMOOTH",
"602 119 OFFCURVE",
"558 87 OFFCURVE",
"489 87 CURVE SMOOTH",
"446.333 87 OFFCURVE",
"395.333 115 OFFCURVE",
"362 155 CURVE",
"295 75 LINE",
"335 23 OFFCURVE",
"412.667 -10 OFFCURVE",
"490 -10 CURVE SMOOTH"
);
}
);
width = 762;
},
{
anchors = (
{
name = bottom;
position = "{424, 0}";
},
{
name = top;
position = "{424, 700}";
}
);
layerId = "554F9022-F5DF-470A-8852-5D1AD00D5051";
paths = (
{
closed = 1;
nodes = (
"699 -10 OFFCURVE",
"819 83 OFFCURVE",
"819 199 CURVE SMOOTH",
"819 303 OFFCURVE",
"763 338 OFFCURVE",
"679 380 CURVE SMOOTH",
"627 406.667 OFFCURVE",
"597 427.667 OFFCURVE",
"597 461 CURVE SMOOTH",
"597 493 OFFCURVE",
"633 522 OFFCURVE",
"728 529 CURVE",
"728 682 LINE",
"652 714 OFFCURVE",
"563 726 OFFCURVE",
"471 726 CURVE SMOOTH",
"236.333 726 OFFCURVE",
"80 575.333 OFFCURVE",
"80 350 CURVE SMOOTH",
"80 0 LINE",
"296 0 LINE",
"296 343 LINE SMOOTH",
"296 486 OFFCURVE",
"367 573.333 OFFCURVE",
"479 572 CURVE SMOOTH",
"533.667 572 OFFCURVE",
"603 559.667 OFFCURVE",
"643 545 CURVE",
"586 584 LINE",
"491.333 584 OFFCURVE",
"380 515.333 OFFCURVE",
"380 430 CURVE SMOOTH",
"380 370 OFFCURVE",
"405 334 OFFCURVE",
"481 291 CURVE SMOOTH",
"554 250 OFFCURVE",
"584 228 OFFCURVE",
"584 199 CURVE SMOOTH",
"584 176 OFFCURVE",
"566 157 OFFCURVE",
"534 157 CURVE SMOOTH",
"503.333 157 OFFCURVE",
"472 173 OFFCURVE",
"436 205 CURVE",
"327 75 LINE",
"368 31 OFFCURVE",
"460 -10 OFFCURVE",
"554 -10 CURVE SMOOTH"
);
}
);
width = 848;
},
{
anchors = (
{
name = bottom;
position = "{354, 0}";
},
{
name = top;
position = "{354, 700}";
}
);
layerId = "CCD999A9-9CE8-4787-8FD2-D5D19514269E";
paths = (
{
closed = 1;
nodes = (
"577.333 -10 OFFCURVE",
"667 57.333 OFFCURVE",
"667 188 CURVE SMOOTH",
"667 293 OFFCURVE",
"595 324 OFFCURVE",
"524 369 CURVE SMOOTH",
"445 419 OFFCURVE",
"394 442 OFFCURVE",
"394 492 CURVE SMOOTH",
"394 551 OFFCURVE",
"483 589 OFFCURVE",
"606 609 CURVE",
"604 634 LINE",
"553.333 678 OFFCURVE",
"483.333 710 OFFCURVE",
"386 710 CURVE SMOOTH",
"186 710 OFFCURVE",
"110 608.667 OFFCURVE",
"110 402 CURVE SMOOTH",
"110 0 LINE",
"133 0 LINE",
"133 391 LINE SMOOTH",
"133 607 OFFCURVE",
"205 688 OFFCURVE",
"385 688 CURVE SMOOTH",
"478.333 688 OFFCURVE",
"546 654.667 OFFCURVE",
"590 620 CURVE",
"590 625 LINE",
"460 601 OFFCURVE",
"372 559 OFFCURVE",
"372 492 CURVE SMOOTH",
"372 443 OFFCURVE",
"402 418 OFFCURVE",
"508 354 CURVE SMOOTH",
"579 311 OFFCURVE",
"644 283 OFFCURVE",
"644 183 CURVE SMOOTH",
"644 76.333 OFFCURVE",
"565 12 OFFCURVE",
"441 12 CURVE SMOOTH",
"375.667 12 OFFCURVE",
"310 38.333 OFFCURVE",
"262 93 CURVE",
"245 78 LINE",
"286.333 24.667 OFFCURVE",
"362.667 -10 OFFCURVE",
"440 -10 CURVE SMOOTH"
);
}
);
userData = {
com.schriftgestaltung.Glyphs.glyph.leftMetricsKey = H;
com.schriftgestaltung.Glyphs.glyph.rightMetricsKey = S;
};
width = 707;
},
{
anchors = (
{
name = bottom;
position = "{550, 0}";
},
{
name = top;
position = "{550, 700}";
}
);
layerId = "649E0662-786D-44F6-8E8D-A6782F19FFAA";
paths = (
{
closed = 1;
nodes = (
"866 -10 OFFCURVE",
"961 77 OFFCURVE",
"961 184 CURVE SMOOTH",
"961 300 OFFCURVE",
"882 334 OFFCURVE",
"769 373 CURVE SMOOTH",
"678 404 OFFCURVE",
"618 433 OFFCURVE",
"618 486 CURVE SMOOTH",
"618 567 OFFCURVE",
"735 593 OFFCURVE",
"885 609 CURVE",
"875 686 LINE",
"779 714 OFFCURVE",
"702 726 OFFCURVE",
"605 726 CURVE SMOOTH",
"345 726 OFFCURVE",
"184 572 OFFCURVE",
"183 257 CURVE SMOOTH",
"182 0 LINE",
"290 0 LINE",
"292 263 LINE SMOOTH",
"294 531 OFFCURVE",
"444 637 OFFCURVE",
"605 637 CURVE SMOOTH",
"685 637 OFFCURVE",
"753 622 OFFCURVE",
"785 613 CURVE",
"785 653 LINE",
"648 662 OFFCURVE",
"512 597 OFFCURVE",
"512 469 CURVE SMOOTH",
"512 372 OFFCURVE",
"595 314 OFFCURVE",
"693 283 CURVE SMOOTH",
"795 251 OFFCURVE",
"857 227 OFFCURVE",
"857 173 CURVE SMOOTH",
"857 116 OFFCURVE",
"797 87 OFFCURVE",
"721 87 CURVE SMOOTH",
"638 87 OFFCURVE",
"578 127 OFFCURVE",
"526 163 CURVE",
"459 83 LINE",
"535 24 OFFCURVE",
"614 -10 OFFCURVE",
"721 -10 CURVE SMOOTH"
);
}
);
width = 1089;
},
{
anchors = (
{
name = bottom;
position = "{523, 0}";
},
{
name = top;
position = "{523, 700}";
}
);
background = {
paths = (
{
closed = 1;
nodes = (
"831 -10 OFFCURVE",
"921 61 OFFCURVE",
"921 188 CURVE SMOOTH",
"921 232 OFFCURVE",
"905 268 OFFCURVE",
"869 299 CURVE SMOOTH",
"837 327 OFFCURVE",
"786 352 OFFCURVE",
"717 373 CURVE SMOOTH",
"660 391 OFFCURVE",
"620 408 OFFCURVE",
"599 424 CURVE SMOOTH",
"578 440 OFFCURVE",
"567 461 OFFCURVE",
"567 486 CURVE SMOOTH",
"567 522 OFFCURVE",
"589 550 OFFCURVE",
"633 569 CURVE SMOOTH",
"677 588 OFFCURVE",
"748 602 OFFCURVE",
"847 609 CURVE",
"843 638 LINE",
"750 689 OFFCURVE",
"673 710 OFFCURVE",
"584 710 CURVE SMOOTH",
"309 710 OFFCURVE",
"194 590 OFFCURVE",
"194 309 CURVE SMOOTH",
"194 0 LINE",
"216 0 LINE",
"216 311 LINE SMOOTH",
"216 574 OFFCURVE",
"322 685 OFFCURVE",
"573 688 CURVE SMOOTH",
"674 688 OFFCURVE",
"751 667 OFFCURVE",
"835 620 CURVE",
"835 626 LINE",
"734 620 OFFCURVE",
"660 606 OFFCURVE",
"615 584 CURVE SMOOTH",
"569 561 OFFCURVE",
"546 528 OFFCURVE",
"546 484 CURVE SMOOTH",
"546 424 OFFCURVE",
"585 393 OFFCURVE",
"709 354 CURVE SMOOTH",
"772 334 OFFCURVE",
"818 311 OFFCURVE",
"849 286 CURVE SMOOTH",
"884 258 OFFCURVE",
"899 225 OFFCURVE",
"899 185 CURVE SMOOTH",
"899 74 OFFCURVE",
"818 12 OFFCURVE",
"673 12 CURVE SMOOTH",
"589 12 OFFCURVE",
"501 44 OFFCURVE",
"426 101 CURVE",
"412 84 LINE",
"489 24 OFFCURVE",
"582 -10 OFFCURVE",
"671 -10 CURVE SMOOTH"
);
}
);
};
layerId = "9FF8E21A-ED06-4F66-AEDE-2CE647DC4B08";
paths = (
{
closed = 1;
nodes = (
"831 -10 OFFCURVE",
"921 61 OFFCURVE",
"921 188 CURVE SMOOTH",
"921 292 OFFCURVE",
"836 333 OFFCURVE",
"709 376 CURVE SMOOTH",
"591 417 OFFCURVE",
"567 447 OFFCURVE",
"567 489 CURVE SMOOTH",
"567 553 OFFCURVE",
"648 599 OFFCURVE",
"847 609 CURVE",
"843 638 LINE",
"750 689 OFFCURVE",
"673 710 OFFCURVE",
"584 710 CURVE SMOOTH",
"309 710 OFFCURVE",
"194 590 OFFCURVE",
"194 309 CURVE SMOOTH",
"194 0 LINE",
"216 0 LINE",
"216 311 LINE SMOOTH",
"216 574 OFFCURVE",
"322 685 OFFCURVE",
"573 688 CURVE SMOOTH",
"674 688 OFFCURVE",
"751 667 OFFCURVE",
"835 620 CURVE",
"835 626 LINE",
"655 616 OFFCURVE",
"545 575 OFFCURVE",
"545 489 CURVE SMOOTH",
"545 428 OFFCURVE",
"585 396 OFFCURVE",
"709 354 CURVE SMOOTH",
"817 317 OFFCURVE",
"899 282 OFFCURVE",
"899 185 CURVE SMOOTH",
"899 74 OFFCURVE",
"818 12 OFFCURVE",
"673 12 CURVE SMOOTH",
"589 12 OFFCURVE",
"501 44 OFFCURVE",
"426 101 CURVE",
"412 84 LINE",
"489 24 OFFCURVE",
"582 -10 OFFCURVE",
"671 -10 CURVE SMOOTH"
);
}
);
userData = {
com.schriftgestaltung.Glyphs.glyph.leftMetricsKey = H;
com.schriftgestaltung.Glyphs.glyph.rightMetricsKey = S;
};
width = 1034;
},
{
anchors = (
{
name = bottom;
position = "{593, 0}";
},
{
name = top;
position = "{593, 700}";
}
);
layerId = "ED109265-B005-47B0-97BD-F1815082B32B";
paths = (
{
closed = 1;
nodes = (
"958 -10 OFFCURVE",
"1073 82 OFFCURVE",
"1073 199 CURVE SMOOTH",
"1073 306 OFFCURVE",
"994 337 OFFCURVE",
"903 369 CURVE SMOOTH",
"827 396 OFFCURVE",
"770 414 OFFCURVE",
"770 461 CURVE SMOOTH",
"770 517 OFFCURVE",
"852 526 OFFCURVE",
"972 529 CURVE",
"967 686 LINE",
"863 717 OFFCURVE",
"776 726 OFFCURVE",
"669 726 CURVE SMOOTH",
"360 726 OFFCURVE",
"164 572 OFFCURVE",
"164 257 CURVE SMOOTH",
"164 -1 LINE",
"380 -1 LINE",
"380 263 LINE SMOOTH",
"381 494 OFFCURVE",
"520 576 OFFCURVE",
"667 577 CURVE SMOOTH",
"744 577 OFFCURVE",
"808 561 OFFCURVE",
"837 553 CURVE",
"830 594 LINE",
"719 614 OFFCURVE",
"554 548 OFFCURVE",
"554 439 CURVE SMOOTH",
"554 356 OFFCURVE",
"627 305 OFFCURVE",
"705 283 CURVE SMOOTH",
"780 264 OFFCURVE",
"839 236 OFFCURVE",
"839 201 CURVE SMOOTH",
"839 173 OFFCURVE",
"805 157 OFFCURVE",
"766 157 CURVE SMOOTH",
"695 157 OFFCURVE",
"655 185 OFFCURVE",
"600 213 CURVE",
"491 83 LINE",
"568 32 OFFCURVE",
"662 -10 OFFCURVE",
"785 -10 CURVE SMOOTH"
);
}
);
width = 1175;
},
{
anchors = (
{
name = bottom;
position = "{374, 0}";
},
{
name = top;
position = "{374, 700}";
}
);
layerId = "2B3ECD2C-4B3A-40C3-8F2B-A5E41B85E4DD";
paths = (
{
closed = 1;
nodes = (
"601.667 -10 OFFCURVE",
"695 64.333 OFFCURVE",
"695 177 CURVE SMOOTH",
"695 289 OFFCURVE",
"618 336 OFFCURVE",
"526 384 CURVE SMOOTH",
"462 418 OFFCURVE",
"426 446 OFFCURVE",
"426 492 CURVE SMOOTH",
"426 558 OFFCURVE",
"496.667 589 OFFCURVE",
"622 616 CURVE",
"618 658 LINE",
"547.333 688.667 OFFCURVE",
"488.333 705 OFFCURVE",
"415 705 CURVE SMOOTH",
"212.333 705 OFFCURVE",
"108 590.667 OFFCURVE",
"108 380 CURVE SMOOTH",
"108 0 LINE",
"159 0 LINE",
"159 374 LINE SMOOTH",
"159 558 OFFCURVE",
"251.667 655 OFFCURVE",
"413 655 CURVE SMOOTH",
"475.667 655 OFFCURVE",
"522.333 646 OFFCURVE",
"569 622 CURVE",
"559 644 LINE",
"447 628 OFFCURVE",
"373 567.667 OFFCURVE",
"373 492 CURVE SMOOTH",
"373 431 OFFCURVE",
"409 384 OFFCURVE",
"476 348 CURVE SMOOTH",
"578 293 OFFCURVE",
"642 262 OFFCURVE",
"642 180 CURVE SMOOTH",
"642 93.333 OFFCURVE",
"575.333 40 OFFCURVE",
"478 40 CURVE SMOOTH",
"416.667 40 OFFCURVE",
"355.333 63.667 OFFCURVE",
"310 117 CURVE",
"276 75 LINE",
"316 23 OFFCURVE",
"393.667 -10 OFFCURVE",
"479 -10 CURVE SMOOTH"
);
}
);
userData = {
com.schriftgestaltung.Glyphs.glyph.leftMetricsKey = H;
com.schriftgestaltung.Glyphs.glyph.rightMetricsKey = S;
};
width = 748;
}
);
leftKerningGroup = f;
leftMetricsKey = H;
rightKerningGroup = S;
rightMetricsKey = S;
unicode = 1E9E;
},
{
color = 6;
glyphname = Schwa;
layers = (
{
anchors = (
{
name = bottom;
position = "{390, 0}";
},
{
name = top;
position = "{390, 700}";
}
);
layerId = "5A878C7E-547A-4951-B48F-676DBBC9B762";
paths = (
{
closed = 1;
nodes = (
"578 -10 OFFCURVE",
"732 151.333 OFFCURVE",
"732 350 CURVE SMOOTH",
"732 548.667 OFFCURVE",
"576.333 710 OFFCURVE",
"387 710 CURVE SMOOTH",
"271 710 OFFCURVE",
"189.333 678 OFFCURVE",
"116 606 CURVE",
"184 536 LINE",
"240 588 OFFCURVE",
"303 613 OFFCURVE",
"387 613 CURVE SMOOTH",
"532.333 613 OFFCURVE",
"629 512.333 OFFCURVE",
"629 351 CURVE SMOOTH",
"629 193.667 OFFCURVE",
"528.667 87 OFFCURVE",
"390 87 CURVE SMOOTH",
"274 87 OFFCURVE",
"172 176 OFFCURVE",
"152 296 CURVE",
"695 296 LINE",
"686 393 LINE",
"48 393 LINE",
"48 313 LINE",
"57.333 127.667 OFFCURVE",
"208.667 -10 OFFCURVE",
"390 -10 CURVE SMOOTH"
);
}
);
width = 780;
},
{
anchors = (
{
name = bottom;
position = "{382, 0}";
},
{
name = top;
position = "{382, 700}";
}
);
layerId = "554F9022-F5DF-470A-8852-5D1AD00D5051";
paths = (
{
closed = 1;
nodes = (
"570 -10 OFFCURVE",
"724 151.333 OFFCURVE",
"724 350 CURVE SMOOTH",
"724 548.667 OFFCURVE",
"568 710 OFFCURVE",
"379 710 CURVE SMOOTH",
"260 710 OFFCURVE",
"197 684 OFFCURVE",
"101 621 CURVE",
"178 450 LINE",
"242 494 OFFCURVE",
"284 510 OFFCURVE",
"359 510 CURVE SMOOTH",
"445.667 510 OFFCURVE",
"504 448.333 OFFCURVE",
"504 351 CURVE SMOOTH",
"504 240.333 OFFCURVE",
"452.667 190 OFFCURVE",
"382 190 CURVE SMOOTH",
"340.667 190 OFFCURVE",
"296.667 213 OFFCURVE",
"274 261 CURVE",
"687 261 LINE",
"678 427 LINE",
"40 427 LINE",
"40 313 LINE",
"49 128 OFFCURVE",
"201 -10 OFFCURVE",
"382 -10 CURVE SMOOTH"
);
}
);
width = 764;
},
{
anchors = (
{
name = bottom;
position = "{398, 0}";
},
{
name = top;
position = "{398, 700}";
}
);
layerId = "CCD999A9-9CE8-4787-8FD2-D5D19514269E";
paths = (
{
closed = 1;
nodes = (
"591 -10 OFFCURVE",
"740 137.333 OFFCURVE",
"740 344 CURVE SMOOTH",
"740 553.333 OFFCURVE",
"581.333 710 OFFCURVE",
"372 710 CURVE SMOOTH",
"281.333 710 OFFCURVE",
"186.667 667.667 OFFCURVE",
"128 609 CURVE",
"143 593 LINE",
"200.333 647.667 OFFCURVE",
"283.333 688 OFFCURVE",
"370 688 CURVE SMOOTH",
"567.333 688 OFFCURVE",
"717 542.667 OFFCURVE",
"717 348 CURVE SMOOTH",
"717 153.333 OFFCURVE",
"578.667 12 OFFCURVE",
"396 12 CURVE SMOOTH",
"202.667 12 OFFCURVE",
"77 160.333 OFFCURVE",
"77 343 CURVE",
"728 343 LINE",
"728 365 LINE",
"55 365 LINE",
"55 353 LINE SMOOTH",
"51 147.667 OFFCURVE",
"195 -10 OFFCURVE",
"395 -10 CURVE SMOOTH"
);
}
);
userData = {
com.schriftgestaltung.Glyphs.glyph.leftMetricsKey = O;
com.schriftgestaltung.Glyphs.glyph.rightMetricsKey = O;
};
width = 795;
},
{
anchors = (
{
name = bottom;
position = "{484, 0}";
},
{
name = top;
position = "{484, 700}";
}
);
layerId = "649E0662-786D-44F6-8E8D-A6782F19FFAA";
paths = (
{
closed = 1;
nodes = (
"680 -10 OFFCURVE",
"839 151 OFFCURVE",
"839 350 CURVE SMOOTH",
"839 549 OFFCURVE",
"677 710 OFFCURVE",
"482 710 CURVE SMOOTH",
"365 710 OFFCURVE",
"276 676 OFFCURVE",
"196 588 CURVE",
"264 528 LINE",
"327 591 OFFCURVE",
"398 613 OFFCURVE",
"482 613 CURVE SMOOTH",
"617 613 OFFCURVE",
"729 526 OFFCURVE",
"729 351 CURVE SMOOTH",
"729 190 OFFCURVE",
"618 87 OFFCURVE",
"485 87 CURVE SMOOTH",
"365 87 OFFCURVE",
"260 180 OFFCURVE",
"239 296 CURVE",
"775 296 LINE",
"766 393 LINE",
"128 393 LINE",
"128 313 LINE",
"137 118 OFFCURVE",
"308 -10 OFFCURVE",
"485 -10 CURVE SMOOTH"
);
}
);
width = 967;
},
{
anchors = (
{
name = bottom;
position = "{488, 0}";
},
{
name = top;
position = "{488, 700}";
}
);
layerId = "9FF8E21A-ED06-4F66-AEDE-2CE647DC4B08";
paths = (
{
closed = 1;
nodes = (
"686 -10 OFFCURVE",
"840 137 OFFCURVE",
"840 344 CURVE SMOOTH",
"840 567 OFFCURVE",
"683 710 OFFCURVE",
"470 710 CURVE SMOOTH",
"355 710 OFFCURVE",
"268 665 OFFCURVE",
"203 589 CURVE",
"218 576 LINE",
"281 647 OFFCURVE",
"368 688 OFFCURVE",
"467 688 CURVE SMOOTH",
"656 688 OFFCURVE",
"818 561 OFFCURVE",
"818 348 CURVE SMOOTH",
"818 149 OFFCURVE",
"665 12 OFFCURVE",
"484 12 CURVE SMOOTH",
"293 12 OFFCURVE",
"158 162 OFFCURVE",
"157 343 CURVE",
"831 343 LINE",
"831 365 LINE",
"135 365 LINE",
"135 353 LINE SMOOTH",
"131 138 OFFCURVE",
"291 -10 OFFCURVE",
"483 -10 CURVE SMOOTH"
);
}
);
userData = {
com.schriftgestaltung.Glyphs.glyph.leftMetricsKey = O;
com.schriftgestaltung.Glyphs.glyph.rightMetricsKey = O;
};
width = 975;
},
{
anchors = (
{
name = bottom;
position = "{476, 0}";
},
{
name = top;
position = "{476, 700}";
}
);
layerId = "ED109265-B005-47B0-97BD-F1815082B32B";
paths = (
{
closed = 1;
nodes = (
"672 -10 OFFCURVE",
"831 151 OFFCURVE",
"831 350 CURVE SMOOTH",
"831 549 OFFCURVE",
"669 710 OFFCURVE",
"474 710 CURVE SMOOTH",
"354 710 OFFCURVE",
"284 682 OFFCURVE",
"181 603 CURVE",
"258 442 LINE",
"329 497 OFFCURVE",
"379 510 OFFCURVE",
"454 510 CURVE SMOOTH",
"530 510 OFFCURVE",
"604 462 OFFCURVE",
"604 351 CURVE SMOOTH",
"604 236 OFFCURVE",
"542 190 OFFCURVE",
"477 190 CURVE SMOOTH",
"432 190 OFFCURVE",
"385 217 OFFCURVE",
"361 261 CURVE",
"767 261 LINE",
"758 427 LINE",
"120 427 LINE",
"120 313 LINE",
"129 118 OFFCURVE",
"300 -10 OFFCURVE",
"477 -10 CURVE SMOOTH"
);
}
);
width = 951;
},
{
anchors = (
{
name = bottom;
position = "{393, 0}";
},
{
name = top;
position = "{393, 700}";
}
);
layerId = "2B3ECD2C-4B3A-40C3-8F2B-A5E41B85E4DD";
paths = (
{
closed = 1;
nodes = (
"581.667 -10 OFFCURVE",
"735 147.333 OFFCURVE",
"735 346 CURVE SMOOTH",
"735 548.667 OFFCURVE",
"576.667 705 OFFCURVE",
"374 705 CURVE SMOOTH",
"275.333 705 OFFCURVE",
"183.667 669.333 OFFCURVE",
"121 608 CURVE",
"156 569 LINE",
"210.973 621.292 OFFCURVE",
"287.667 655 OFFCURVE",
"373 655 CURVE SMOOTH",
"544.779 655 OFFCURVE",
"682 521 OFFCURVE",
"682 349 CURVE SMOOTH",
"682 178.333 OFFCURVE",
"549.096 40 OFFCURVE",
"388 40 CURVE SMOOTH",
"233.583 40 OFFCURVE",
"104.339 167.449 OFFCURVE",
"103 324 CURVE",
"705 324 LINE",
"705 374 LINE",
"50 374 LINE",
"50 340 LINE SMOOTH",
"50 141.333 OFFCURVE",
"195 -10 OFFCURVE",
"387 -10 CURVE SMOOTH"
);
}
);
userData = {
com.schriftgestaltung.Glyphs.glyph.leftMetricsKey = O;
com.schriftgestaltung.Glyphs.glyph.rightMetricsKey = O;
};
width = 785;
}
);
leftKerningGroup = C;
leftMetricsKey = O;
rightKerningGroup = D;
rightMetricsKey = O;
unicode = 018F;
},
{
color = 6;
glyphname = T;
layers = (
{
anchors = (
{
name = bottom;
position = "{288, 0}";
},
{
name = center;
position = "{288, 350}";
},
{
name = top;
position = "{288, 700}";
}
);
layerId = "5A878C7E-547A-4951-B48F-676DBBC9B762";
paths = (
{
closed = 1;
nodes = (
"339 0 LINE",
"339 596 LINE",
"541 596 LINE",
"541 700 LINE",
"35 700 LINE",
"35 596 LINE",
"231 596 LINE",
"231 0 LINE"
);
}
);
width = 576;
},
{
anchors = (
{
name = bottom;
position = "{357, 0}";
},
{
name = center;
position = "{357, 350}";
},
{
name = top;
position = "{357, 700}";
}
);
layerId = "554F9022-F5DF-470A-8852-5D1AD00D5051";
paths = (
{
closed = 1;
nodes = (
"462 0 LINE",
"462 516 LINE",
"684 516 LINE",
"684 700 LINE",
"30 700 LINE",
"30 516 LINE",
"246 516 LINE",
"246 0 LINE"
);
}
);
width = 714;
},
{
anchors = (
{
name = bottom;
position = "{244, 0}";
},
{
name = center;
position = "{244, 350}";
},
{
name = top;
position = "{244, 700}";
}
);
layerId = "CCD999A9-9CE8-4787-8FD2-D5D19514269E";
paths = (
{
closed = 1;
nodes = (
"255 0 LINE",
"255 678 LINE",
"468 678 LINE",
"468 700 LINE",
"20 700 LINE",
"20 678 LINE",
"233 678 LINE",
"233 0 LINE"
);
}
);
width = 488;
},
{
anchors = (
{
name = bottom;
position = "{423, 0}";
},
{
name = center;
position = "{423, 350}";
},
{
name = top;
position = "{423, 700}";
}
);
layerId = "649E0662-786D-44F6-8E8D-A6782F19FFAA";
paths = (
{
closed = 1;
nodes = (
"474 0 LINE",
"474 596 LINE",
"746 596 LINE",
"746 700 LINE",
"100 700 LINE",
"100 596 LINE",
"366 596 LINE",
"366 0 LINE"
);
}
);
width = 846;
},
{
anchors = (
{
name = bottom;
position = "{379, 0}";
},
{
name = center;
position = "{379, 350}";
},
{
name = top;
position = "{379, 700}";
}
);
layerId = "9FF8E21A-ED06-4F66-AEDE-2CE647DC4B08";
paths = (
{
closed = 1;
nodes = (
"390 0 LINE",
"390 678 LINE",
"673 678 LINE",
"673 700 LINE",
"85 700 LINE",
"85 678 LINE",
"368 678 LINE",
"368 0 LINE"
);
}
);
width = 758;
},
{
anchors = (
{
name = bottom;
position = "{492, 0}";
},
{
name = center;
position = "{492, 350}";
},
{
name = top;
position = "{492, 700}";
}
);
layerId = "ED109265-B005-47B0-97BD-F1815082B32B";
paths = (
{
closed = 1;
nodes = (
"597 0 LINE",
"597 516 LINE",
"889 516 LINE",
"889 700 LINE",
"95 700 LINE",
"95 516 LINE",
"381 516 LINE",
"381 0 LINE"
);
}
);
width = 984;
},
{
anchors = (
{
name = bottom;
position = "{254, 0}";
},
{
name = center;
position = "{259, 350}";
},
{
name = top;
position = "{259, 700}";
}
);
layerId = "2B3ECD2C-4B3A-40C3-8F2B-A5E41B85E4DD";
paths = (
{
closed = 1;
nodes = (
"280 0 LINE",
"280 650 LINE",
"492 650 LINE",
"492 700 LINE",
"25 700 LINE",
"25 650 LINE",
"230 650 LINE",
"230 0 LINE"
);
}
);
width = 517;
}
);
leftKerningGroup = T;
rightKerningGroup = T;
unicode = 0054;
},
{
color = 3;
glyphname = Tbar;
layers = (
{
components = (
{
name = T;
}
);
layerId = "5A878C7E-547A-4951-B48F-676DBBC9B762";
paths = (
{
closed = 1;
nodes = (
"422 307 LINE",
"422 397 LINE",
"154 397 LINE",
"154 307 LINE"
);
}
);
width = 576;
},
{
components = (
{
name = T;
}
);
layerId = "554F9022-F5DF-470A-8852-5D1AD00D5051";
paths = (
{
closed = 1;
nodes = (
"548 281 LINE",
"548 421 LINE",
"180 421 LINE",
"180 281 LINE"
);
}
);
width = 714;
},
{
components = (
{
name = T;
}
);
layerId = "CCD999A9-9CE8-4787-8FD2-D5D19514269E";
paths = (
{
closed = 1;
nodes = (
"377 340 LINE",
"377 361 LINE",
"109 361 LINE",
"109 340 LINE"
);
}
);
userData = {
com.schriftgestaltung.Glyphs.glyph.leftMetricsKey = T;
com.schriftgestaltung.Glyphs.glyph.rightMetricsKey = T;
};
width = 488;
},
{
components = (
{
name = T;
}
);
layerId = "649E0662-786D-44F6-8E8D-A6782F19FFAA";
paths = (
{
closed = 1;
nodes = (
"627 308 LINE",
"627 394 LINE",
"219 394 LINE",
"219 308 LINE"
);
}
);
width = 846;
},
{
components = (
{
name = T;
}
);
layerId = "9FF8E21A-ED06-4F66-AEDE-2CE647DC4B08";
paths = (
{
closed = 1;
nodes = (
"583 341 LINE",
"583 358 LINE",
"175 358 LINE",
"175 341 LINE"
);
}
);
userData = {
com.schriftgestaltung.Glyphs.glyph.leftMetricsKey = T;
com.schriftgestaltung.Glyphs.glyph.rightMetricsKey = T;
};
width = 758;
},
{
components = (
{
name = T;
}
);
layerId = "ED109265-B005-47B0-97BD-F1815082B32B";
paths = (
{
closed = 1;
nodes = (
"753 282 LINE",
"753 418 LINE",
"245 418 LINE",
"245 282 LINE"
);
}
);
userData = {
com.schriftgestaltung.Glyphs.glyph.leftMetricsKey = T;
com.schriftgestaltung.Glyphs.glyph.rightMetricsKey = T;
};
width = 984;
},
{
anchors = (
{
name = bottom;
position = "{492, 0}";
},
{
name = center;
position = "{492, 350}";
},
{
name = top;
position = "{492, 700}";
}
);
associatedMasterId = "ED109265-B005-47B0-97BD-F1815082B32B";
components = (
{
name = T;
}
);
layerId = "0F331783-0FF3-4BF6-85D6-ADB828A20426";
name = foreground;
paths = (
{
closed = 1;
nodes = (
"753 282 LINE",
"753 418 LINE",
"245 418 LINE",
"245 282 LINE"
);
}
);
userData = {
com.schriftgestaltung.Glyphs.glyph.leftMetricsKey = T;
com.schriftgestaltung.Glyphs.glyph.rightMetricsKey = T;
};
width = 984;
},
{
components = (
{
name = T;
}
);
layerId = "2B3ECD2C-4B3A-40C3-8F2B-A5E41B85E4DD";
paths = (
{
closed = 1;
nodes = (
"392 329 LINE",
"392 374 LINE",
"124 374 LINE",
"124 329 LINE"
);
}
);
userData = {
com.schriftgestaltung.Glyphs.glyph.leftMetricsKey = T;
com.schriftgestaltung.Glyphs.glyph.rightMetricsKey = T;
};
width = 517;
}
);
leftKerningGroup = T;
rightKerningGroup = T;
unicode = 0166;
},
{
color = 6;
glyphname = U;
layers = (
{
anchors = (
{
name = bottom;
position = "{370, 0}";
},
{
name = ogonek;
position = "{540, 0}";
},
{
name = top;
position = "{370, 700}";
},
{
name = topright;
position = "{720, 700}";
}
);
layerId = "5A878C7E-547A-4951-B48F-676DBBC9B762";
paths = (
{
closed = 1;
nodes = (
"532.667 -6 OFFCURVE",
"652 110.333 OFFCURVE",
"652 269 CURVE SMOOTH",
"652 701 LINE",
"549 701 LINE",
"549 278 LINE SMOOTH",
"549 176.667 OFFCURVE",
"470 98 OFFCURVE",
"370 98 CURVE SMOOTH",
"275.333 98 OFFCURVE",
"196 176.667 OFFCURVE",
"196 278 CURVE SMOOTH",
"196 701 LINE",
"88 701 LINE",
"88 269 LINE SMOOTH",
"88 110.333 OFFCURVE",
"207.333 -6 OFFCURVE",
"370 -6 CURVE SMOOTH"
);
}
);
width = 740;
},
{
anchors = (
{
name = bottom;
position = "{392, 0}";
},
{
name = ogonek;
position = "{585, 0}";
},
{
name = top;
position = "{392, 700}";
},
{
name = topright;
position = "{764, 700}";
}
);
layerId = "554F9022-F5DF-470A-8852-5D1AD00D5051";
paths = (
{
closed = 1;
nodes = (
"573.333 -6 OFFCURVE",
"704 109 OFFCURVE",
"704 269 CURVE SMOOTH",
"704 700 LINE",
"491 700 LINE",
"491 278 LINE SMOOTH",
"491 219.333 OFFCURVE",
"449.333 178 OFFCURVE",
"392 178 CURVE SMOOTH",
"337.333 178 OFFCURVE",
"298 219.333 OFFCURVE",
"298 278 CURVE SMOOTH",
"298 700 LINE",
"80 700 LINE",
"80 269 LINE SMOOTH",
"80 109 OFFCURVE",
"210.667 -6 OFFCURVE",
"392 -6 CURVE SMOOTH"
);
}
);
width = 784;
},
{
anchors = (
{
name = bottom;
position = "{372, 0}";
},
{
name = ogonek;
position = "{523, -6}";
},
{
name = top;
position = "{372, 700}";
},
{
name = topright;
position = "{724, 700}";
}
);
layerId = "CCD999A9-9CE8-4787-8FD2-D5D19514269E";
paths = (
{
closed = 1;
nodes = (
"522.667 -6 OFFCURVE",
"634 109 OFFCURVE",
"634 269 CURVE SMOOTH",
"634 700 LINE",
"612 700 LINE",
"612 278 LINE SMOOTH",
"612 124.667 OFFCURVE",
"512 16 OFFCURVE",
"368 16 CURVE SMOOTH",
"228 16 OFFCURVE",
"132 124.667 OFFCURVE",
"132 278 CURVE SMOOTH",
"132 700 LINE",
"110 700 LINE",
"110 269 LINE SMOOTH",
"110 109 OFFCURVE",
"217.333 -6 OFFCURVE",
"368 -6 CURVE SMOOTH"
);
}
);
width = 744;
},
{
anchors = (
{
name = bottom;
position = "{522, 0}";
},
{
name = ogonek;
position = "{694, 0}";
},
{
name = top;
position = "{522, 700}";
},
{
name = topright;
position = "{942, 700}";
}
);
layerId = "649E0662-786D-44F6-8E8D-A6782F19FFAA";
paths = (
{
closed = 1;
nodes = (
"734 -6 OFFCURVE",
"874 139 OFFCURVE",
"874 335 CURVE SMOOTH",
"874 701 LINE",
"771 701 LINE",
"771 339 LINE SMOOTH",
"771 200 OFFCURVE",
"665 99 OFFCURVE",
"522 99 CURVE SMOOTH",
"386 99 OFFCURVE",
"278 200 OFFCURVE",
"278 339 CURVE SMOOTH",
"278 701 LINE",
"170 701 LINE",
"170 335 LINE SMOOTH",
"170 139 OFFCURVE",
"310 -6 OFFCURVE",
"522 -6 CURVE SMOOTH"
);
}
);
width = 1044;
},
{
anchors = (
{
name = bottom;
position = "{524, 0}";
},
{
name = ogonek;
position = "{878, 10}";
},
{
name = top;
position = "{524, 700}";
},
{
name = topright;
position = "{834, 700}";
}
);
layerId = "9FF8E21A-ED06-4F66-AEDE-2CE647DC4B08";
paths = (
{
closed = 1;
nodes = (
"724 -6 OFFCURVE",
"856 138 OFFCURVE",
"856 335 CURVE SMOOTH",
"856 700 LINE",
"834 700 LINE",
"834 339 LINE SMOOTH",
"834 148 OFFCURVE",
"707 17 OFFCURVE",
"520 17 CURVE SMOOTH",
"339 17 OFFCURVE",
"214 148 OFFCURVE",
"214 339 CURVE SMOOTH",
"214 700 LINE",
"192 700 LINE",
"192 337 LINE SMOOTH",
"192 137 OFFCURVE",
"320 -6 OFFCURVE",
"520 -6 CURVE SMOOTH"
);
}
);
width = 1048;
},
{
anchors = (
{
name = bottom;
position = "{544, 0}";
},
{
name = ogonek;
position = "{739, 0}";
},
{
name = top;
position = "{544, 700}";
},
{
name = topright;
position = "{986, 700}";
}
);
layerId = "ED109265-B005-47B0-97BD-F1815082B32B";
paths = (
{
closed = 1;
nodes = (
"775 -6 OFFCURVE",
"926 138 OFFCURVE",
"926 335 CURVE SMOOTH",
"926 700 LINE",
"713 700 LINE",
"713 339 LINE SMOOTH",
"713 243 OFFCURVE",
"644 179 OFFCURVE",
"544 179 CURVE SMOOTH",
"448 179 OFFCURVE",
"380 243 OFFCURVE",
"380 339 CURVE SMOOTH",
"380 700 LINE",
"162 700 LINE",
"162 335 LINE SMOOTH",
"162 138 OFFCURVE",
"313 -6 OFFCURVE",
"544 -6 CURVE SMOOTH"
);
}
);
width = 1088;
},
{
anchors = (
{
name = bottom;
position = "{377, 0}";
},
{
name = ogonek;
position = "{573, 0}";
},
{
name = top;
position = "{377, 700}";
},
{
name = topright;
position = "{733, 700}";
}
);
layerId = "2B3ECD2C-4B3A-40C3-8F2B-A5E41B85E4DD";
paths = (
{
closed = 1;
nodes = (
"531 -7 OFFCURVE",
"645 108 OFFCURVE",
"645 268 CURVE SMOOTH",
"645 700 LINE",
"596 700 LINE",
"596 277 LINE SMOOTH",
"596 141 OFFCURVE",
"503 43 OFFCURVE",
"374 43 CURVE SMOOTH",
"249 43 OFFCURVE",
"158 141 OFFCURVE",
"158 277 CURVE SMOOTH",
"158 700 LINE",
"108 700 LINE",
"108 268 LINE SMOOTH",
"108 108 OFFCURVE",
"219 -7 OFFCURVE",
"374 -7 CURVE SMOOTH"
);
}
);
width = 753;
}
);
leftKerningGroup = U;
rightKerningGroup = U;
unicode = 0055;
},
{
color = 6;
glyphname = Uhorn;
layers = (
{
anchors = (
{
name = bottom;
position = "{372, 0}";
},
{
name = top;
position = "{372, 700}";
}
);
layerId = "CCD999A9-9CE8-4787-8FD2-D5D19514269E";
paths = (
{
closed = 1;
nodes = (
"522.667 -6 OFFCURVE",
"634 109 OFFCURVE",
"634 269 CURVE SMOOTH",
"634 692 LINE",
"620 679 LINE",
"706 679 OFFCURVE",
"749 721 OFFCURVE",
"749 799 CURVE",
"727 799 LINE",
"727 732 OFFCURVE",
"689 700 OFFCURVE",
"621 700 CURVE SMOOTH",
"612 700 LINE",
"612 278 LINE SMOOTH",
"612 124.667 OFFCURVE",
"512 16 OFFCURVE",
"368 16 CURVE SMOOTH",
"228 16 OFFCURVE",
"132 124.667 OFFCURVE",
"132 278 CURVE SMOOTH",
"132 700 LINE",
"110 700 LINE",
"110 269 LINE SMOOTH",
"110 109 OFFCURVE",
"217.333 -6 OFFCURVE",
"368 -6 CURVE SMOOTH"
);
}
);
width = 744;
},
{
anchors = (
{
name = bottom;
position = "{370, 0}";
},
{
name = top;
position = "{370, 700}";
}
);
layerId = "5A878C7E-547A-4951-B48F-676DBBC9B762";
paths = (
{
closed = 1;
nodes = (
"532.667 -6 OFFCURVE",
"652 110.333 OFFCURVE",
"652 269 CURVE SMOOTH",
"652 673 LINE",
"622 621 LINE",
"714 636 OFFCURVE",
"765 707 OFFCURVE",
"765 814 CURVE",
"673 814 LINE",
"673 745.118 OFFCURVE",
"650 701 OFFCURVE",
"587 701 CURVE SMOOTH",
"549 701 LINE",
"549 278 LINE SMOOTH",
"549 176.667 OFFCURVE",
"470 98 OFFCURVE",
"370 98 CURVE SMOOTH",
"275.333 98 OFFCURVE",
"196 176.667 OFFCURVE",
"196 278 CURVE SMOOTH",
"196 701 LINE",
"88 701 LINE",
"88 269 LINE SMOOTH",
"88 110.333 OFFCURVE",
"207.333 -6 OFFCURVE",
"370 -6 CURVE SMOOTH"
);
}
);
width = 740;
},
{
anchors = (
{
name = bottom;
position = "{392, 0}";
},
{
name = top;
position = "{392, 700}";
}
);
layerId = "554F9022-F5DF-470A-8852-5D1AD00D5051";
paths = (
{
closed = 1;
nodes = (
"573.333 -6 OFFCURVE",
"704 109 OFFCURVE",
"704 269 CURVE SMOOTH",
"704 659 LINE",
"645 616 LINE",
"764 626 OFFCURVE",
"811 727 OFFCURVE",
"811 834 CURVE",
"659 834 LINE",
"659 745 OFFCURVE",
"630 700 OFFCURVE",
"570 700 CURVE SMOOTH",
"491 700 LINE",
"491 278 LINE SMOOTH",
"491 219.333 OFFCURVE",
"449.333 178 OFFCURVE",
"392 178 CURVE SMOOTH",
"337.333 178 OFFCURVE",
"298 219.333 OFFCURVE",
"298 278 CURVE SMOOTH",
"298 700 LINE",
"80 700 LINE",
"80 269 LINE SMOOTH",
"80 109 OFFCURVE",
"210.667 -6 OFFCURVE",
"392 -6 CURVE SMOOTH"
);
}
);
width = 784;
},
{
anchors = (
{
name = bottom;
position = "{522, 0}";
},
{
name = top;
position = "{522, 700}";
}
);
layerId = "649E0662-786D-44F6-8E8D-A6782F19FFAA";
paths = (
{
closed = 1;
nodes = (
"734 -6 OFFCURVE",
"874 139 OFFCURVE",
"874 335 CURVE SMOOTH",
"874 682 LINE",
"844 644 LINE",
"939 644 OFFCURVE",
"984 718 OFFCURVE",
"984 814 CURVE",
"892 814 LINE",
"892 740 OFFCURVE",
"871 701 OFFCURVE",
"792 701 CURVE SMOOTH",
"771 701 LINE",
"771 339 LINE SMOOTH",
"771 200 OFFCURVE",
"665 99 OFFCURVE",
"522 99 CURVE SMOOTH",
"386 99 OFFCURVE",
"278 200 OFFCURVE",
"278 339 CURVE SMOOTH",
"278 701 LINE",
"170 701 LINE",
"170 335 LINE SMOOTH",
"170 139 OFFCURVE",
"310 -6 OFFCURVE",
"522 -6 CURVE SMOOTH"
);
}
);
width = 1044;
},
{
anchors = (
{
name = bottom;
position = "{524, 0}";
},
{
name = top;
position = "{524, 700}";
}
);
layerId = "9FF8E21A-ED06-4F66-AEDE-2CE647DC4B08";
paths = (
{
closed = 1;
nodes = (
"724 -6 OFFCURVE",
"856 138 OFFCURVE",
"856 335 CURVE SMOOTH",
"856 696 LINE",
"844 678 LINE",
"909 680 OFFCURVE",
"952 708 OFFCURVE",
"952 799 CURVE",
"930 799 LINE",
"930 733 OFFCURVE",
"905 700 OFFCURVE",
"844 700 CURVE SMOOTH",
"834 700 LINE",
"834 339 LINE SMOOTH",
"834 148 OFFCURVE",
"707 17 OFFCURVE",
"520 17 CURVE SMOOTH",
"339 17 OFFCURVE",
"214 148 OFFCURVE",
"214 339 CURVE SMOOTH",
"214 700 LINE",
"192 700 LINE",
"192 337 LINE SMOOTH",
"192 137 OFFCURVE",
"320 -6 OFFCURVE",
"520 -6 CURVE SMOOTH"
);
}
);
width = 978;
},
{
anchors = (
{
name = bottom;
position = "{544, 0}";
},
{
name = top;
position = "{544, 700}";
}
);
layerId = "ED109265-B005-47B0-97BD-F1815082B32B";
paths = (
{
closed = 1;
nodes = (
"775 -6 OFFCURVE",
"926 138 OFFCURVE",
"926 335 CURVE SMOOTH",
"926 668 LINE",
"867 639 LINE",
"989 634 OFFCURVE",
"1030 738 OFFCURVE",
"1030 834 CURVE",
"878 834 LINE",
"878 740 OFFCURVE",
"851 700 OFFCURVE",
"775 700 CURVE SMOOTH",
"713 700 LINE",
"713 339 LINE SMOOTH",
"713 243 OFFCURVE",
"644 179 OFFCURVE",
"544 179 CURVE SMOOTH",
"448 179 OFFCURVE",
"380 243 OFFCURVE",
"380 339 CURVE SMOOTH",
"380 700 LINE",
"162 700 LINE",
"162 335 LINE SMOOTH",
"162 138 OFFCURVE",
"313 -6 OFFCURVE",
"544 -6 CURVE SMOOTH"
);
}
);
width = 1088;
},
{
anchors = (
{
name = bottom;
position = "{377, 0}";
},
{
name = top;
position = "{377, 700}";
}
);
layerId = "2B3ECD2C-4B3A-40C3-8F2B-A5E41B85E4DD";
paths = (
{
closed = 1;
nodes = (
"531 -7 OFFCURVE",
"645 108 OFFCURVE",
"645 268 CURVE SMOOTH",
"645 690 LINE",
"609 663 LINE",
"709 668 OFFCURVE",
"767 724 OFFCURVE",
"767 810 CURVE",
"719 810 LINE",
"719 740 OFFCURVE",
"679 700 OFFCURVE",
"604 700 CURVE SMOOTH",
"596 700 LINE",
"596 277 LINE SMOOTH",
"596 141 OFFCURVE",
"503 43 OFFCURVE",
"374 43 CURVE SMOOTH",
"249 43 OFFCURVE",
"158 141 OFFCURVE",
"158 277 CURVE SMOOTH",
"158 700 LINE",
"108 700 LINE",
"108 268 LINE SMOOTH",
"108 108 OFFCURVE",
"219 -7 OFFCURVE",
"374 -7 CURVE SMOOTH"
);
}
);
width = 753;
}
);
leftKerningGroup = U;
rightKerningGroup = U;
unicode = 01AF;
},
{
color = 3;
glyphname = Uogonek;
layers = (
{
components = (
{
name = U;
}
);
layerId = "CCD999A9-9CE8-4787-8FD2-D5D19514269E";
paths = (
{
closed = 1;
nodes = (
"499 -236 OFFCURVE",
"533 -214 OFFCURVE",
"549 -182 CURVE",
"534 -169 LINE",
"519 -196 OFFCURVE",
"494 -214 OFFCURVE",
"459 -214 CURVE SMOOTH",
"415 -214 OFFCURVE",
"381 -180 OFFCURVE",
"381 -129 CURVE SMOOTH",
"381 -63 OFFCURVE",
"439 -13 OFFCURVE",
"512 33 CURVE",
"507 51 LINE",
"432 5 OFFCURVE",
"359 -47 OFFCURVE",
"359 -132 CURVE SMOOTH",
"359 -192 OFFCURVE",
"403 -236 OFFCURVE",
"459 -236 CURVE SMOOTH"
);
}
);
width = 744;
},
{
components = (
{
name = U;
}
);
layerId = "5A878C7E-547A-4951-B48F-676DBBC9B762";
paths = (
{
closed = 1;
nodes = (
"482 -200 OFFCURVE",
"529 -171 OFFCURVE",
"543 -138 CURVE",
"487 -98 LINE",
"476 -114 OFFCURVE",
"464 -123 OFFCURVE",
"450 -123 CURVE SMOOTH",
"428 -123 OFFCURVE",
"416 -108 OFFCURVE",
"416 -84 CURVE SMOOTH",
"416 -44 OFFCURVE",
"455 -3 OFFCURVE",
"532 40 CURVE",
"494 85 LINE",
"404 38 OFFCURVE",
"325 -16 OFFCURVE",
"325 -97 CURVE SMOOTH",
"325 -164 OFFCURVE",
"376 -200 OFFCURVE",
"434 -200 CURVE SMOOTH"
);
}
);
width = 740;
},
{
components = (
{
name = U;
}
);
layerId = "554F9022-F5DF-470A-8852-5D1AD00D5051";
paths = (
{
closed = 1;
nodes = (
"541 -220 OFFCURVE",
"588 -179 OFFCURVE",
"613 -133 CURVE",
"533 -74 LINE",
"524 -90 OFFCURVE",
"516 -97 OFFCURVE",
"503 -97 CURVE SMOOTH",
"489 -97 OFFCURVE",
"479 -84 OFFCURVE",
"479 -67 CURVE SMOOTH",
"479 -15 OFFCURVE",
"543 23 OFFCURVE",
"594 55 CURVE",
"562 104 LINE",
"442 48 OFFCURVE",
"353 -9 OFFCURVE",
"353 -103 CURVE SMOOTH",
"353 -170 OFFCURVE",
"401 -220 OFFCURVE",
"475 -220 CURVE SMOOTH"
);
}
);
width = 784;
},
{
components = (
{
name = U;
}
);
layerId = "649E0662-786D-44F6-8E8D-A6782F19FFAA";
paths = (
{
closed = 1;
nodes = (
"669 -200 OFFCURVE",
"713 -166 OFFCURVE",
"724 -138 CURVE",
"668 -98 LINE",
"660 -111 OFFCURVE",
"648 -123 OFFCURVE",
"631 -123 CURVE SMOOTH",
"610 -123 OFFCURVE",
"597 -108 OFFCURVE",
"597 -81 CURVE SMOOTH",
"597 -21 OFFCURVE",
"676 22 OFFCURVE",
"703 37 CURVE",
"682 91 LINE",
"644 61 OFFCURVE",
"506 0 OFFCURVE",
"506 -99 CURVE SMOOTH",
"506 -158 OFFCURVE",
"553 -200 OFFCURVE",
"615 -200 CURVE SMOOTH"
);
}
);
width = 1044;
},
{
components = (
{
name = U;
}
);
layerId = "9FF8E21A-ED06-4F66-AEDE-2CE647DC4B08";
paths = (
{
closed = 1;
nodes = (
"649 -236 OFFCURVE",
"678 -214 OFFCURVE",
"699 -182 CURVE",
"684 -169 LINE",
"669 -196 OFFCURVE",
"644 -214 OFFCURVE",
"609 -214 CURVE SMOOTH",
"565 -214 OFFCURVE",
"531 -180 OFFCURVE",
"531 -135 CURVE SMOOTH",
"531 -83 OFFCURVE",
"564 -25 OFFCURVE",
"707 45 CURVE",
"702 63 LINE",
"559 -6 OFFCURVE",
"509 -67 OFFCURVE",
"509 -138 CURVE SMOOTH",
"509 -192 OFFCURVE",
"553 -236 OFFCURVE",
"609 -236 CURVE SMOOTH"
);
}
);
width = 1048;
},
{
components = (
{
name = U;
}
);
layerId = "ED109265-B005-47B0-97BD-F1815082B32B";
paths = (
{
closed = 1;
nodes = (
"728 -220 OFFCURVE",
"772 -174 OFFCURVE",
"794 -133 CURVE",
"714 -74 LINE",
"708 -87 OFFCURVE",
"700 -97 OFFCURVE",
"684 -97 CURVE SMOOTH",
"671 -97 OFFCURVE",
"660 -84 OFFCURVE",
"660 -64 CURVE SMOOTH",
"660 8 OFFCURVE",
"764 48 OFFCURVE",
"765 52 CURVE",
"750 110 LINE",
"682 71 OFFCURVE",
"534 7 OFFCURVE",
"534 -105 CURVE SMOOTH",
"534 -164 OFFCURVE",
"578 -220 OFFCURVE",
"656 -220 CURVE SMOOTH"
);
}
);
width = 1088;
},
{
anchors = (
{
name = bottom;
position = "{544, 0}";
},
{
name = ogonek;
position = "{739, 0}";
},
{
name = top;
position = "{544, 700}";
},
{
name = topright;
position = "{986, 700}";
}
);
associatedMasterId = "ED109265-B005-47B0-97BD-F1815082B32B";
components = (
{
name = U;
}
);
layerId = "3D259DE2-AEE4-4C27-911A-2FDBF605161C";
name = foreground;
paths = (
{
closed = 1;
nodes = (
"728 -220 OFFCURVE",
"772 -174 OFFCURVE",
"794 -133 CURVE",
"714 -74 LINE",
"708 -87 OFFCURVE",
"700 -97 OFFCURVE",
"684 -97 CURVE SMOOTH",
"671 -97 OFFCURVE",
"660 -84 OFFCURVE",
"660 -64 CURVE SMOOTH",
"660 8 OFFCURVE",
"764 48 OFFCURVE",
"765 52 CURVE",
"750 110 LINE",
"682 71 OFFCURVE",
"534 7 OFFCURVE",
"534 -105 CURVE SMOOTH",
"534 -164 OFFCURVE",
"578 -220 OFFCURVE",
"656 -220 CURVE SMOOTH"
);
}
);
width = 1088;
},
{
components = (
{
name = U;
}
);
layerId = "2B3ECD2C-4B3A-40C3-8F2B-A5E41B85E4DD";
paths = (
{
closed = 1;
nodes = (
"524 -221 OFFCURVE",
"557 -203 OFFCURVE",
"583 -170 CURVE",
"550 -146 LINE",
"534 -165 OFFCURVE",
"510 -178 OFFCURVE",
"481 -178 CURVE SMOOTH",
"442 -178 OFFCURVE",
"412 -152 OFFCURVE",
"412 -107 CURVE SMOOTH",
"412 -39 OFFCURVE",
"484 6 OFFCURVE",
"550 54 CURVE",
"524 76 LINE",
"442 22 OFFCURVE",
"364 -24 OFFCURVE",
"364 -111 CURVE SMOOTH",
"364 -177 OFFCURVE",
"415 -221 OFFCURVE",
"479 -221 CURVE SMOOTH"
);
}
);
width = 753;
}
);
leftKerningGroup = U;
rightKerningGroup = U;
unicode = 0172;
},
{
color = 6;
glyphname = V;
layers = (
{
anchors = (
{
name = bottom;
position = "{358, 0}";
},
{
name = top;
position = "{358, 700}";
}
);
layerId = "5A878C7E-547A-4951-B48F-676DBBC9B762";
paths = (
{
closed = 1;
nodes = (
"409 0 LINE",
"691 700 LINE",
"565 700 LINE",
"410 275 LINE SMOOTH",
"380.667 196.333 OFFCURVE",
"364.333 146 OFFCURVE",
"351 98 CURVE",
"377 99 LINE",
"362.333 145.667 OFFCURVE",
"346 192.333 OFFCURVE",
"314 275 CURVE SMOOTH",
"147 700 LINE",
"24 700 LINE",
"304 0 LINE"
);
}
);
width = 715;
},
{
anchors = (
{
name = bottom;
position = "{355, 0}";
},
{
name = top;
position = "{355, 700}";
}
);
layerId = "554F9022-F5DF-470A-8852-5D1AD00D5051";
paths = (
{
closed = 1;
nodes = (
"439 0 LINE",
"720 700 LINE",
"511 700 LINE",
"399 394 LINE SMOOTH",
"368.333 311.333 OFFCURVE",
"360 288 OFFCURVE",
"340 204 CURVE",
"375 204 LINE",
"356.333 288 OFFCURVE",
"348.667 311.333 OFFCURVE",
"318 394 CURVE SMOOTH",
"206 700 LINE",
"-10 700 LINE",
"269 0 LINE"
);
}
);
width = 710;
},
{
anchors = (
{
name = bottom;
position = "{302, 0}";
},
{
name = top;
position = "{302, 700}";
}
);
layerId = "CCD999A9-9CE8-4787-8FD2-D5D19514269E";
paths = (
{
closed = 1;
nodes = (
"315 0 LINE",
"584 700 LINE",
"558 700 LINE",
"320.35 73.892 LINE SMOOTH",
"306 37 OFFCURVE",
"297.097 14.992 OFFCURVE",
"295 8 CURVE",
"308 8 LINE",
"305.213 14.969 OFFCURVE",
"296.639 37.55 OFFCURVE",
"282.281 75.744 CURVE SMOOTH",
"46 700 LINE",
"20 700 LINE",
"288 0 LINE"
);
}
);
width = 604;
},
{
anchors = (
{
name = bottom;
position = "{476, 0}";
},
{
name = top;
position = "{476, 700}";
}
);
layerId = "649E0662-786D-44F6-8E8D-A6782F19FFAA";
paths = (
{
closed = 1;
nodes = (
"545 0 LINE",
"860 700 LINE",
"733 700 LINE",
"560 281 LINE SMOOTH",
"536 223 OFFCURVE",
"489 120 OFFCURVE",
"467 60 CURVE",
"499 61 LINE",
"477 127 OFFCURVE",
"418 246 OFFCURVE",
"401 283 CURVE SMOOTH",
"214 700 LINE",
"92 700 LINE",
"415 0 LINE"
);
}
);
width = 952;
},
{
anchors = (
{
name = bottom;
position = "{450, 0}";
},
{
name = top;
position = "{450, 700}";
}
);
layerId = "9FF8E21A-ED06-4F66-AEDE-2CE647DC4B08";
paths = (
{
closed = 1;
nodes = (
"465 0 LINE",
"810 700 LINE",
"786 701 LINE",
"509 137 LINE SMOOTH",
"489 96 OFFCURVE",
"472 62 OFFCURVE",
"445 9 CURVE",
"455 9 LINE",
"447 24 OFFCURVE",
"436 45 OFFCURVE",
"390 138 CURVE SMOOTH",
"114 701 LINE",
"90 700 LINE",
"434 0 LINE"
);
}
);
width = 900;
},
{
anchors = (
{
name = bottom;
position = "{473, 0}";
},
{
name = top;
position = "{473, 700}";
}
);
layerId = "ED109265-B005-47B0-97BD-F1815082B32B";
paths = (
{
closed = 1;
nodes = (
"575 0 LINE",
"889 700 LINE",
"679 700 LINE",
"549 400 LINE SMOOTH",
"524 338 OFFCURVE",
"485 262 OFFCURVE",
"456 166 CURVE",
"497 166 LINE",
"471 269 OFFCURVE",
"421 365 OFFCURVE",
"405 402 CURVE SMOOTH",
"273 700 LINE",
"58 700 LINE",
"380 0 LINE"
);
}
);
width = 947;
},
{
anchors = (
{
name = bottom;
position = "{324, 0}";
},
{
name = top;
position = "{324, 700}";
}
);
layerId = "2B3ECD2C-4B3A-40C3-8F2B-A5E41B85E4DD";
paths = (
{
closed = 1;
nodes = (
"346 0 LINE",
"622 700 LINE",
"568 700 LINE",
"380 222 LINE SMOOTH",
"346.667 138 OFFCURVE",
"334 99.667 OFFCURVE",
"306 13 CURVE",
"333 13 LINE",
"306.333 97 OFFCURVE",
"292.667 133.333 OFFCURVE",
"262 216 CURVE SMOOTH",
"81 700 LINE",
"25 700 LINE",
"288 0 LINE"
);
}
);
width = 647;
}
);
leftKerningGroup = V;
rightKerningGroup = V;
unicode = 0056;
},
{
color = 6;
glyphname = W;
layers = (
{
anchors = (
{
name = bottom;
position = "{498, 0}";
},
{
name = top;
position = "{498, 700}";
}
);
layerId = "5A878C7E-547A-4951-B48F-676DBBC9B762";
paths = (
{
closed = 1;
nodes = (
"320 0 LINE",
"498 434 LINE",
"489 438 LINE",
"674 0 LINE",
"749 0 LINE",
"972 700 LINE",
"856 700 LINE",
"723 265 LINE SMOOTH",
"696 177 OFFCURVE",
"705 203 OFFCURVE",
"688 112 CURVE",
"714 119 LINE",
"700 171 OFFCURVE",
"690 214 OFFCURVE",
"670 263 CURVE SMOOTH",
"548 579 LINE",
"451 579 LINE",
"325 263 LINE SMOOTH",
"316.809 241.939 OFFCURVE",
"308.257 215.047 OFFCURVE",
"279 110 CURVE",
"308 109 LINE",
"301 140 OFFCURVE",
"289 218 OFFCURVE",
"274 262 CURVE SMOOTH",
"139 700 LINE",
"24 700 LINE",
"247 0 LINE"
);
}
);
width = 996;
},
{
anchors = (
{
name = bottom;
position = "{495, 0}";
},
{
name = top;
position = "{495, 700}";
}
);
layerId = "554F9022-F5DF-470A-8852-5D1AD00D5051";
paths = (
{
closed = 1;
nodes = (
"369 0 LINE",
"504 377 LINE",
"477 377 LINE",
"629 0 LINE",
"799 0 LINE",
"1000 700 LINE",
"791 700 LINE",
"709 384 LINE SMOOTH",
"687.667 301.333 OFFCURVE",
"690 232.667 OFFCURVE",
"690 194 CURVE",
"705 194 LINE",
"705 246 OFFCURVE",
"696 304 OFFCURVE",
"668 384 CURVE SMOOTH",
"581 631 LINE",
"416 631 LINE",
"329 384 LINE SMOOTH",
"301 302.667 OFFCURVE",
"300 244.667 OFFCURVE",
"300 194 CURVE",
"316 194 LINE",
"316 231.333 OFFCURVE",
"309.333 301.333 OFFCURVE",
"288 384 CURVE SMOOTH",
"206 700 LINE",
"-10 700 LINE",
"189 0 LINE"
);
}
);
width = 990;
},
{
anchors = (
{
name = bottom;
position = "{425, 0}";
},
{
name = top;
position = "{425, 700}";
}
);
layerId = "CCD999A9-9CE8-4787-8FD2-D5D19514269E";
paths = (
{
closed = 1;
nodes = (
"242 0 LINE",
"434 499 LINE",
"415 499 LINE",
"607 0 LINE",
"633 0 LINE",
"829 700 LINE",
"805 700 LINE",
"663 193 LINE SMOOTH",
"633 84 OFFCURVE",
"644 123 OFFCURVE",
"612 15 CURVE",
"625 15 LINE",
"569.338 154.037 OFFCURVE",
"559.671 178.829 OFFCURVE",
"551 202 CURVE SMOOTH",
"432 520 LINE",
"417 520 LINE",
"297 202 LINE SMOOTH",
"279.453 155.5 OFFCURVE",
"263.641 112.783 OFFCURVE",
"224 15 CURVE",
"236 15 LINE",
"212 95 OFFCURVE",
"208 113 OFFCURVE",
"186 193 CURVE SMOOTH",
"44 700 LINE",
"20 700 LINE",
"216 0 LINE"
);
}
);
userData = {
com.schriftgestaltung.Glyphs.glyph.leftMetricsKey = V;
com.schriftgestaltung.Glyphs.glyph.rightMetricsKey = V;
};
width = 849;
},
{
anchors = (
{
name = bottom;
position = "{638, 0}";
},
{
name = top;
position = "{638, 700}";
}
);
layerId = "649E0662-786D-44F6-8E8D-A6782F19FFAA";
paths = (
{
closed = 1;
nodes = (
"433 0 LINE",
"637 467 LINE",
"618 471 LINE",
"821 0 LINE",
"896 0 LINE",
"1184 700 LINE",
"1068 700 LINE",
"904 296 LINE SMOOTH",
"879 236 OFFCURVE",
"856 157 OFFCURVE",
"840 102 CURVE",
"880 109 LINE",
"867 160 OFFCURVE",
"834 234 OFFCURVE",
"809 291 CURVE SMOOTH",
"684 579 LINE",
"580 579 LINE",
"451 289 LINE SMOOTH",
"424 229 OFFCURVE",
"394 153 OFFCURVE",
"375 100 CURVE",
"419 99 LINE",
"403 152 OFFCURVE",
"380 229 OFFCURVE",
"359 289 CURVE SMOOTH",
"211 700 LINE",
"92 700 LINE",
"350 0 LINE"
);
}
);
width = 1276;
},
{
anchors = (
{
name = bottom;
position = "{567, 0}";
},
{
name = top;
position = "{567, 700}";
}
);
layerId = "9FF8E21A-ED06-4F66-AEDE-2CE647DC4B08";
paths = (
{
closed = 1;
nodes = (
"357 0 LINE",
"567 517 LINE",
"554 517 LINE",
"757 0 LINE",
"781 0 LINE",
"1043 700 LINE",
"1019 700 LINE",
"840 224 LINE SMOOTH",
"817 161 OFFCURVE",
"800 115 OFFCURVE",
"762 10 CURVE",
"776 10 LINE",
"768 29 OFFCURVE",
"755 62 OFFCURVE",
"738 108 CURVE SMOOTH",
"568 541 LINE",
"553 541 LINE",
"427 228 LINE SMOOTH",
"400 165 OFFCURVE",
"385 126 OFFCURVE",
"338 10 CURVE",
"343 10 LINE",
"314 100 OFFCURVE",
"302 130 OFFCURVE",
"273 220 CURVE SMOOTH",
"114 700 LINE",
"90 700 LINE",
"324 0 LINE"
);
}
);
userData = {
com.schriftgestaltung.Glyphs.glyph.leftMetricsKey = V;
com.schriftgestaltung.Glyphs.glyph.rightMetricsKey = V;
};
width = 1133;
},
{
anchors = (
{
name = bottom;
position = "{635, 0}";
},
{
name = top;
position = "{635, 700}";
}
);
layerId = "ED109265-B005-47B0-97BD-F1815082B32B";
paths = (
{
closed = 1;
nodes = (
"482 0 LINE",
"643 410 LINE",
"606 410 LINE",
"776 0 LINE",
"946 0 LINE",
"1212 700 LINE",
"1003 700 LINE",
"890 415 LINE SMOOTH",
"871 360 OFFCURVE",
"843 235 OFFCURVE",
"842 184 CURVE",
"871 184 LINE",
"870 235 OFFCURVE",
"840 324 OFFCURVE",
"807 412 CURVE SMOOTH",
"717 631 LINE",
"545 631 LINE",
"455 410 LINE SMOOTH",
"420 325 OFFCURVE",
"397 235 OFFCURVE",
"396 184 CURVE",
"427 184 LINE",
"426 235 OFFCURVE",
"389 361 OFFCURVE",
"373 411 CURVE SMOOTH",
"278 700 LINE",
"58 700 LINE",
"292 0 LINE"
);
}
);
width = 1270;
},
{
anchors = (
{
name = bottom;
position = "{459, 0}";
},
{
name = top;
position = "{459, 700}";
}
);
layerId = "2B3ECD2C-4B3A-40C3-8F2B-A5E41B85E4DD";
paths = (
{
closed = 1;
nodes = (
"281 0 LINE",
"467 460 LINE",
"441 461 LINE",
"634 0 LINE",
"689 0 LINE",
"892 700 LINE",
"838 700 LINE",
"701 222 LINE SMOOTH",
"674 129 OFFCURVE",
"672 115.333 OFFCURVE",
"656 38 CURVE",
"662 38 LINE",
"643 114 OFFCURVE",
"623 153 OFFCURVE",
"597 216 CURVE SMOOTH",
"480 502 LINE",
"429 502 LINE",
"319 222 LINE SMOOTH",
"286 139 OFFCURVE",
"276.667 115.333 OFFCURVE",
"254 38 CURVE",
"260 38 LINE",
"245.333 115.333 OFFCURVE",
"239 132 OFFCURVE",
"216 216 CURVE SMOOTH",
"81 700 LINE",
"25 700 LINE",
"226 0 LINE"
);
}
);
userData = {
com.schriftgestaltung.Glyphs.glyph.leftMetricsKey = V;
com.schriftgestaltung.Glyphs.glyph.rightMetricsKey = V;
};
width = 917;
}
);
leftKerningGroup = W;
leftMetricsKey = V;
rightKerningGroup = W;
rightMetricsKey = V;
unicode = 0057;
},
{
color = 6;
glyphname = X;
layers = (
{
anchors = (
{
name = bottom;
position = "{343, 0}";
},
{
name = top;
position = "{343, 700}";
}
);
layerId = "5A878C7E-547A-4951-B48F-676DBBC9B762";
paths = (
{
closed = 1;
nodes = (
"661 0 LINE",
"378 390 LINE",
"166 700 LINE",
"29 700 LINE",
"307 314 LINE",
"524 0 LINE"
);
},
{
closed = 1;
nodes = (
"151 0 LINE",
"358 302 LINE",
"291 381 LINE",
"24 0 LINE"
);
},
{
closed = 1;
nodes = (
"651 700 LINE",
"524 700 LINE",
"328 401 LINE",
"394 325 LINE"
);
}
);
width = 685;
},
{
anchors = (
{
name = bottom;
position = "{360, 0}";
},
{
name = top;
position = "{360, 700}";
}
);
layerId = "554F9022-F5DF-470A-8852-5D1AD00D5051";
paths = (
{
closed = 1;
nodes = (
"739 0 LINE",
"456 390 LINE",
"244 700 LINE",
"-15 700 LINE",
"263 314 LINE",
"480 0 LINE"
);
},
{
closed = 1;
nodes = (
"229 0 LINE",
"436 302 LINE",
"247 381 LINE",
"-20 0 LINE"
);
},
{
closed = 1;
nodes = (
"729 700 LINE",
"480 700 LINE",
"284 401 LINE",
"472 325 LINE"
);
}
);
width = 719;
},
{
anchors = (
{
name = bottom;
position = "{292, 0}";
},
{
name = top;
position = "{292, 700}";
}
);
layerId = "CCD999A9-9CE8-4787-8FD2-D5D19514269E";
paths = (
{
closed = 1;
nodes = (
"562 0 LINE",
"295 366 LINE",
"56 700 LINE",
"27 700 LINE",
"281 349 LINE",
"533 0 LINE"
);
},
{
closed = 1;
nodes = (
"50 0 LINE",
"297 350 LINE",
"281 363 LINE",
"22 0 LINE"
);
},
{
closed = 1;
nodes = (
"552 700 LINE",
"524 700 LINE",
"282 365 LINE",
"299 352 LINE"
);
}
);
width = 584;
},
{
anchors = (
{
name = bottom;
position = "{481, 0}";
},
{
name = top;
position = "{481, 700}";
}
);
layerId = "649E0662-786D-44F6-8E8D-A6782F19FFAA";
paths = (
{
closed = 1;
nodes = (
"870 0 LINE",
"511 397 LINE",
"244 700 LINE",
"97 700 LINE",
"444 316 LINE",
"722 0 LINE"
);
},
{
closed = 1;
nodes = (
"233 0 LINE",
"486 302 LINE",
"425 381 LINE",
"92 0 LINE"
);
},
{
closed = 1;
nodes = (
"859 700 LINE",
"717 700 LINE",
"476 401 LINE",
"535 325 LINE"
);
}
);
width = 962;
},
{
anchors = (
{
name = bottom;
position = "{431, 0}";
},
{
name = top;
position = "{431, 700}";
}
);
layerId = "9FF8E21A-ED06-4F66-AEDE-2CE647DC4B08";
paths = (
{
closed = 1;
nodes = (
"771 0 LINE",
"431 369 LINE",
"127 700 LINE",
"98 700 LINE",
"418 353 LINE",
"741 0 LINE"
);
},
{
closed = 1;
nodes = (
"119 0 LINE",
"432 350 LINE",
"416 366 LINE",
"90 0 LINE"
);
},
{
closed = 1;
nodes = (
"758 700 LINE",
"728 700 LINE",
"417 368 LINE",
"433 352 LINE"
);
}
);
width = 861;
},
{
anchors = (
{
name = bottom;
position = "{498, 0}";
},
{
name = top;
position = "{498, 700}";
}
);
layerId = "ED109265-B005-47B0-97BD-F1815082B32B";
paths = (
{
closed = 1;
nodes = (
"948 0 LINE",
"589 397 LINE",
"322 700 LINE",
"53 700 LINE",
"400 316 LINE",
"678 0 LINE"
);
},
{
closed = 1;
nodes = (
"311 0 LINE",
"564 302 LINE",
"381 381 LINE",
"48 0 LINE"
);
},
{
closed = 1;
nodes = (
"937 700 LINE",
"673 700 LINE",
"432 401 LINE",
"613 325 LINE"
);
}
);
width = 996;
},
{
anchors = (
{
name = bottom;
position = "{311, 0}";
},
{
name = top;
position = "{311, 700}";
}
);
layerId = "2B3ECD2C-4B3A-40C3-8F2B-A5E41B85E4DD";
paths = (
{
closed = 1;
nodes = (
"597 0 LINE",
"314 390 LINE",
"92 700 LINE",
"30 700 LINE",
"289 342 LINE",
"535 0 LINE"
);
},
{
closed = 1;
nodes = (
"82 0 LINE",
"319 338 LINE",
"287 374 LINE",
"25 0 LINE"
);
},
{
closed = 1;
nodes = (
"587 700 LINE",
"530 700 LINE",
"301 374 LINE",
"329 338 LINE"
);
}
);
width = 622;
}
);
leftKerningGroup = X;
rightKerningGroup = X;
unicode = 0058;
},
{
color = 6;
glyphname = Y;
layers = (
{
anchors = (
{
name = bottom;
position = "{330, 0}";
},
{
name = top;
position = "{330, 700}";
},
{
name = topleft;
position = "{20, 700}";
}
);
layerId = "5A878C7E-547A-4951-B48F-676DBBC9B762";
paths = (
{
closed = 1;
nodes = (
"394 0 LINE",
"394 357 LINE",
"379 289 LINE",
"650 700 LINE",
"526 700 LINE",
"331 393 LINE",
"356 390 LINE",
"140 700 LINE",
"10 700 LINE",
"293 300 LINE",
"286 349 LINE",
"286 0 LINE"
);
}
);
width = 660;
},
{
anchors = (
{
name = bottom;
position = "{355, 0}";
},
{
name = top;
position = "{355, 700}";
},
{
name = topleft;
position = "{20, 700}";
}
);
layerId = "554F9022-F5DF-470A-8852-5D1AD00D5051";
paths = (
{
closed = 1;
nodes = (
"474 0 LINE",
"474 357 LINE",
"459 289 LINE",
"730 700 LINE",
"496 700 LINE",
"301 393 LINE",
"436 390 LINE",
"220 700 LINE",
"-20 700 LINE",
"263 300 LINE",
"256 349 LINE",
"256 0 LINE"
);
}
);
width = 710;
},
{
anchors = (
{
name = bottom;
position = "{296, 0}";
},
{
name = top;
position = "{296, 700}";
},
{
name = topleft;
position = "{20, 700}";
}
);
layerId = "CCD999A9-9CE8-4787-8FD2-D5D19514269E";
paths = (
{
closed = 1;
nodes = (
"311 0 LINE",
"311 339 LINE",
"302 300 LINE",
"572 700 LINE",
"546 700 LINE",
"294 327 LINE",
"305 327 LINE",
"46 700 LINE",
"20 700 LINE",
"297 300 LINE",
"289 339 LINE",
"289 0 LINE"
);
}
);
width = 592;
},
{
anchors = (
{
name = bottom;
position = "{480, 0}";
},
{
name = top;
position = "{480, 700}";
},
{
name = topleft;
position = "{90, 700}";
}
);
layerId = "649E0662-786D-44F6-8E8D-A6782F19FFAA";
paths = (
{
closed = 1;
nodes = (
"544 0 LINE",
"544 321 LINE",
"539 263 LINE",
"880 700 LINE",
"746 700 LINE",
"480 347 LINE",
"503 347 LINE",
"230 700 LINE",
"80 700 LINE",
"456 236 LINE",
"436 313 LINE",
"436 0 LINE"
);
}
);
width = 960;
},
{
anchors = (
{
name = bottom;
position = "{446, 0}";
},
{
name = top;
position = "{446, 700}";
},
{
name = topleft;
position = "{90, 700}";
}
);
layerId = "9FF8E21A-ED06-4F66-AEDE-2CE647DC4B08";
paths = (
{
closed = 1;
nodes = (
"461 0 LINE",
"461 276 LINE",
"452 255 LINE",
"802 700 LINE",
"774 700 LINE",
"446 281 LINE",
"453 281 LINE",
"118 700 LINE",
"90 700 LINE",
"447 255 LINE",
"439 276 LINE",
"439 0 LINE"
);
}
);
width = 892;
},
{
anchors = (
{
name = bottom;
position = "{505, 0}";
},
{
name = top;
position = "{505, 700}";
},
{
name = topleft;
position = "{90, 700}";
}
);
layerId = "ED109265-B005-47B0-97BD-F1815082B32B";
paths = (
{
closed = 1;
nodes = (
"624 0 LINE",
"624 321 LINE",
"619 263 LINE",
"960 700 LINE",
"716 700 LINE",
"450 347 LINE",
"583 347 LINE",
"310 700 LINE",
"50 700 LINE",
"426 236 LINE",
"406 313 LINE",
"406 0 LINE"
);
}
);
width = 1010;
},
{
anchors = (
{
name = bottom;
position = "{316, 0}";
},
{
name = top;
position = "{316, 700}";
},
{
name = topleft;
position = "{20, 700}";
}
);
layerId = "2B3ECD2C-4B3A-40C3-8F2B-A5E41B85E4DD";
paths = (
{
closed = 1;
nodes = (
"350 0 LINE",
"350 357 LINE",
"335 289 LINE",
"606 700 LINE",
"548 700 LINE",
"318 348 LINE",
"335 348 LINE",
"87 700 LINE",
"25 700 LINE",
"308 300 LINE",
"301 349 LINE",
"301 0 LINE"
);
}
);
width = 631;
}
);
leftKerningGroup = Y;
rightKerningGroup = Y;
unicode = 0059;
},
{
color = 6;
glyphname = Z;
layers = (
{
anchors = (
{
name = bottom;
position = "{330, 0}";
},
{
name = center;
position = "{330, 350}";
},
{
name = top;
position = "{330, 700}";
}
);
layerId = "5A878C7E-547A-4951-B48F-676DBBC9B762";
paths = (
{
closed = 1;
nodes = (
"604 0 LINE",
"604 104 LINE",
"180 104 LINE",
"196 87 LINE",
"593 622 LINE",
"593 700 LINE",
"86 700 LINE",
"86 596 LINE",
"474 596 LINE",
"459 613 LINE",
"60 79 LINE",
"60 0 LINE"
);
}
);
width = 659;
},
{
anchors = (
{
name = bottom;
position = "{351, 0}";
},
{
name = center;
position = "{351, 350}";
},
{
name = top;
position = "{351, 700}";
}
);
layerId = "554F9022-F5DF-470A-8852-5D1AD00D5051";
paths = (
{
closed = 1;
nodes = (
"641 0 LINE",
"641 182 LINE",
"180 182 LINE",
"273 87 LINE",
"630 562 LINE",
"630 700 LINE",
"86 700 LINE",
"86 506 LINE",
"511 506 LINE",
"419 613 LINE",
"60 139 LINE",
"60 0 LINE"
);
}
);
width = 701;
},
{
anchors = (
{
name = bottom;
position = "{317, 0}";
},
{
name = center;
position = "{317, 350}";
},
{
name = top;
position = "{317, 700}";
}
);
layerId = "CCD999A9-9CE8-4787-8FD2-D5D19514269E";
paths = (
{
closed = 1;
nodes = (
"574 0 LINE",
"574 22 LINE",
"75 22 LINE",
"78 10 LINE",
"563 677.499 LINE",
"563 700 LINE",
"86 700 LINE",
"86 678 LINE",
"557 678 LINE",
"545 692 LINE",
"60 23.501 LINE",
"60 0 LINE"
);
}
);
width = 634;
},
{
anchors = (
{
name = bottom;
position = "{440, 0}";
},
{
name = center;
position = "{440, 350}";
},
{
name = top;
position = "{440, 700}";
}
);
layerId = "649E0662-786D-44F6-8E8D-A6782F19FFAA";
paths = (
{
closed = 1;
nodes = (
"784 0 LINE",
"784 106 LINE",
"220 106 LINE",
"258 87 LINE",
"773 622 LINE",
"773 700 LINE",
"126 700 LINE",
"126 594 LINE",
"654 594 LINE",
"615 613 LINE",
"100 79 LINE",
"100 0 LINE"
);
}
);
width = 884;
},
{
anchors = (
{
name = bottom;
position = "{427, 0}";
},
{
name = center;
position = "{427, 350}";
},
{
name = top;
position = "{427, 700}";
}
);
layerId = "9FF8E21A-ED06-4F66-AEDE-2CE647DC4B08";
paths = (
{
closed = 1;
nodes = (
"754 0 LINE",
"754 22 LINE",
"121 22 LINE",
"117 10 LINE",
"743 677 LINE",
"743 700 LINE",
"126 700 LINE",
"126 678 LINE",
"723 678 LINE",
"727 692 LINE",
"100 24 LINE",
"100 0 LINE"
);
}
);
width = 859;
},
{
anchors = (
{
name = bottom;
position = "{461, 0}";
},
{
name = center;
position = "{461, 350}";
},
{
name = top;
position = "{461, 700}";
}
);
layerId = "ED109265-B005-47B0-97BD-F1815082B32B";
paths = (
{
closed = 1;
nodes = (
"821 0 LINE",
"821 184 LINE",
"220 184 LINE",
"335 87 LINE",
"810 562 LINE",
"810 700 LINE",
"126 700 LINE",
"126 504 LINE",
"691 504 LINE",
"575 613 LINE",
"100 139 LINE",
"100 0 LINE"
);
}
);
width = 926;
},
{
anchors = (
{
name = bottom;
position = "{319, 0}";
},
{
name = center;
position = "{319, 350}";
},
{
name = top;
position = "{319, 700}";
}
);
layerId = "2B3ECD2C-4B3A-40C3-8F2B-A5E41B85E4DD";
paths = (
{
closed = 1;
nodes = (
"584 0 LINE",
"584 50 LINE",
"96 50 LINE",
"110 26 LINE",
"573 659 LINE",
"573 700 LINE",
"86 700 LINE",
"86 650 LINE",
"540 650 LINE",
"525 674 LINE",
"60 42 LINE",
"60 0 LINE"
);
}
);
width = 637;
}
);
leftKerningGroup = Z;
rightKerningGroup = Z;
unicode = 005A;
},
{
color = 6;
glyphname = I.ss01;
layers = (
{
anchors = (
{
name = bottom;
position = "{154, 0}";
},
{
name = ogonek;
position = "{208, 0}";
},
{
name = top;
position = "{154, 700}";
},
{
name = topleft;
position = "{20, 700}";
}
);
layerId = "5A878C7E-547A-4951-B48F-676DBBC9B762";
paths = (
{
closed = 1;
nodes = (
"208 0 LINE",
"208 700 LINE",
"190 700 OFFCURVE",
"172 700 OFFCURVE",
"154 700 CURVE SMOOTH",
"100 700 LINE",
"100 0 LINE"
);
}
);
width = 308;
},
{
anchors = (
{
name = bottom;
position = "{188, 0}";
},
{
name = ogonek;
position = "{267, 0}";
},
{
name = top;
position = "{188, 700}";
},
{
name = topleft;
position = "{20, 700}";
}
);
layerId = "554F9022-F5DF-470A-8852-5D1AD00D5051";
paths = (
{
closed = 1;
nodes = (
"296 0 LINE",
"296 700 LINE",
"260 700 OFFCURVE",
"224 700 OFFCURVE",
"188 700 CURVE SMOOTH",
"80 700 LINE",
"80 0 LINE"
);
}
);
width = 376;
},
{
anchors = (
{
name = bottom;
position = "{154, 0}";
},
{
name = ogonek;
position = "{165, 0}";
},
{
name = top;
position = "{154, 700}";
},
{
name = topleft;
position = "{20, 700}";
}
);
layerId = "CCD999A9-9CE8-4787-8FD2-D5D19514269E";
paths = (
{
closed = 1;
nodes = (
"164.501 0 LINE",
"164.501 700 LINE",
"160.5 700 OFFCURVE",
"157 700 OFFCURVE",
"154 700 CURVE SMOOTH",
"143.499 700 LINE",
"143.499 0 LINE"
);
}
);
width = 308;
},
{
anchors = (
{
name = bottom;
position = "{246, 0}";
},
{
name = ogonek;
position = "{300, 0}";
},
{
name = top;
position = "{246, 700}";
},
{
name = topleft;
position = "{112, 700}";
}
);
layerId = "649E0662-786D-44F6-8E8D-A6782F19FFAA";
paths = (
{
closed = 1;
nodes = (
"300 0 LINE",
"300 700 LINE",
"299 700 OFFCURVE",
"281 700 OFFCURVE",
"246 700 CURVE SMOOTH",
"192 700 LINE",
"192 0 LINE"
);
}
);
width = 492;
},
{
anchors = (
{
name = bottom;
position = "{246, 0}";
},
{
name = ogonek;
position = "{257, 0}";
},
{
name = top;
position = "{246, 700}";
},
{
name = topleft;
position = "{104, 700}";
}
);
layerId = "9FF8E21A-ED06-4F66-AEDE-2CE647DC4B08";
paths = (
{
closed = 1;
nodes = (
"257 0 LINE",
"257 700 LINE",
"270 700 OFFCURVE",
"267 700 OFFCURVE",
"246 700 CURVE SMOOTH",
"236 700 LINE",
"236 0 LINE"
);
}
);
width = 492;
},
{
anchors = (
{
name = bottom;
position = "{280, 0}";
},
{
name = ogonek;
position = "{359, 0}";
},
{
name = top;
position = "{280, 700}";
},
{
name = topleft;
position = "{112, 700}";
}
);
layerId = "ED109265-B005-47B0-97BD-F1815082B32B";
paths = (
{
closed = 1;
nodes = (
"388 0 LINE",
"388 700 LINE",
"369 700 OFFCURVE",
"333 700 OFFCURVE",
"280 700 CURVE SMOOTH",
"172 700 LINE",
"172 0 LINE"
);
}
);
width = 560;
},
{
anchors = (
{
name = bottom;
position = "{154, 0}";
},
{
name = ogonek;
position = "{178, 0}";
},
{
name = top;
position = "{154, 700}";
},
{
name = topleft;
position = "{20, 700}";
}
);
layerId = "2B3ECD2C-4B3A-40C3-8F2B-A5E41B85E4DD";
paths = (
{
closed = 1;
nodes = (
"179 0 LINE",
"179 700 LINE",
"170.333 700 OFFCURVE",
"162 700 OFFCURVE",
"154 700 CURVE SMOOTH",
"129 700 LINE",
"129 0 LINE"
);
}
);
width = 308;
}
);
leftKerningGroup = H;
rightKerningGroup = H;
},
